<svg width="45" height="45" viewBox="0 0 45 45" fill="none" xmlns="http://www.w3.org/2000/svg">
<path d="M41.3403 31.7175L28.9537 8.55194C27.6599 6.13319 25.2469 4.68933 22.5019 4.68933C19.7569 4.68933 17.344 6.13319 16.0502 8.55194L3.66405 31.7175C2.4753 33.9432 2.53867 36.5608 3.83617 38.7245C5.13742 40.8939 7.42517 42.1893 9.9583 42.1893H35.0534C37.5865 42.1893 39.8738 40.8939 41.175 38.7245C42.4632 36.5608 42.529 33.9413 41.3403 31.7175ZM39.561 37.7586C38.6028 39.358 36.9172 40.3125 35.0497 40.3125H9.95464C8.08714 40.3125 6.39963 39.358 5.44338 37.7586C4.48713 36.1668 4.44187 34.2374 5.31749 32.6006L17.7037 9.43497C18.6655 7.63684 20.4582 6.5625 22.5019 6.5625C24.5457 6.5625 26.3383 7.63684 27.3002 9.43497L39.6864 32.6006C39.6883 32.6006 39.6882 32.6006 39.6882 32.6006C40.562 34.2374 40.5135 36.1668 39.561 37.7586ZM21.5626 26.25V18.75C21.5626 18.2325 21.9826 17.8125 22.5001 17.8125C23.0176 17.8125 23.4376 18.2325 23.4376 18.75V26.25C23.4376 26.7675 23.0176 27.1875 22.5001 27.1875C21.9826 27.1875 21.5626 26.7675 21.5626 26.25ZM23.9064 31.875C23.9064 32.6531 23.2799 33.2812 22.5074 33.2812C21.7368 33.2812 21.0939 32.6531 21.0939 31.875C21.0939 31.0969 21.707 30.4688 22.4795 30.4688H22.5074C23.2799 30.4688 23.9064 31.0969 23.9064 31.875Z" fill="#53FFEC"/>
</svg>
