<svg width="25" height="25" viewBox="0 0 25 25" fill="none" xmlns="http://www.w3.org/2000/svg">
<g clip-path="url(#clip0_478_3531)">
<path d="M18.841 8.25366H6.15886C5.87675 8.25366 5.64807 8.48234 5.64807 8.76445V19.3995C5.64807 19.6816 5.87675 19.9103 6.15886 19.9103H8.41979V23.4943C8.41979 24.3259 9.0939 25 9.92553 25C10.7571 25 11.4313 24.3259 11.4313 23.4943V19.9103H13.5373V23.4943C13.5373 24.3259 14.2114 25 15.043 25C15.8746 25 16.5488 24.3259 16.5488 23.4943V19.9103H18.8411C19.1232 19.9103 19.3519 19.6816 19.3519 19.3995V8.76445C19.3518 8.48234 19.1231 8.25366 18.841 8.25366Z"/>
<path d="M3.50097 8.25122C2.66941 8.25122 1.99524 8.92533 1.99524 9.75696V15.8727C1.99524 16.7042 2.66935 17.3784 3.50097 17.3784C4.33254 17.3784 5.00671 16.7043 5.00671 15.8727V9.75696C5.00665 8.92539 4.33254 8.25122 3.50097 8.25122Z"/>
<path d="M21.4989 8.25122C20.6673 8.25122 19.9932 8.92533 19.9932 9.75696V15.8727C19.9932 16.7042 20.6673 17.3784 21.4989 17.3784C22.3305 17.3784 23.0046 16.7043 23.0046 15.8727V9.75696C23.0046 8.92539 22.3305 8.25122 21.4989 8.25122Z"/>
<path d="M6.26144 7.50776H18.7084C19.0331 7.50776 19.2753 7.20864 19.2086 6.89083C18.7969 4.92853 17.5475 3.27484 15.8523 2.31953L16.9163 0.399641C16.9883 0.26966 16.9414 0.105852 16.8114 0.0338425C16.6811 -0.0383491 16.5175 0.00879027 16.4455 0.138771L15.3734 2.07312C14.4953 1.66563 13.5167 1.43804 12.4849 1.43804C11.4531 1.43804 10.4744 1.66563 9.59635 2.07312L8.52425 0.138711C8.45218 0.00866925 8.28837 -0.038228 8.15845 0.033782C8.02847 0.105792 7.98151 0.2696 8.05352 0.399581L9.11757 2.31946C7.42231 3.27484 6.17297 4.92847 5.76124 6.89083C5.6945 7.20864 5.93667 7.50776 6.26144 7.50776ZM16.1989 4.64654C16.1989 4.96617 15.9398 5.22534 15.6201 5.22534C15.3005 5.22534 15.0413 4.96623 15.0413 4.64654C15.0413 4.32691 15.3004 4.06773 15.6201 4.06773C15.9398 4.06773 16.1989 4.32691 16.1989 4.64654ZM9.34958 4.06773C9.66921 4.06773 9.92838 4.32685 9.92838 4.64654C9.92838 4.96617 9.66927 5.22534 9.34958 5.22534C9.02995 5.22534 8.77078 4.96623 8.77078 4.64654C8.77078 4.32691 9.02989 4.06773 9.34958 4.06773Z"/>
</g>
<defs>
<clipPath id="clip0_478_3531">
<rect width="25" height="25"/>
</clipPath>
</defs>
</svg>
