<svg width="24" height="14" viewBox="0 0 24 14" fill="none" xmlns="http://www.w3.org/2000/svg">
<path d="M17.532 10.3358C16.98 10.3358 16.524 9.89252 16.524 9.34145C16.524 8.79038 16.98 8.3591 17.532 8.3591C18.084 8.3591 18.54 8.79038 18.54 9.34145C18.54 9.89252 18.084 10.3358 17.532 10.3358ZM6.492 10.3358C5.94 10.3358 5.484 9.89252 5.484 9.34145C5.484 8.79038 5.94 8.3591 6.492 8.3591C7.044 8.3591 7.488 8.79038 7.488 9.34145C7.488 9.89252 7.044 10.3358 6.492 10.3358ZM17.892 4.3339L19.896 0.883722C20.004 0.680066 19.932 0.428491 19.74 0.320673C19.536 0.200875 19.284 0.272754 19.2 0.47641L17.148 3.96253C15.533 3.22485 13.776 2.84868 12 2.86039C10.164 2.86039 8.4 3.25572 6.876 3.95055L4.848 0.46443C4.82254 0.415921 4.78738 0.373145 4.74469 0.338752C4.702 0.304358 4.6527 0.27908 4.59982 0.26448C4.54695 0.249881 4.49164 0.246272 4.43732 0.253877C4.38299 0.261482 4.33081 0.280139 4.284 0.308693C4.08 0.416511 4.02 0.668086 4.128 0.871742L6.12 4.32192C2.7 6.19076 0.348 9.65292 0 13.75H24C23.664 9.6649 21.324 6.20274 17.892 4.3339Z" fill="#141C25"/>
</svg>
