<svg width="19" height="14" viewBox="0 0 19 14" fill="none" xmlns="http://www.w3.org/2000/svg">
<path fill-rule="evenodd" clip-rule="evenodd" d="M11.4697 13.0303C11.1768 12.7374 11.1768 12.2626 11.4697 11.9697L15.6894 7.75L1.50002 7.75C1.0858 7.75 0.75002 7.41421 0.75002 7C0.75002 6.58578 1.0858 6.25 1.50002 6.25L15.6894 6.25L11.4697 2.03033C11.1768 1.73744 11.1768 1.26256 11.4697 0.96967C11.7626 0.676776 12.2375 0.676776 12.5303 0.96967L17.8889 6.32825C18.0744 6.51375 18.1672 6.75687 18.1672 7C18.1672 7.24313 18.0744 7.48625 17.8889 7.67175L12.5303 13.0303C12.2375 13.3232 11.7626 13.3232 11.4697 13.0303Z" fill="#0B0A17"/>
</svg>
