<svg width="1108" height="234" viewBox="0 0 1108 234" fill="none" xmlns="http://www.w3.org/2000/svg">
<path fill-rule="evenodd" clip-rule="evenodd" d="M912.04 162.511C982.903 99.6438 1022.43 135.07 1108 233.499H321.706H0C5.38392 228.553 11.5977 221.14 18.4618 212.952C40.0225 187.231 67.9997 153.857 96.8317 165.228C100.974 166.854 105.352 166.715 109.441 164.826C113.531 162.937 117.16 159.38 119.897 154.578C145.144 110.175 161.706 126.86 191.839 177.844C203.737 155.04 213.644 169.117 238.455 204.368C239.165 205.378 239.887 206.404 240.622 207.447C293.238 159.808 311.914 144.306 360.676 189.463C394.548 149.51 436.643 104.885 479.917 121.953C486.686 124.609 493.838 124.381 500.52 121.296C507.202 118.21 513.132 112.398 517.603 104.552C558.854 32.0022 585.913 59.2641 635.149 142.566C654.587 105.306 670.775 128.306 711.312 185.903C712.472 187.552 713.652 189.228 714.853 190.933C801.192 112.762 831.599 87.5518 912.04 162.511Z" fill="#0456A3"/>
<path d="M406.903 89.8542C429.944 72.3424 446.23 85.9139 446.23 85.9139C457.631 80.5808 467.66 84.3219 472.86 90.4113C476.08 94.2321 468.848 93.5554 452.616 93.5554H407.511C407.167 93.5554 406.839 93.3502 406.596 92.9844C406.354 92.6185 406.217 92.1226 406.217 91.6048C406.22 91.2486 406.284 90.8976 406.405 90.5902C406.525 90.2829 406.697 90.0288 406.903 89.8542Z" fill="#0456A3"/>
<path d="M504.849 60.2515C503.265 60.2526 501.706 60.8325 500.304 61.9413C498.903 63.0505 497.699 64.6556 496.799 66.6192C493.276 64.1991 489.366 63.3549 485.534 64.1876C481.702 65.0202 478.11 67.494 475.183 71.3156H514.324C513.776 68.1527 512.549 65.3521 510.835 63.351C509.122 61.3495 507.016 60.2598 504.849 60.2515Z" fill="#0456A3"/>
<path d="M1009.36 106.894C1009.68 106.899 1010.01 106.798 1010.3 106.598C1010.59 106.399 1010.85 106.106 1011.06 105.739C1011.27 105.373 1011.42 104.943 1011.51 104.48C1011.58 104.017 1011.6 103.534 1011.54 103.063C1010.92 98.1377 1009.24 93.6428 1006.74 90.2585C1004.23 86.8732 1001.06 84.7818 997.682 84.2998C994.298 83.8176 990.915 84.9711 988.013 87.5858C985.121 90.2009 982.885 94.1343 981.64 98.7943C980.483 98.4258 979.309 98.2407 978.125 98.2416C975.864 98.2354 973.62 98.9296 971.542 100.279C969.465 101.628 967.606 103.602 966.072 106.074C966.037 106.145 966.011 106.232 965.994 106.325C965.985 106.418 965.994 106.513 966.02 106.599C966.046 106.685 966.09 106.758 966.143 106.811C966.195 106.863 966.256 106.892 966.318 106.894H1009.36Z" fill="#0456A3"/>
</svg>
