<svg width="40" height="41" viewBox="0 0 40 41" fill="none" xmlns="http://www.w3.org/2000/svg">
<circle cx="20" cy="20.5371" r="20" fill="#434CFF"/>
<g clip-path="url(#clip0_156_1743)">
<path d="M20.0935 16.3235V22.5318C20.0935 23.1862 19.7164 23.8003 19.1327 24.0964L13 27.2057L19.1325 30.315C19.7164 30.6111 20.4703 30.6111 21.0541 30.315L26.2262 27.693C26.81 27.397 27.1868 26.7829 27.1868 26.1284V19.9203C27.1868 19.2658 26.8098 18.6517 26.2262 18.3559L20.0936 15.2464V13.8508C20.0936 13.1963 19.7167 12.5824 19.1329 12.2863L13.9608 9.66407C13.377 9.36812 13 9.59956 13 10.2541V18.843L19.1325 15.7335C19.7164 15.4376 20.0935 15.6692 20.0935 16.3235Z" fill="white"/>
</g>
<defs>
<clipPath id="clip0_156_1743">
<rect width="14.1868" height="21" fill="white" transform="translate(13 9.53711)"/>
</clipPath>
</defs>
</svg>
