<svg width="55" height="55" viewBox="0 0 55 55" fill="none" xmlns="http://www.w3.org/2000/svg">
<rect width="55" height="55" rx="27.5" fill="#F0B90B"/>
<path d="M15.1999 27.6069L15.2198 34.8785L21.3984 38.5143V42.7715L11.6038 37.027V25.4805L15.1999 27.6069ZM15.1999 20.3352V24.5726L11.6016 22.444V18.2066L15.1999 16.078L18.8159 18.2066L15.1999 20.3352ZM23.9788 18.2066L27.5771 16.078L31.1931 18.2066L27.5771 20.3352L23.9788 18.2066Z" fill="white"/>
<path d="M17.8001 33.3713V29.1141L21.3984 31.2427V35.4801L17.8001 33.3713ZM23.9788 40.0392L27.5771 42.1678L31.1931 40.0392V44.2766L27.5771 46.4052L23.9788 44.2766V40.0392ZM36.3538 18.2066L39.9521 16.078L43.5681 18.2066V22.444L39.9521 24.5726V20.3352L36.3538 18.2066ZM39.9521 34.8785L39.972 27.6069L43.5703 25.4783V37.0248L33.7757 42.7693V38.5121L39.9521 34.8785Z" fill="white"/>
<path d="M37.3718 33.3713L33.7734 35.4801V31.2427L37.3718 29.1141V33.3713Z" fill="white"/>
<path d="M37.3718 21.8425L37.3916 26.0997L31.1953 29.7355V37.0247L27.597 39.1335L23.9986 37.0247V29.7355L17.8023 26.0997V21.8425L21.4161 19.7138L27.5749 23.3673L33.7712 19.7138L37.3872 21.8425H37.3718ZM17.8001 14.573L27.5771 8.80859L37.3718 14.573L33.7734 16.7016L27.5771 13.0482L21.3984 16.7016L17.8001 14.573Z" fill="white"/>
</svg>
