<svg width="25" height="24" viewBox="0 0 25 24" fill="none" xmlns="http://www.w3.org/2000/svg">
<path d="M18.368 4H16.868V3C16.868 2.724 16.644 2.5 16.368 2.5C16.092 2.5 15.868 2.724 15.868 3V4H8.86804V3C8.86804 2.724 8.64404 2.5 8.36804 2.5C8.09204 2.5 7.86804 2.724 7.86804 3V4H6.36804C4.07804 4 2.86804 5.21 2.86804 7.5V18C2.86804 20.29 4.07804 21.5 6.36804 21.5H18.368C20.658 21.5 21.868 20.29 21.868 18V7.5C21.868 5.21 20.658 4 18.368 4ZM6.36804 5H7.86804V6C7.86804 6.276 8.09204 6.5 8.36804 6.5C8.64404 6.5 8.86804 6.276 8.86804 6V5H15.868V6C15.868 6.276 16.092 6.5 16.368 6.5C16.644 6.5 16.868 6.276 16.868 6V5H18.368C20.097 5 20.868 5.771 20.868 7.5V8.5H3.86804V7.5C3.86804 5.771 4.63904 5 6.36804 5ZM18.368 20.5H6.36804C4.63904 20.5 3.86804 19.729 3.86804 18V9.5H20.868V18C20.868 19.729 20.097 20.5 18.368 20.5ZM9.11804 13C9.11804 13.415 8.78395 13.75 8.37195 13.75C7.96095 13.75 7.61804 13.415 7.61804 13C7.61804 12.585 7.94506 12.25 8.35706 12.25H8.37195C8.78395 12.25 9.11804 12.585 9.11804 13ZM13.118 13C13.118 13.415 12.7839 13.75 12.3719 13.75C11.9609 13.75 11.618 13.415 11.618 13C11.618 12.585 11.9451 12.25 12.3571 12.25H12.3719C12.7839 12.25 13.118 12.585 13.118 13ZM17.118 13C17.118 13.415 16.7839 13.75 16.3719 13.75C15.9609 13.75 15.618 13.415 15.618 13C15.618 12.585 15.9451 12.25 16.3571 12.25H16.3719C16.7839 12.25 17.118 12.585 17.118 13ZM9.11804 17C9.11804 17.415 8.78395 17.75 8.37195 17.75C7.96095 17.75 7.61804 17.415 7.61804 17C7.61804 16.585 7.94506 16.25 8.35706 16.25H8.37195C8.78395 16.25 9.11804 16.585 9.11804 17ZM13.118 17C13.118 17.415 12.7839 17.75 12.3719 17.75C11.9609 17.75 11.618 17.415 11.618 17C11.618 16.585 11.9451 16.25 12.3571 16.25H12.3719C12.7839 16.25 13.118 16.585 13.118 17ZM17.118 17C17.118 17.415 16.7839 17.75 16.3719 17.75C15.9609 17.75 15.618 17.415 15.618 17C15.618 16.585 15.9451 16.25 16.3571 16.25H16.3719C16.7839 16.25 17.118 16.585 17.118 17Z" fill="#8282B6"/>
</svg>
