<svg width="24" height="24" viewBox="0 0 24 24" fill="none" xmlns="http://www.w3.org/2000/svg">
<path d="M5.12832 7.04999C4.0502 7.25156 3.2252 7.68749 2.45645 8.45624C1.79082 9.11718 1.37832 9.83437 1.13457 10.7297C1.02676 11.1328 1.0127 11.2641 1.0127 12C1.0127 12.7359 1.02676 12.8672 1.13457 13.2703C1.60801 15.0281 2.97207 16.3922 4.71582 16.8609C5.16582 16.9828 5.23145 16.9875 6.69395 17.0062L8.20801 17.025L8.45645 16.9031C8.82207 16.725 8.97207 16.4906 8.99082 16.0547C9.00957 15.6891 8.92988 15.45 8.70957 15.2531C8.45645 15.0187 8.4002 15.0141 6.9377 14.9859C5.4377 14.9625 5.2877 14.9437 4.7252 14.6766C4.07832 14.3719 3.50176 13.7437 3.22051 13.0547C3.0752 12.6937 3.07051 12.6562 3.07051 12C3.07051 11.3672 3.07988 11.2969 3.20176 10.9922C3.53926 10.1437 4.1627 9.52031 4.98301 9.21093C5.49395 9.02343 6.01895 8.99062 8.32988 9.00937C10.6596 9.03281 10.6783 9.03749 11.3439 9.36093C11.6111 9.48749 11.7893 9.62343 12.0705 9.90937C12.6564 10.5 12.8955 11.0297 12.9799 11.9203C13.0127 12.3187 13.0408 12.4125 13.158 12.5766C13.5986 13.2094 14.5596 13.1437 14.9064 12.4641C15.0236 12.2344 15.033 11.55 14.9252 11.025C14.5361 9.12187 13.1486 7.64999 11.2596 7.13437L10.8049 7.01249L8.13301 6.99843C6.09395 6.99374 5.38145 7.00312 5.12832 7.04999Z" fill="white"/>
<path d="M15.5347 7.10156C15.3847 7.17656 15.2394 7.29375 15.1597 7.41562C15.0378 7.58906 15.0238 7.64531 15.0238 7.99687C15.0238 8.34844 15.0378 8.4 15.1644 8.58281C15.2441 8.69062 15.3988 8.83125 15.5113 8.89219C15.7128 8.99531 15.7597 9 16.8003 9C18.4878 9 18.9566 9.08437 19.6035 9.51094C20.1519 9.86719 20.5503 10.3641 20.7988 10.9922C20.9207 11.2969 20.93 11.3672 20.93 12C20.93 12.6562 20.9253 12.6937 20.78 13.0547C20.4144 13.9547 19.6503 14.6297 18.6988 14.8922C18.4316 14.9672 18.1503 14.9766 16.0082 14.9766C13.3363 14.9766 13.3457 14.9766 12.6613 14.6391C12.3988 14.5125 12.2113 14.3719 11.93 14.0906C11.3535 13.5141 11.1097 12.9797 11.0253 12.1078C10.9925 11.7797 10.9503 11.6297 10.8566 11.4656C10.491 10.8375 9.55815 10.8328 9.15034 11.4469C9.02847 11.6344 9.02378 11.6625 9.02847 12.2531C9.02847 13.0031 9.13159 13.4344 9.47378 14.1562C10.1113 15.4969 11.2738 16.4625 12.741 16.8656L13.1957 16.9922H16.0082H18.8207L19.2707 16.8656C21.0378 16.3781 22.3925 15.0281 22.8613 13.2844C22.9738 12.8672 22.9878 12.7406 22.9878 12C22.9878 11.2641 22.9738 11.1328 22.866 10.7297C22.6222 9.83437 22.2097 9.11719 21.5441 8.45625C20.8832 7.79062 20.166 7.37812 19.2707 7.13437C18.8394 7.01719 18.7597 7.0125 17.2972 6.99844L15.7738 6.97969L15.5347 7.10156Z" fill="white"/>
</svg>
