<svg width="25" height="21" viewBox="0 0 25 21" fill="none" xmlns="http://www.w3.org/2000/svg">
<path d="M21.5576 0.634768C21.3965 0.678713 21.1328 0.913088 20.0195 2.01172L18.6768 3.33496L17.8906 2.93946C16.0596 2.02149 14.1357 1.59668 12.0898 1.66504C10.8447 1.70899 9.85352 1.87988 8.74023 2.2461C5.69824 3.24219 2.71484 5.60547 0.620117 8.69141C0.0634766 9.50684 0 9.63867 0 10.0049C0 10.3564 0.0830078 10.5225 0.639648 11.3428C1.83105 13.0957 3.52051 14.7949 5.23926 15.9814L5.72266 16.3135L4.47754 17.5635C3.11523 18.9307 3.0957 18.96 3.13477 19.4775C3.15918 19.8438 3.34473 20.127 3.67676 20.2979C3.97461 20.4492 4.38965 20.4541 4.66797 20.3125C4.78516 20.249 8.33008 16.7334 13.8525 11.2109C23.5156 1.54297 22.9492 2.13379 22.9492 1.64551C22.9492 0.937502 22.2705 0.439455 21.5576 0.634768ZM13.8184 3.87696C14.7949 4.00879 15.7861 4.30176 16.6943 4.73145L17.1094 4.92676L16.1865 5.84961C15.6738 6.36231 15.2441 6.77735 15.2246 6.77735C15.2051 6.77735 15.083 6.69922 14.9561 6.60156C14.6338 6.35742 14.1357 6.11817 13.6377 5.9668C13.2617 5.84961 13.125 5.83496 12.5244 5.83496C11.9775 5.83496 11.7627 5.85938 11.4502 5.94238C9.95117 6.34766 8.84766 7.44629 8.44238 8.9502C8.35449 9.26758 8.33496 9.47266 8.33496 10.0244C8.33496 10.6201 8.34961 10.7617 8.4668 11.1377C8.61816 11.6357 8.85742 12.1338 9.10156 12.4561C9.19922 12.583 9.27734 12.7051 9.27734 12.7246C9.27734 12.7441 8.82812 13.208 8.28125 13.7549L7.28516 14.751L6.9043 14.5117C5.96191 13.9307 4.81934 12.9639 3.91602 11.9922C3.41797 11.4551 2.76367 10.6543 2.50488 10.2637L2.3291 10L2.5 9.74121C2.76855 9.34571 3.4082 8.55957 3.88672 8.04688C5.24414 6.59668 6.51855 5.62012 8.03223 4.87305C9.95117 3.92578 11.8164 3.60352 13.8184 3.87696ZM13.042 8.02735C13.2568 8.09082 13.5498 8.22754 13.6719 8.3252C13.6963 8.34473 10.8789 11.1719 10.835 11.1719C10.7861 11.1719 10.5518 10.6641 10.4932 10.4248C10.4199 10.1172 10.459 9.60449 10.5908 9.26758C10.9619 8.2959 12.0654 7.73926 13.042 8.02735Z" fill="#8282B6"/>
<path d="M21.6066 6.51855C21.2258 6.71387 21.0012 7.07519 20.9963 7.47558C20.9963 7.80762 21.0939 7.99804 21.5236 8.50097C21.9826 9.04297 22.3488 9.51172 22.5344 9.79492L22.6711 10L22.4953 10.2588C21.8508 11.1963 20.2932 12.8613 19.385 13.584C17.2609 15.2783 14.9221 16.1914 12.6809 16.2061C12.3537 16.2061 11.9924 16.2305 11.885 16.2598C11.4504 16.3623 11.1281 16.7871 11.1232 17.251C11.1184 17.6123 11.2062 17.8271 11.4455 18.0469C11.7629 18.3398 11.8996 18.3691 12.9103 18.335C15.7619 18.2471 18.3937 17.1875 20.8986 15.1318C22.1926 14.0723 23.5158 12.6074 24.4631 11.1963C24.9416 10.4834 25.0002 10.3516 25.0002 9.98535C25.0002 9.69726 24.9807 9.64355 24.7561 9.27246C24.1213 8.21289 22.9103 6.71387 22.5441 6.53808C22.2853 6.41113 21.8215 6.40137 21.6066 6.51855Z" fill="#8282B6"/>
</svg>
