<svg width="40" height="35" viewBox="0 0 40 35" fill="none" xmlns="http://www.w3.org/2000/svg">
<path d="M20.7528 29.0754C21.4541 28.6663 21.9073 27.8814 21.9613 26.9822L21.903 20.4364L21.9849 16.0648L21.8762 9.60628C21.8799 8.79435 22.333 8.00941 23.0847 7.5131L27.5176 5.07203C28.2189 4.66294 29.1684 4.62969 29.9533 5.08288L34.3141 7.60058C35.0118 8.00341 35.5082 8.7551 35.5414 9.7046L35.5566 14.7137C35.553 15.5256 35.0998 16.3106 34.3481 16.8069L29.9152 19.248C29.2139 19.6571 28.2644 19.6903 27.4795 19.2371L24.6014 17.5754L24.6066 21.9974L27.572 23.7095C28.2697 24.1123 29.1688 24.1663 30.0078 23.7203L38.1352 19.1097C38.8365 18.7006 39.2897 17.9157 39.3437 17.0165L39.2864 7.44784C39.3403 6.54869 38.844 5.797 38.1463 5.39417L29.948 0.660894C29.2503 0.258063 28.3512 0.204094 27.5123 0.650049L19.3345 5.34788C18.6331 5.75698 18.1799 6.54192 18.126 7.44106L18.1474 13.8492L18.1527 18.2712L18.1741 24.6794C18.1705 25.4913 17.7173 26.2763 16.9656 26.7726L12.62 29.264C11.9187 29.6731 10.9692 29.7064 10.1842 29.2532L5.82345 26.7355C5.12573 26.3326 4.62942 25.581 4.59618 24.6315L4.53065 19.7095C4.53427 18.8976 4.98745 18.1127 5.73915 17.6164L10.0848 15.1249C10.7861 14.7159 11.7356 14.6826 12.5205 15.1358L15.3114 16.7471L15.3061 12.3251L12.428 10.6635C11.7303 10.2606 10.8312 10.2067 9.99225 10.6526L1.81445 15.3504C1.11311 15.7595 0.659922 16.5445 0.605953 17.4436L0.626411 26.8747C0.622796 27.6866 1.06875 28.5256 1.85369 28.9787L10.1392 33.7624C10.8369 34.1652 11.736 34.2192 12.575 33.7732L20.7528 29.0754Z" fill="#2D366C"/>
</svg>
