<svg width="31" height="31" viewBox="0 0 31 31" fill="none" xmlns="http://www.w3.org/2000/svg">
<path d="M6.3507 14.8542V23.6253C6.3507 25.2552 7.56496 26.6378 9.1872 26.7959C11.5316 27.0245 13.5228 27.1235 15.5 27.1129M6.3507 14.8542H5.81251C5.09914 14.8542 4.52084 14.2759 4.52084 13.5625V10.3333C4.52084 9.61997 5.09914 9.04167 5.81251 9.04167H8.18057M6.3507 14.8542H15.5M24.6493 14.8542H25.1875C25.9009 14.8542 26.4792 14.2759 26.4792 13.5625V10.3333C26.4792 9.61997 25.9009 9.04167 25.1875 9.04167H22.8195M24.6493 14.8542V23.5768C24.6493 25.2274 23.4051 26.6182 21.7615 26.7693C19.4589 26.9809 17.4865 27.1022 15.5 27.1129M24.6493 14.8542H15.5M8.18057 9.04167C6.96066 7.75 6.48075 5.53728 7.57061 4.56898C9.11895 3.19335 11.8387 3.92631 13.6454 6.20608C14.3478 7.09245 14.8088 8.08214 15.0189 9.04167M8.18057 9.04167H15.0189M15.0189 9.04167H15.9563M15.9563 9.04167C16.1665 8.08214 16.6274 7.09245 17.3299 6.20608C19.1366 3.92631 21.8563 3.19335 23.4047 4.56898C24.4945 5.53728 24.0394 7.75 22.8195 9.04167M15.9563 9.04167H22.8195M15.5 14.8542V27.1129" stroke="url(#paint0_linear_156_1408)" stroke-width="1.5"/>
<defs>
<linearGradient id="paint0_linear_156_1408" x1="15.5" y1="3.875" x2="15.5" y2="27.1136" gradientUnits="userSpaceOnUse">
<stop stop-color="#6B76FE"/>
<stop offset="1" stop-color="#53FFEC"/>
</linearGradient>
</defs>
</svg>
