<svg width="24" height="25" viewBox="0 0 24 25" fill="none" xmlns="http://www.w3.org/2000/svg">
<path d="M12 2.03711C6.21 2.03711 1.5 6.74711 1.5 12.5371C1.5 18.3271 6.21 23.0371 12 23.0371C17.79 23.0371 22.5 18.3271 22.5 12.5371C22.5 6.74711 17.79 2.03711 12 2.03711ZM21.475 12.0371H16.923C16.827 9.07311 15.884 6.03111 14.211 3.30811C18.227 4.27011 21.252 7.78511 21.475 12.0371ZM12.87 3.08112C14.747 5.83312 15.817 8.98111 15.923 12.0371H8.077C8.183 8.98111 9.25301 5.83312 11.13 3.08112C11.417 3.05512 11.706 3.03711 12 3.03711C12.294 3.03711 12.583 3.05512 12.87 3.08112ZM9.789 3.30811C8.117 6.03211 7.174 9.07411 7.077 12.0371H2.52499C2.74799 7.78511 5.773 4.27011 9.789 3.30811ZM2.52499 13.0371H7.077C7.173 16.0011 8.116 19.0431 9.789 21.7661C5.773 20.8041 2.74799 17.2891 2.52499 13.0371ZM11.13 21.9931C9.25301 19.2411 8.183 16.0931 8.077 13.0371H15.923C15.817 16.0931 14.747 19.2411 12.87 21.9931C12.583 22.0191 12.294 22.0371 12 22.0371C11.706 22.0371 11.417 22.0191 11.13 21.9931ZM14.211 21.7661C15.883 19.0421 16.826 16.0001 16.923 13.0371H21.475C21.252 17.2891 18.227 20.8041 14.211 21.7661Z" fill="url(#paint0_linear_156_1728)"/>
<defs>
<linearGradient id="paint0_linear_156_1728" x1="12" y1="2.03711" x2="12" y2="23.0371" gradientUnits="userSpaceOnUse">
<stop stop-color="#6B76FE"/>
<stop offset="1" stop-color="#53FFEC"/>
</linearGradient>
</defs>
</svg>
