<svg width="84" height="41" viewBox="0 0 84 41" fill="none" xmlns="http://www.w3.org/2000/svg">
<rect x="42.2812" width="41" height="41" rx="20.5" fill="#8247E5"/>
<path d="M63.3848 29.3226C63.9077 29.0177 64.2455 28.4325 64.2857 27.7623L64.2423 22.8827L64.3033 19.6239L64.2224 14.8093C64.225 14.2041 64.5629 13.6189 65.1232 13.2489L68.4277 11.4292C68.9505 11.1243 69.6583 11.0995 70.2435 11.4373L73.4942 13.3142C74.0144 13.6144 74.3843 14.1748 74.4091 14.8826L74.4204 18.6167C74.4177 19.2219 74.0799 19.8071 73.5195 20.177L70.2151 21.9968C69.6922 22.3017 68.9844 22.3265 68.3993 21.9887L66.2538 20.75L66.2577 24.0463L68.4683 25.3226C68.9884 25.6229 69.6587 25.6631 70.284 25.3307L76.3427 21.8937C76.8655 21.5887 77.2033 21.0036 77.2436 20.3333L77.2008 13.2003C77.2411 12.53 76.8711 11.9697 76.351 11.6694L70.2395 8.14093C69.7194 7.84064 69.0491 7.80041 68.4238 8.13285L62.3276 11.6349C61.8048 11.9398 61.4669 12.525 61.4267 13.1952L61.4427 17.9723L61.4466 21.2686L61.4626 26.0457C61.4599 26.6509 61.1221 27.236 60.5617 27.606L57.3223 29.4633C56.7994 29.7682 56.0916 29.793 55.5065 29.4552L52.2557 27.5784C51.7356 27.2781 51.3656 26.7177 51.3408 26.0099L51.292 22.3408C51.2947 21.7356 51.6325 21.1504 52.1929 20.7805L55.4323 18.9232C55.9552 18.6183 56.663 18.5935 57.2481 18.9313L59.3286 20.1325L59.3246 16.8361L57.1791 15.5974C56.659 15.2971 55.9888 15.2569 55.3634 15.5893L49.2672 19.0913C48.7444 19.3963 48.4065 19.9814 48.3663 20.6517L48.3816 27.6822C48.3789 28.2874 48.7113 28.9128 49.2965 29.2506L55.4729 32.8166C55.993 33.1169 56.6633 33.1571 57.2887 32.8247L63.3848 29.3226Z" fill="white"/>
<rect x="21.1406" width="41" height="41" rx="20.5" fill="#F0B90B"/>
<path d="M32.4715 20.5797L32.4863 26.0003L37.0922 28.7107V31.8842L29.7907 27.6019V18.9945L32.4715 20.5797ZM32.4715 15.159V18.3178L29.7891 16.731V13.5722L32.4715 11.9854L35.167 13.5722L32.4715 15.159ZM39.0157 13.5722L41.6981 11.9854L44.3937 13.5722L41.6981 15.159L39.0157 13.5722Z" fill="white"/>
<path d="M34.4098 24.8768V21.7032L37.0922 23.29V26.4488L34.4098 24.8768ZM39.0157 29.8474L41.6981 31.4342L44.3937 29.8474V33.0062L41.6981 34.5929L39.0157 33.0062V29.8474ZM48.2407 13.5722L50.9231 11.9854L53.6187 13.5722V16.731L50.9231 18.3178V15.159L48.2407 13.5722ZM50.9231 26.0003L50.9379 20.5797L53.6203 18.9929V27.6003L46.3188 31.8826V28.709L50.9231 26.0003Z" fill="white"/>
<path d="M48.9996 24.8768L46.3172 26.4488V23.29L48.9996 21.7032V24.8768Z" fill="white"/>
<path d="M48.9996 16.2826L49.0144 19.4561L44.3953 22.1664V27.6003L41.7129 29.1723L39.0305 27.6003V22.1664L34.4114 19.4561V16.2826L37.1053 14.6958L41.6965 17.4193L46.3155 14.6958L49.0111 16.2826H48.9996ZM34.4098 10.8635L41.6981 6.56641L48.9996 10.8635L46.3172 12.4503L41.6981 9.72682L37.0922 12.4503L34.4098 10.8635Z" fill="white"/>
<rect width="41" height="41" rx="20.5" fill="#ECEFF0"/>
<path d="M20.5731 3.68359L20.3474 4.45005V26.6888L20.5731 26.9139L30.8958 20.812L20.5731 3.68359Z" fill="#343434"/>
<path d="M20.573 3.68359L10.25 20.812L20.573 26.9139V16.1198V3.68359Z" fill="#8C8C8C"/>
<path d="M20.573 28.8682L20.4458 29.0233V36.9451L20.573 37.3163L30.902 22.7695L20.573 28.8682Z" fill="#3C3C3B"/>
<path d="M20.573 37.3163V28.8682L10.25 22.7695L20.573 37.3163Z" fill="#8C8C8C"/>
<path d="M20.573 26.9137L30.8957 20.8118L20.573 16.1196V26.9137Z" fill="#141414"/>
<path d="M10.25 20.8118L20.573 26.9137V16.1196L10.25 20.8118Z" fill="#393939"/>
</svg>
