<svg width="24" height="24" viewBox="0 0 24 24" fill="none" xmlns="http://www.w3.org/2000/svg">
<path d="M11.9982 4.60998C14.4061 4.60998 14.6913 4.62054 15.6383 4.66279C16.5184 4.70151 16.9937 4.84937 17.3105 4.97259C17.7294 5.13453 18.0322 5.33167 18.3455 5.64499C18.6623 5.96183 18.856 6.26107 19.0179 6.68C19.1411 6.99684 19.289 7.47562 19.3277 8.35221C19.37 9.30272 19.3805 9.58788 19.3805 11.9923C19.3805 14.4003 19.37 14.6855 19.3277 15.6325C19.289 16.5126 19.1411 16.9878 19.0179 17.3047C18.856 17.7236 18.6588 18.0264 18.3455 18.3397C18.0287 18.6565 17.7294 18.8501 17.3105 19.0121C16.9937 19.1353 16.5149 19.2832 15.6383 19.3219C14.6878 19.3641 14.4026 19.3747 11.9982 19.3747C9.59018 19.3747 9.30502 19.3641 8.35803 19.3219C7.47792 19.2832 7.00266 19.1353 6.68582 19.0121C6.26689 18.8501 5.96413 18.653 5.65081 18.3397C5.33397 18.0228 5.14035 17.7236 4.97841 17.3047C4.85519 16.9878 4.70733 16.5091 4.66861 15.6325C4.62636 14.682 4.6158 14.3968 4.6158 11.9923C4.6158 9.58436 4.62636 9.2992 4.66861 8.35221C4.70733 7.4721 4.85519 6.99684 4.97841 6.68C5.14035 6.26107 5.33749 5.95831 5.65081 5.64499C5.96765 5.32815 6.26689 5.13453 6.68582 4.97259C7.00266 4.84937 7.48144 4.70151 8.35803 4.66279C9.30502 4.62054 9.59018 4.60998 11.9982 4.60998ZM11.9982 2.98706C9.55146 2.98706 9.24518 2.99762 8.2841 3.03987C7.32654 3.08211 6.66822 3.23701 6.09791 3.4588C5.50295 3.69115 4.99953 3.99743 4.49963 4.50085C3.99621 5.00075 3.68993 5.50417 3.45758 6.09561C3.23579 6.66944 3.08089 7.32424 3.03865 8.2818C2.9964 9.2464 2.98584 9.55267 2.98584 11.9994C2.98584 14.4461 2.9964 14.7524 3.03865 15.7134C3.08089 16.671 3.23579 17.3293 3.45758 17.8996C3.68993 18.4946 3.99621 18.998 4.49963 19.4979C4.99953 19.9978 5.50295 20.3076 6.09439 20.5364C6.66822 20.7582 7.32302 20.9131 8.28058 20.9554C9.24166 20.9976 9.54793 21.0082 11.9946 21.0082C14.4413 21.0082 14.7476 20.9976 15.7087 20.9554C16.6663 20.9131 17.3246 20.7582 17.8949 20.5364C18.4863 20.3076 18.9897 19.9978 19.4896 19.4979C19.9895 18.998 20.2993 18.4946 20.5282 17.9032C20.75 17.3293 20.9049 16.6745 20.9471 15.717C20.9894 14.7559 20.9999 14.4496 20.9999 12.0029C20.9999 9.5562 20.9894 9.24992 20.9471 8.28884C20.9049 7.33128 20.75 6.67296 20.5282 6.10265C20.3064 5.50417 20.0001 5.00075 19.4967 4.50085C18.9968 4.00095 18.4934 3.69115 17.9019 3.46232C17.3281 3.24053 16.6733 3.08563 15.7157 3.04339C14.7511 2.99762 14.4449 2.98706 11.9982 2.98706Z"/>
<path d="M11.9982 7.37C9.44232 7.37 7.36878 9.44354 7.36878 11.9994C7.36878 14.5552 9.44232 16.6288 11.9982 16.6288C14.554 16.6288 16.6275 14.5552 16.6275 11.9994C16.6275 9.44354 14.554 7.37 11.9982 7.37ZM11.9982 15.0023C10.34 15.0023 8.99522 13.6575 8.99522 11.9994C8.99522 10.3413 10.34 8.99645 11.9982 8.99645C13.6563 8.99645 15.0011 10.3413 15.0011 11.9994C15.0011 13.6575 13.6563 15.0023 11.9982 15.0023Z" />
<path d="M17.8914 7.18691C17.8914 7.78538 17.4055 8.26768 16.8106 8.26768C16.2121 8.26768 15.7298 7.78186 15.7298 7.18691C15.7298 6.58843 16.2156 6.10613 16.8106 6.10613C17.4055 6.10613 17.8914 6.59195 17.8914 7.18691Z"/>
</svg>
