<svg width="20" height="24" viewBox="0 0 20 24" fill="none" xmlns="http://www.w3.org/2000/svg">
<path d="M19.1085 8.18242C18.9699 8.29043 16.5222 9.67537 16.5222 12.7549C16.5222 16.3168 19.6367 17.577 19.73 17.6082C19.7156 17.685 19.2352 19.3339 18.0878 21.0141C17.0648 22.4926 15.9963 23.9688 14.3709 23.9688C12.7455 23.9688 12.3272 23.0207 10.4508 23.0207C8.62223 23.0207 7.97207 24 6.4853 24C4.99853 24 3.96114 22.6319 2.76837 20.9517C1.38678 18.9787 0.270508 15.9136 0.270508 13.0045C0.270508 8.33843 3.29185 5.86379 6.26539 5.86379C7.84538 5.86379 9.16244 6.90549 10.1544 6.90549C11.0986 6.90549 12.571 5.80138 14.3685 5.80138C15.0498 5.80138 17.4974 5.86379 19.1085 8.18242ZM13.5152 3.82598C14.2586 2.94029 14.7844 1.71137 14.7844 0.482448C14.7844 0.312031 14.7701 0.139214 14.739 0C13.5295 0.0456046 12.0906 0.808881 11.2229 1.81938C10.5416 2.59706 9.90582 3.82598 9.90582 5.07171C9.90582 5.25893 9.9369 5.44614 9.95124 5.50615C10.0277 5.52055 10.152 5.53735 10.2763 5.53735C11.3615 5.53735 12.7264 4.80768 13.5152 3.82598Z"/>
</svg>
