<svg width="84" height="84" viewBox="0 0 84 84" fill="none" xmlns="http://www.w3.org/2000/svg">
<path d="M38.0004 9.88313C40.4757 8.45407 43.5252 8.45407 46.0004 9.88313L67.8144 22.4774C70.2896 23.9065 71.8144 26.5475 71.8144 29.4056V54.5943C71.8144 57.4524 70.2896 60.0934 67.8144 61.5225L46.0004 74.1168C43.5252 75.5458 40.4757 75.5458 38.0004 74.1168L16.1865 61.5225C13.7113 60.0934 12.1865 57.4524 12.1865 54.5943L12.1865 29.4056C12.1865 26.5475 13.7113 23.9065 16.1865 22.4774L38.0004 9.88313Z" fill="url(#paint0_linear_208_2023)"/>
<path d="M38.25 2.74241C40.5705 1.40267 43.4295 1.40267 45.75 2.74241L74.1231 19.1236C76.4436 20.4634 77.8731 22.9393 77.8731 25.6188V58.3812C77.8731 61.0607 76.4436 63.5366 74.1231 64.8764L45.75 81.2576C43.4295 82.5973 40.5705 82.5973 38.25 81.2576L9.87693 64.8764C7.55643 63.5366 6.12693 61.0607 6.12693 58.3812L6.12693 25.6188C6.12693 22.9393 7.55643 20.4634 9.87693 19.1236L38.25 2.74241Z" stroke="url(#paint1_linear_208_2023)"/>
<path d="M37.5828 34.141C33.8067 36.0345 33.3709 36.2658 33.258 36.4433C33.0697 36.723 33.0536 36.9543 33.1181 38.1485C33.4732 44.2753 35.9637 48.6969 40.2508 50.784C41.1276 51.2089 41.687 51.4133 41.999 51.4133C42.3056 51.4133 42.8651 51.2143 43.7472 50.784C48.0182 48.713 50.5249 44.2753 50.8799 38.1485C50.9445 36.9489 50.9283 36.723 50.7347 36.4379C50.6163 36.2497 50.2452 36.056 46.4099 34.1357C42.9565 32.409 42.1765 32.0378 41.9936 32.0378C41.8161 32.0378 41.0362 32.409 37.5828 34.141ZM42.3056 37.8042C42.3702 37.8741 42.6122 38.3206 42.8543 38.7993C43.1125 39.3157 43.3384 39.7084 43.4137 39.7568C43.5105 39.816 45.1781 40.1065 45.4416 40.1065C45.4685 40.1065 45.56 40.171 45.6514 40.2463C45.7805 40.3539 45.8182 40.4292 45.8182 40.5798C45.8182 40.7573 45.7536 40.838 45.0382 41.5588C44.1238 42.484 44.1776 42.3011 44.4142 43.6567C44.5541 44.4366 44.5649 44.5657 44.5003 44.7164C44.4196 44.9046 44.2798 45.0014 44.07 45.0014C43.9893 45.0014 43.5321 44.797 43.0533 44.5442C42.467 44.2376 42.1174 44.087 41.999 44.087C41.8807 44.087 41.531 44.2376 40.9447 44.5442C40.466 44.797 40.0088 45.0014 39.9281 45.0014C39.7183 45.0014 39.5784 44.9046 39.4977 44.7164C39.4386 44.5657 39.4493 44.4366 39.5838 43.6836C39.8259 42.3119 39.8743 42.484 38.9598 41.5588C38.2444 40.838 38.1799 40.7573 38.1799 40.5798C38.1799 40.4292 38.2175 40.3539 38.3466 40.2463C38.4381 40.171 38.5295 40.1065 38.5564 40.1065C38.82 40.1065 40.4875 39.816 40.5843 39.7568C40.6596 39.7084 40.8855 39.3157 41.1437 38.7993C41.6494 37.7827 41.7247 37.6859 41.999 37.6859C42.1335 37.6859 42.2303 37.7235 42.3056 37.8042Z" fill="#0B0A17"/>
<path d="M31.6711 47.4974C30.5738 48.6001 29.9444 49.2671 29.9767 49.2994C30.009 49.3263 30.6599 49.5845 31.4291 49.8696C32.1983 50.1601 32.8438 50.4183 32.8599 50.4452C32.8814 50.4774 33.1342 51.1391 33.4247 51.919C33.7152 52.699 33.968 53.3391 33.9841 53.3391C34.0003 53.3391 34.6727 52.6775 35.4795 51.8706L36.9534 50.3967L36.3778 49.8373C35.3719 48.8637 34.5328 47.7556 33.8281 46.4808C33.6506 46.1526 33.4839 45.8568 33.4624 45.8191C33.4301 45.7707 32.8814 46.2871 31.6711 47.4974Z" fill="#0B0A17"/>
<path d="M50.3958 46.0666C49.7019 47.4436 48.7337 48.7615 47.6202 49.8373L47.0446 50.3967L48.5185 51.8706C49.3254 52.6775 49.9977 53.3391 50.0139 53.3391C50.03 53.3391 50.2828 52.699 50.5733 51.919C50.8638 51.1391 51.1166 50.4774 51.1381 50.4452C51.1542 50.4183 51.7997 50.1601 52.5689 49.875C53.3382 49.5845 53.989 49.3263 54.0213 49.2994C54.0536 49.2671 53.4404 48.6163 52.3161 47.492L50.5625 45.7384L50.3958 46.0666Z" fill="#0B0A17"/>
<defs>
<linearGradient id="paint0_linear_208_2023" x1="68.4287" y1="12.0289" x2="7.18163" y2="50.4823" gradientUnits="userSpaceOnUse">
<stop stop-color="#6B76FE"/>
<stop offset="1" stop-color="#53FFEC"/>
</linearGradient>
<linearGradient id="paint1_linear_208_2023" x1="74.2424" y1="5.4353" x2="-0.478958" y2="52.3484" gradientUnits="userSpaceOnUse">
<stop stop-color="#6B76FE"/>
<stop offset="1" stop-color="#53FFEC"/>
</linearGradient>
</defs>
</svg>
