<svg width="24" height="24" viewBox="0 0 24 24" fill="none" xmlns="http://www.w3.org/2000/svg">
<path d="M16.5001 8.53491V7C16.5001 4.519 14.4811 2.5 12.0001 2.5C9.51906 2.5 7.50006 4.519 7.50006 7V8.53491C5.54206 8.70691 4.50006 9.888 4.50006 12V18C4.50006 20.29 5.71006 21.5 8.00006 21.5H16.0001C18.2901 21.5 19.5001 20.29 19.5001 18V12C19.5001 9.888 18.4581 8.70691 16.5001 8.53491ZM12.0001 3.5C13.9301 3.5 15.5001 5.07 15.5001 7V8.5H8.50006V7C8.50006 5.07 10.0701 3.5 12.0001 3.5ZM18.5001 18C18.5001 19.729 17.7291 20.5 16.0001 20.5H8.00006C6.27106 20.5 5.50006 19.729 5.50006 18V12C5.50006 10.271 6.27106 9.5 8.00006 9.5H16.0001C17.7291 9.5 18.5001 10.271 18.5001 12V18ZM13.0001 14C13.0001 14.368 12.7941 14.6751 12.5001 14.8491V17C12.5001 17.276 12.2761 17.5 12.0001 17.5C11.7241 17.5 11.5001 17.276 11.5001 17V14.843C11.2081 14.668 11.0001 14.364 11.0001 14C11.0001 13.447 11.4352 13 11.9852 13H12.0049C12.5549 13 13.0001 13.447 13.0001 14Z" fill="#53FFEC"/>
</svg>
