<svg width="24" height="24" viewBox="0 0 24 24" fill="none" xmlns="http://www.w3.org/2000/svg">
<path d="M18.0001 4.5H6.00006C3.71006 4.5 2.50006 5.71 2.50006 8V17C2.50006 19.29 3.71006 20.5 6.00006 20.5H18.0001C20.2901 20.5 21.5001 19.29 21.5001 17V8C21.5001 5.71 20.2901 4.5 18.0001 4.5ZM20.5001 17C20.5001 18.729 19.7291 19.5 18.0001 19.5H6.00006C4.27106 19.5 3.50006 18.729 3.50006 17V8C3.50006 6.271 4.27106 5.5 6.00006 5.5H18.0001C19.7291 5.5 20.5001 6.271 20.5001 8V17ZM17.9041 8.70599C18.0661 8.92899 18.017 9.24201 17.794 9.40401L12.8821 12.976C12.6181 13.168 12.3091 13.264 12.0001 13.264C11.6901 13.264 11.382 13.168 11.118 12.976L6.20612 9.40401C5.98212 9.24201 5.93401 8.92899 6.09601 8.70599C6.25801 8.48199 6.57201 8.43399 6.79401 8.59599L11.7061 12.168C11.8821 12.295 12.118 12.296 12.294 12.168L17.2061 8.59599C17.4291 8.43399 17.7421 8.48199 17.9041 8.70599Z" fill="#53FFEC"/>
</svg>
