<svg width="24" height="24" viewBox="0 0 24 24" fill="none" xmlns="http://www.w3.org/2000/svg">
<path d="M4.03125 1.26094C2.70469 1.54219 1.66406 2.53594 1.27969 3.89531C1.2 4.18125 1.19531 4.58438 1.19531 12C1.19531 19.4156 1.2 19.8188 1.27969 20.1047C1.67813 21.5109 2.76094 22.5094 4.17188 22.7625C4.45781 22.8141 5.925 22.8234 11.9813 22.8281C18.4688 22.8281 19.4953 22.8188 19.8516 22.7578C21.3 22.5047 22.4391 21.3938 22.7391 19.9453C22.8188 19.5563 22.8281 19.2563 22.8281 16.0547C22.8281 12.7359 22.8234 12.5766 22.7344 12.3891C22.6172 12.1219 22.4109 12 22.0828 12C21.7594 12 21.5344 12.1313 21.4172 12.3938C21.3328 12.5766 21.3281 12.7734 21.3281 16.0313C21.3281 18.7547 21.3141 19.5234 21.2625 19.7109C21.0609 20.475 20.475 21.0609 19.7109 21.2625C19.5188 21.3141 18.0938 21.3281 12 21.3281C5.90625 21.3281 4.48125 21.3141 4.28906 21.2625C3.525 21.0609 2.93906 20.475 2.7375 19.7109C2.64375 19.3641 2.64375 4.63594 2.7375 4.28906C2.93906 3.525 3.525 2.93906 4.28906 2.7375C4.47656 2.68594 5.24063 2.67188 7.96406 2.67188C11.3531 2.67188 11.4094 2.67188 11.6063 2.57344C11.8781 2.44688 12 2.23594 12 1.91719C12 1.58906 11.8781 1.38281 11.6109 1.26563C11.4234 1.17656 11.2688 1.17188 7.92188 1.17656C4.74375 1.17656 4.39219 1.18594 4.03125 1.26094Z" fill="#8282B6" fill-opacity="0.3"/>
<path d="M18.3515 1.20005C17.9906 1.26099 17.6156 1.38286 17.2734 1.5563C16.9078 1.7438 16.7718 1.87505 12.4781 6.15942C8.32495 10.3032 8.04839 10.5891 7.89839 10.8985C7.65464 11.3907 7.63589 11.6391 7.64995 13.8516C7.66401 15.7219 7.6687 15.8297 7.75776 15.9751C7.80932 16.0594 7.92651 16.1766 8.01557 16.2329C8.17495 16.336 8.21714 16.336 10.1484 16.3501C12.3609 16.3641 12.6093 16.3454 13.1015 16.1016C13.4109 15.9516 13.6968 15.6751 17.8406 11.5219L22.2562 7.10161L22.4484 6.70317C22.7203 6.13599 22.7999 5.79849 22.7999 5.1563C22.8046 4.50474 22.7437 4.24224 22.4671 3.6563C22.2656 3.23442 22.214 3.1688 21.5203 2.47974C20.864 1.82349 20.7468 1.72974 20.3906 1.55161C20.1703 1.4438 19.8749 1.32661 19.7343 1.28442C19.4718 1.21411 18.6046 1.16255 18.3515 1.20005ZM19.6171 2.83599C19.9171 2.9813 20.7515 3.74536 20.9999 4.1063C21.2296 4.43911 21.3421 4.84224 21.3187 5.27818C21.2906 5.84536 21.1546 6.08443 20.4796 6.77349L19.9265 7.33599L18.2953 5.70942L16.664 4.07817L17.1562 3.58599C17.9296 2.80317 18.2109 2.66255 18.914 2.68599C19.2656 2.70005 19.3828 2.72349 19.6171 2.83599ZM17.2499 6.77349L18.8671 8.39068L15.7031 11.5547C13.964 13.2938 12.4734 14.7516 12.389 14.7891C12.2671 14.8454 11.9718 14.8594 10.6921 14.8594H9.14057V13.3172C9.14057 12.3516 9.15932 11.7235 9.19214 11.6391C9.22964 11.5266 15.539 5.1563 15.6093 5.1563C15.6234 5.1563 16.3593 5.88286 17.2499 6.77349Z" fill="#8282B6" fill-opacity="0.3"/>
</svg>
