<svg width="45" height="45" viewBox="0 0 45 45" fill="none" xmlns="http://www.w3.org/2000/svg">
<path d="M22.5 20.625C21.4631 20.625 20.625 19.785 20.625 18.75V5.625C20.625 4.59 21.4631 3.75 22.5 3.75C23.5369 3.75 24.375 4.59 24.375 5.625V18.75C24.375 19.785 23.5369 20.625 22.5 20.625ZM39.375 24.375C39.375 18.3862 36.1424 12.7857 30.943 9.76135C30.0467 9.2401 28.8993 9.54355 28.38 10.4379C27.8587 11.3342 28.1626 12.482 29.057 13.0014C33.1089 15.3583 35.625 19.7175 35.625 24.375C35.625 31.6125 29.7356 37.5 22.5 37.5C15.2644 37.5 9.375 31.6125 9.375 24.375C9.375 19.7175 11.8911 15.3583 15.943 13.0014C16.8392 12.482 17.1432 11.3323 16.62 10.4379C16.0969 9.54355 14.9495 9.23635 14.057 9.76135C8.85763 12.7876 5.625 18.3862 5.625 24.375C5.625 33.6787 13.1944 41.25 22.5 41.25C31.8056 41.25 39.375 33.6787 39.375 24.375Z" fill="#53FFEC"/>
</svg>
