<svg width="76" height="75" viewBox="0 0 76 75" fill="none" xmlns="http://www.w3.org/2000/svg">
<path fill-rule="evenodd" clip-rule="evenodd" d="M36.7071 0.263857C36.4285 0.410384 36.0031 0.820659 35.7538 1.15767L35.3138 1.78774L35.2698 7.6195C35.2258 13.8615 35.2552 14.3011 35.9151 15.0924C37.3231 16.7481 40.0951 16.162 40.6524 14.096C40.7698 13.6711 40.8138 11.693 40.7844 7.72207C40.7404 1.3042 40.7258 1.27489 39.6698 0.468995C38.9804 -0.0585021 37.4845 -0.161071 36.7071 0.263857ZM50.127 2.76946C49.8043 2.91599 49.379 3.20904 49.1883 3.41418C48.9977 3.61931 47.883 6.12492 46.7097 8.96754C44.6564 13.9348 44.5684 14.1839 44.5537 15.1803C44.5537 16.1034 44.5977 16.2792 44.979 16.7628C45.4777 17.4221 46.3724 17.8617 47.179 17.8764C47.9123 17.8764 48.939 17.3928 49.3057 16.8653C49.467 16.6455 50.5523 14.1106 51.7403 11.2241C53.5589 6.75499 53.8816 5.84652 53.8816 5.18715C53.8816 4.00028 53.3389 3.17973 52.2243 2.71085C51.5056 2.41779 50.8456 2.43245 50.127 2.76946ZM10.8208 11.8981C11.1288 11.1801 11.5834 10.7112 12.2874 10.3889C12.9621 10.0812 13.3727 10.0518 14.1941 10.2716C14.6781 10.4035 15.4847 11.1215 19.0047 14.6235C23.566 19.1805 23.7713 19.4296 23.6246 20.7337C23.4046 22.5945 21.4687 23.6642 19.7673 22.8729C19.386 22.6971 17.7287 21.1439 15.0447 18.4478C11.6128 14.9898 10.8941 14.1839 10.7621 13.7004C10.5421 12.9091 10.5568 12.5428 10.8208 11.8981ZM61.5668 10.3889C60.7602 10.7698 52.9283 18.6237 52.6203 19.371C52.2243 20.338 52.4296 21.5689 53.1043 22.3308C53.4856 22.7411 54.4536 23.1513 55.1136 23.1513C56.2282 23.1513 56.7122 22.7557 61.0095 18.4478C64.4415 14.9898 65.1601 14.1839 65.2921 13.7004C65.5121 12.8798 65.4828 12.4695 65.1748 11.7955C64.5148 10.3596 62.9455 9.74414 61.5668 10.3889ZM2.9742 24.3529C2.9742 23.3711 3.66353 22.2722 4.51418 21.8912C4.76351 21.7886 5.29151 21.7007 5.71684 21.6861C6.37683 21.6861 7.24215 21.9938 11.7301 23.8254C14.6194 25.0122 17.1567 26.0965 17.3767 26.2431C17.582 26.4042 17.9047 26.8145 18.066 27.1515C18.9313 28.9245 17.8167 30.9026 15.8954 31.0345C15.1034 31.0931 14.8247 30.9905 9.72079 28.9245C6.78749 27.7376 4.19152 26.5947 3.95686 26.3896C3.42886 25.95 2.98887 25.0122 2.9742 24.3529ZM64.2802 23.84C61.4202 25.0122 58.8975 26.0965 58.6776 26.2431C58.1642 26.6094 57.6802 27.6497 57.6802 28.3677C57.6949 29.1736 58.1349 30.0674 58.7949 30.5656C59.2789 30.9466 59.4549 30.9905 60.3789 30.9905C61.3762 30.9759 61.6255 30.9026 66.4801 28.8952C69.2668 27.7523 71.7014 26.6973 71.9067 26.5508C73.476 25.3932 73.4174 23.122 71.7747 22.0231C71.3934 21.7593 71.0707 21.6861 70.3814 21.6861C69.5748 21.7007 68.9881 21.9059 64.2802 23.84ZM0.510212 37.7308C0.407547 36.2655 1.08221 35.2691 2.38752 34.9028C3.03285 34.7123 13.6954 34.683 14.4727 34.8735C16.438 35.3131 17.23 37.7308 15.9394 39.2693L15.8921 39.325C15.7472 39.4963 15.6299 39.6348 15.4912 39.7469C14.9036 40.2219 13.932 40.2219 8.84374 40.2217L8.54745 40.2217C2.87152 40.2217 2.41686 40.2071 1.90353 39.9433C1.00887 39.5037 0.568878 38.8151 0.510212 37.7308ZM61.5082 34.8735C59.6162 35.3277 58.8535 37.7601 60.1149 39.2693L60.1621 39.325C60.3071 39.4963 60.4244 39.6348 60.563 39.7469C61.1506 40.2219 62.1222 40.2219 67.2105 40.2217L67.5068 40.2217C72.9244 40.2217 74.0106 40.2217 74.6399 39.6855C74.7978 39.5511 74.9269 39.3829 75.0883 39.1725L75.104 39.1521C75.456 38.6978 75.5 38.5074 75.5 37.511C75.5 36.5146 75.456 36.3241 75.104 35.8699C74.9323 35.6462 74.7964 35.4693 74.6297 35.3291C73.9992 34.7989 72.927 34.7941 67.8001 34.7709C64.6175 34.7563 61.7868 34.8002 61.5082 34.8735ZM4.14752 48.4858C4.35285 48.3247 6.86082 47.255 9.72079 46.0828C14.7367 44.0314 14.9567 43.9582 15.8221 44.0021C16.5407 44.0314 16.834 44.1193 17.274 44.4563C17.9194 44.9545 18.3594 45.8484 18.374 46.6542C18.374 47.3722 17.89 48.4126 17.3767 48.7789C17.1567 48.9254 14.6047 50.0244 11.7008 51.2112L11.52 51.2846L11.5199 51.2846L11.5199 51.2846C6.53493 53.3079 6.39559 53.3645 5.51151 53.3066C4.49952 53.248 4.00086 52.9696 3.4582 52.1637C2.65154 50.9914 2.95953 49.3503 4.14752 48.4858ZM59.2202 44.1926C58.2669 44.6908 57.6949 45.6139 57.6802 46.6542C57.6802 47.3869 58.1642 48.4126 58.6922 48.7789C58.9122 48.9401 61.4642 50.0244 64.3535 51.2112C69.5014 53.3066 69.6481 53.3652 70.5427 53.3066C71.5547 53.248 72.0534 52.9696 72.5961 52.1637C73.4027 50.9914 73.1094 49.365 71.9067 48.4712C71.7014 48.3247 69.1934 47.255 66.3188 46.0828C60.7309 43.8116 60.2029 43.6798 59.2202 44.1926ZM15.0447 56.5741C17.7287 53.878 19.386 52.3248 19.7673 52.149C20.75 51.6948 22.026 51.8706 22.8326 52.5739C23.2433 52.9549 23.654 53.922 23.654 54.5813C23.654 55.695 23.258 56.1785 18.946 60.4717C14.6194 64.7503 14.4141 64.9115 13.2407 64.9115C12.7421 64.9115 11.7741 64.4426 11.3781 64.0177C10.9968 63.5927 10.6008 62.6989 10.6008 62.2447C10.6008 61.1018 10.7914 60.8673 15.0447 56.5741ZM53.9403 52.149C53.2363 52.4714 52.9283 52.7937 52.6203 53.5264C52.327 54.2297 52.3416 55.0356 52.679 55.7536C52.8549 56.1345 54.4096 57.7903 57.1082 60.4717C60.5695 63.9005 61.3762 64.6184 61.8602 64.7503C62.6522 64.9701 63.0188 64.9555 63.6642 64.6917C64.3828 64.384 64.8521 63.9298 65.1748 63.2264C65.5268 62.4791 65.5268 61.7758 65.1748 61.0285C64.7935 60.2226 56.9322 52.3981 56.1842 52.0904C55.4656 51.7973 54.6589 51.812 53.9403 52.149ZM26.7486 58.1566C26.8953 57.9368 27.3059 57.6291 27.6432 57.4533C28.8312 56.8672 30.2686 57.2042 31.0752 58.2592C31.4565 58.7427 31.5005 58.9185 31.5005 59.8417C31.4859 60.838 31.3979 61.0871 29.3446 66.0544C28.1712 68.897 27.0566 71.4026 26.8659 71.6078C26.4113 72.106 25.4726 72.5309 24.8273 72.5309C23.8006 72.5309 22.686 71.7689 22.334 70.8458C21.938 69.8055 22.07 69.3073 24.3286 63.7979C25.5019 60.9113 26.6019 58.3617 26.7486 58.1566ZM46.0204 57.424C44.8764 57.9368 44.3484 58.9332 44.5244 60.2666C44.627 61.1018 48.7483 71.1242 49.1883 71.6078C49.643 72.0913 50.5816 72.5162 51.1976 72.5309C51.7843 72.5309 52.6496 72.1792 53.1043 71.7543C53.6469 71.2414 53.8816 70.67 53.8816 69.8348C53.8816 69.1754 53.5589 68.267 51.7403 63.7979C50.5523 60.9113 49.467 58.3764 49.3057 58.1566C48.939 57.6291 47.9123 57.1456 47.179 57.1456C46.871 57.1456 46.343 57.2774 46.0204 57.424ZM35.3872 60.9553C35.5925 60.1787 36.3258 59.3874 37.0738 59.1237C37.7925 58.8746 38.0858 58.8599 38.8338 59.0651C39.5964 59.2849 40.4471 60.1494 40.6524 60.926C40.7698 61.3509 40.8138 63.329 40.7844 67.2999C40.7404 72.5895 40.7258 73.0877 40.4618 73.6005C40.0071 74.509 39.3324 74.9339 38.1885 74.9925C37.0005 75.0511 36.3991 74.7727 35.7538 73.8643L35.3138 73.2342L35.2698 67.4025C35.2405 63.4316 35.2845 61.3655 35.3872 60.9553Z" fill="url(#paint0_linear_286_12561)"/>
<defs>
<linearGradient id="paint0_linear_286_12561" x1="66.7879" y1="4.85294" x2="0.0723587" y2="46.7397" gradientUnits="userSpaceOnUse">
<stop stop-color="#6B76FE"/>
<stop offset="1" stop-color="#53FFEC"/>
</linearGradient>
</defs>
</svg>
