<svg width="25" height="25" viewBox="0 0 25 25" fill="none" xmlns="http://www.w3.org/2000/svg">
<path d="M8.65144 5.05156C5.36082 6.70156 4.98113 6.90312 4.8827 7.05781C4.71863 7.30156 4.70457 7.50312 4.76082 8.54375C5.0702 13.8828 7.24051 17.7359 10.9764 19.5547C11.7405 19.925 12.228 20.1031 12.4999 20.1031C12.7671 20.1031 13.2546 19.9297 14.0233 19.5547C17.7452 17.75 19.9296 13.8828 20.2389 8.54375C20.2952 7.49844 20.2811 7.30156 20.1124 7.05312C20.0093 6.88906 19.6858 6.72031 16.3436 5.04687C13.3343 3.54219 12.6546 3.21875 12.4952 3.21875C12.3405 3.21875 11.6608 3.54219 8.65144 5.05156ZM12.7671 8.24375C12.8233 8.30469 13.0343 8.69375 13.2452 9.11094C13.4702 9.56094 13.6671 9.90312 13.7327 9.94531C13.8171 9.99687 15.2702 10.25 15.4999 10.25C15.5233 10.25 15.603 10.3062 15.6827 10.3719C15.7952 10.4656 15.828 10.5312 15.828 10.6625C15.828 10.8172 15.7718 10.8875 15.1483 11.5156C14.3514 12.3219 14.3983 12.1625 14.6046 13.3437C14.7264 14.0234 14.7358 14.1359 14.6796 14.2672C14.6093 14.4312 14.4874 14.5156 14.3046 14.5156C14.2343 14.5156 13.8358 14.3375 13.4186 14.1172C12.9077 13.85 12.603 13.7187 12.4999 13.7187C12.3968 13.7187 12.0921 13.85 11.5811 14.1172C11.1639 14.3375 10.7655 14.5156 10.6952 14.5156C10.5124 14.5156 10.3905 14.4312 10.3202 14.2672C10.2686 14.1359 10.278 14.0234 10.3952 13.3672C10.6061 12.1719 10.6483 12.3219 9.85145 11.5156C9.22801 10.8875 9.17176 10.8172 9.17176 10.6625C9.17176 10.5312 9.20457 10.4656 9.31707 10.3719C9.39676 10.3062 9.47644 10.25 9.49988 10.25C9.72957 10.25 11.1827 9.99687 11.2671 9.94531C11.3327 9.90312 11.5296 9.56094 11.7546 9.11094C12.1952 8.225 12.2608 8.14062 12.4999 8.14062C12.6171 8.14062 12.7014 8.17344 12.7671 8.24375Z" fill="#53FFEC"/>
<path d="M3.50005 16.6906C2.5438 17.6516 1.99537 18.2328 2.02349 18.2609C2.05162 18.2844 2.6188 18.5094 3.28912 18.7578C3.95943 19.0109 4.52193 19.2359 4.53599 19.2594C4.55474 19.2875 4.77505 19.8641 5.02818 20.5437C5.28131 21.2234 5.50162 21.7812 5.51568 21.7812C5.52974 21.7812 6.11568 21.2047 6.81881 20.5016L8.10318 19.2172L7.60162 18.7297C6.72506 17.8812 5.9938 16.9156 5.37974 15.8047C5.22505 15.5187 5.07974 15.2609 5.06099 15.2281C5.03287 15.1859 4.55474 15.6359 3.50005 16.6906Z" fill="#53FFEC"/>
<path d="M19.8173 15.4437C19.2126 16.6437 18.3688 17.7922 17.3985 18.7297L16.897 19.2172L18.1813 20.5016C18.8845 21.2047 19.4704 21.7812 19.4845 21.7812C19.4985 21.7812 19.7188 21.2234 19.972 20.5437C20.2251 19.8641 20.4454 19.2875 20.4642 19.2594C20.4782 19.2359 21.0407 19.0109 21.711 18.7625C22.3813 18.5094 22.9485 18.2844 22.9767 18.2609C23.0048 18.2328 22.4704 17.6656 21.4907 16.6859L19.9626 15.1578L19.8173 15.4437Z" fill="#53FFEC"/>
</svg>
