<svg width="25" height="25" viewBox="0 0 25 25" fill="none" xmlns="http://www.w3.org/2000/svg">
<g clip-path="url(#clip0_251_6723)">
<path d="M11.8345 7.01563C10.1892 7.20781 8.64702 8.22031 7.76577 9.68281C6.04546 12.5516 7.26421 16.25 10.372 17.5859C12.8611 18.6547 15.7814 17.6938 17.2158 15.3359C18.2845 13.5875 18.2892 11.4406 17.2345 9.68281C16.1001 7.79844 14.0048 6.7625 11.8345 7.01563ZM12.8189 9.28438C12.9126 9.33594 13.0673 9.58438 13.4142 10.2453L13.883 11.1406H14.783H15.6783L15.8283 11.2672C15.9642 11.3797 15.9783 11.4125 15.9548 11.6C15.9314 11.7969 15.8892 11.8531 15.247 12.4953L14.5673 13.1797L14.797 14.0703C14.9236 14.5578 15.0361 15.0031 15.0548 15.0547C15.0689 15.1063 15.0642 15.2094 15.0361 15.275C14.9517 15.5 14.5908 15.6594 14.4595 15.5328C14.422 15.4953 13.9673 15.2609 13.4423 15.0172L12.4908 14.5672L11.572 15.0266C10.5736 15.5234 10.4751 15.5469 10.1939 15.35C9.98765 15.2047 9.99234 15.05 10.222 14.0703L10.433 13.1797L9.72984 12.4766C9.15796 11.9 9.02202 11.7406 9.00327 11.6047C8.97984 11.4594 8.9939 11.4219 9.1439 11.2906L9.31734 11.1406H10.2642H11.2158L11.6705 10.2734C11.9236 9.8 12.1861 9.36406 12.2517 9.3125C12.3923 9.20469 12.6361 9.19063 12.8189 9.28438Z" fill="#53FFEC"/>
<path d="M1.1375 8.15937C1.025 8.2625 0.96875 8.35625 0.96875 8.44062C0.96875 8.63281 1.47969 11.6656 1.53125 11.7875C1.62969 12.0172 1.75625 12.0312 3.79063 12.0312C5.58125 12.0312 5.68906 12.0266 5.82969 11.9375C6.03594 11.8109 6.10625 11.6844 6.16719 11.3047C6.29375 10.55 6.58438 9.80937 7.02969 9.10156C7.3625 8.58125 7.37188 8.4125 7.09531 8.10312L7.00156 8H4.15156H1.30156L1.1375 8.15937Z" fill="#53FFEC"/>
<path d="M17.872 8.08906C17.8204 8.14531 17.7782 8.29063 17.7642 8.46406C17.736 8.74063 17.7407 8.75 17.9845 9.12969C18.4204 9.80469 18.7204 10.5875 18.8329 11.3281C18.9407 12.0641 18.8282 12.0313 21.1673 12.0313C23.1501 12.0313 23.2485 12.0219 23.4267 11.8156C23.4829 11.7547 23.586 11.2438 23.7689 10.1469C23.9142 9.27969 24.0314 8.51094 24.0314 8.44063C24.0314 8.36563 23.9751 8.2625 23.872 8.15938L23.7126 8H20.8345C18.0501 8 17.9517 8.00469 17.872 8.08906Z" fill="#53FFEC"/>
<path d="M2.3282 13.0203C2.26257 13.0484 2.16414 13.1141 2.10789 13.1656C1.94851 13.3156 1.96726 13.5781 2.2532 15.2844C2.49226 16.7094 2.51101 16.7891 2.6282 16.8922L2.75476 17H4.90164C7.29226 17 7.1282 17.0234 7.24539 16.6766C7.33445 16.4094 7.30632 16.3156 7.03914 15.9031C6.58914 15.2141 6.27976 14.4266 6.16726 13.6719C6.05945 12.9406 6.13914 12.9688 4.07664 12.9734C3.11101 12.9734 2.39851 12.9922 2.3282 13.0203Z" fill="#53FFEC"/>
<path d="M19.1702 13.0391C18.9686 13.1234 18.8983 13.2594 18.8327 13.6719C18.7155 14.4266 18.4249 15.1813 17.9702 15.8984C17.6889 16.3391 17.6514 16.4844 17.7733 16.7188C17.9233 17.0094 17.853 17 20.1077 17C21.9452 17 22.1796 16.9906 22.2967 16.9203C22.3717 16.8781 22.4514 16.7984 22.4796 16.7469C22.5499 16.6016 22.9999 13.8125 22.9999 13.5172C22.9999 13.2406 22.9108 13.1141 22.6577 13.0203C22.4467 12.9406 19.3624 12.9547 19.1702 13.0391Z" fill="#53FFEC"/>
</g>
<defs>
<clipPath id="clip0_251_6723">
<rect width="24" height="24" fill="white" transform="translate(0.5 0.5)"/>
</clipPath>
</defs>
</svg>
