<svg width="25" height="25" viewBox="0 0 25 25" fill="none" xmlns="http://www.w3.org/2000/svg">
<g clip-path="url(#clip0_251_6737)">
<path d="M11.8155 1.0625C11.4499 1.17969 11.0139 1.46562 10.7983 1.72344C10.6436 1.91562 9.53737 4.08125 8.58112 6.07344C8.11706 7.02969 8.02331 7.17031 7.75612 7.26875C7.64362 7.31094 6.37331 7.5125 4.92956 7.71875C3.48581 7.925 2.16862 8.13594 2.00456 8.19219C1.40456 8.37969 0.987371 8.75469 0.692058 9.35937C0.537371 9.68281 0.523308 9.75312 0.509246 10.2031C0.490496 10.7609 0.579558 11.1219 0.832683 11.525C0.912371 11.6469 1.87331 12.6172 2.9655 13.6812C4.10925 14.7922 4.99987 15.6922 5.05143 15.7906C5.09831 15.8891 5.1405 16.0203 5.1405 16.0859C5.1405 16.1516 4.92956 17.4453 4.66706 18.9594C4.26862 21.2703 4.19831 21.7578 4.22175 22.0062C4.33893 23.1734 5.28112 24.0312 6.44831 24.0312C6.64987 24.0312 6.92643 23.9984 7.06706 23.9562C7.20768 23.9141 8.4405 23.2953 9.80925 22.5734C11.9467 21.4484 12.3264 21.2656 12.4999 21.2656C12.6733 21.2656 13.053 21.4484 15.1905 22.5734C16.5592 23.2906 17.7921 23.9141 17.9327 23.9562C18.0733 23.9984 18.3499 24.0312 18.5514 24.0312C19.5358 24.0312 20.3702 23.4266 20.6842 22.4844C20.8389 22.0156 20.8061 21.6547 20.3139 18.8187C20.0608 17.3844 19.8592 16.1516 19.8592 16.0859C19.8592 16.0156 19.8921 15.8891 19.9296 15.8094C19.9717 15.725 20.9092 14.7734 22.0155 13.7C23.1217 12.6219 24.0874 11.6469 24.1671 11.525C24.4202 11.1219 24.5092 10.7609 24.4905 10.2031C24.4764 9.75312 24.4624 9.68281 24.3077 9.35937C24.2139 9.16719 24.0592 8.91875 23.9655 8.81562C23.7358 8.54844 23.3233 8.28125 22.9811 8.17812C22.8217 8.13594 21.5139 7.925 20.0702 7.71875C18.6264 7.5125 17.3561 7.30625 17.2436 7.26875C16.9811 7.17031 16.878 7.02969 16.4889 6.21406C15.6124 4.38125 14.3608 1.92031 14.2014 1.73281C13.9811 1.45625 13.5499 1.17969 13.1655 1.0625C12.7717 0.940624 12.2046 0.940624 11.8155 1.0625Z" fill="#53FFEC"/>
</g>
<defs>
<clipPath id="clip0_251_6737">
<rect width="24" height="24" fill="white" transform="translate(0.5 0.5)"/>
</clipPath>
</defs>
</svg>
