<svg width="24" height="24" viewBox="0 0 24 24" fill="none" xmlns="http://www.w3.org/2000/svg">
<path d="M20.1759 7.73877L18.8397 10.053C18.7938 10.1325 18.6997 10.1706 18.6115 10.1453L15.9586 9.38642M8.04172 14.6136L5.38881 13.8547C5.30058 13.8294 5.20649 13.8675 5.1606 13.947L3.82446 16.2612M5.27089 10.0683C5.92791 7.78766 7.72886 5.89755 10.1884 5.23852C13.8337 4.26178 17.5781 6.35018 18.6853 9.92384C18.6931 9.94915 18.7008 9.97454 18.7084 10C18.7167 10.0278 18.7248 10.0557 18.7327 10.0836M18.7294 13.9317C18.0724 16.2123 16.2715 18.1024 13.8119 18.7615C10.1178 19.7513 6.32188 17.5933 5.27197 13.9318" stroke="white" stroke-width="1.5" stroke-linecap="round"/>
</svg>
