<svg width="24" height="24" viewBox="0 0 24 24" fill="none" xmlns="http://www.w3.org/2000/svg">
<path d="M5.83995 15.98C5.25995 15.98 4.68994 16.2 4.23994 16.65C3.44994 17.44 2.65996 20.31 2.50996 20.88C2.46996 21.05 2.50997 21.23 2.63997 21.36C2.73997 21.46 2.85995 21.51 2.99995 21.51C3.03995 21.51 3.07995 21.51 3.11995 21.5C3.65995 21.37 6.41995 20.66 7.20995 19.87C8.13995 18.94 8.19994 17.5 7.35994 16.66C6.93994 16.24 6.40996 16.01 5.84996 15.99L5.83995 15.98ZM6.49995 19.15C6.13995 19.51 4.82996 19.97 3.71996 20.29C4.08996 19.09 4.59997 17.71 4.94997 17.35C5.19997 17.1 5.48996 16.97 5.81996 16.98C6.11996 16.98 6.40995 17.12 6.64995 17.35C7.10995 17.81 7.03995 18.61 6.49995 19.15ZM15.25 6.02998C13.73 6.02998 12.5 7.25998 12.5 8.76998C12.5 10.28 13.73 11.51 15.25 11.51C16.77 11.51 18 10.28 18 8.76998C18 7.25998 16.77 6.02998 15.25 6.02998ZM15.25 10.52C14.29 10.52 13.5 9.73998 13.5 8.77998C13.5 7.81998 14.29 7.03998 15.25 7.03998C16.21 7.03998 17 7.81998 17 8.77998C17 9.73998 16.21 10.52 15.25 10.52ZM21.1799 3.12998C21.1299 2.94998 20.99 2.80998 20.81 2.76998C20.57 2.70998 14.93 1.38998 11.26 5.06998C10.73 5.59998 10.29 6.10998 9.88997 6.60998L7.69997 7.07999C5.80997 7.38999 4.19995 8.67998 3.49995 10.45L2.53996 12.84C2.46996 13.01 2.49995 13.21 2.61995 13.35C2.71995 13.46 2.85995 13.53 2.99995 13.53C3.03995 13.53 3.06994 13.53 3.10994 13.52L6.89995 12.68C6.80995 12.98 6.70995 13.28 6.61995 13.61C6.50995 13.96 6.61995 14.36 6.86995 14.61L9.38997 17.13C9.57997 17.32 9.83996 17.42 10.1 17.42C10.19 17.42 10.2699 17.41 10.3599 17.39C10.7199 17.3 11.0399 17.2 11.3699 17.11L10.5199 20.91C10.4799 21.09 10.5399 21.28 10.6799 21.4C10.7699 21.48 10.89 21.52 11 21.52C11.06 21.52 11.13 21.51 11.19 21.48L13.5799 20.52C15.3599 19.82 16.6599 18.21 16.9599 16.35L17.41 14.24C17.93 13.83 18.45 13.37 19.01 12.82C22.68 9.13998 21.26 3.38999 21.19 3.14999L21.1799 3.12998ZM3.80995 12.33L4.41997 10.82C4.99997 9.36998 6.30996 8.31998 7.87996 8.05998L8.99995 7.81998C8.62995 8.38998 8.31994 8.95999 8.04994 9.54999C8.03994 9.56999 8.01994 9.59999 8.01994 9.61999C7.73994 10.24 7.48995 10.88 7.24995 11.56L3.80995 12.32V12.33ZM10.0799 16.41L7.55995 13.88C7.92995 12.66 8.25995 11.62 8.64995 10.65L13.39 15.38C12.42 15.76 11.3599 16.07 10.0799 16.41ZM15.9599 16.15C15.7099 17.69 14.65 19 13.2 19.58L11.69 20.19L12.45 16.77C13.16 16.55 13.82 16.3 14.44 16.03C14.46 16.03 14.4699 16.02 14.4899 16.01C15.0699 15.75 15.64 15.46 16.19 15.11L15.9599 16.16V16.15ZM14.3699 14.95L9.07994 9.66998C9.72994 8.35998 10.5799 7.14998 11.9599 5.76998C13.8199 3.90998 16.34 3.49998 18.17 3.49998C19.11 3.49998 19.8699 3.60998 20.2699 3.67998C20.4999 4.86998 21.11 9.26998 18.28 12.1C16.91 13.47 15.7099 14.32 14.3699 14.96V14.95Z" fill="#8282B6"/>
</svg>
