<svg width="25" height="25" viewBox="0 0 25 25" fill="none" xmlns="http://www.w3.org/2000/svg">
<path d="M20.89 8.16727L19.5538 10.4815C19.5079 10.561 19.4139 10.5991 19.3256 10.5738L16.6727 9.81492M8.75583 15.0421L6.10292 14.2832C6.01469 14.2579 5.9206 14.296 5.87471 14.3755L4.53857 16.6897M5.985 10.4967C6.64203 8.21616 8.44297 6.32605 10.9025 5.66701C14.5478 4.69027 18.2922 6.77868 19.3994 10.3523C19.4072 10.3776 19.415 10.403 19.4225 10.4285C19.4308 10.4563 19.4389 10.4841 19.4469 10.5121M19.4435 14.3602C18.7865 16.6408 16.9856 18.5309 14.526 19.19C10.8319 20.1798 7.03599 18.0218 5.98608 14.3603" stroke="white" stroke-width="1.5" stroke-linecap="round"/>
</svg>
