<svg width="75" height="75" viewBox="0 0 75 75" fill="none" xmlns="http://www.w3.org/2000/svg">
<g clip-path="url(#clip0_286_12766)">
<path d="M66.2841 11.8799C65.0829 11.9971 64.0428 12.3633 63.0321 13.0371C62.4901 13.3887 55.8544 19.9219 44.8973 30.8936L27.6122 48.1934L19.995 40.6055C11.7626 32.4023 11.704 32.3438 9.6532 31.8604C6.41589 31.0986 3.0321 32.4023 1.25964 35.0684C0.981322 35.4932 0.571166 36.3721 0.351439 37.002C0.0145249 38.042 -0.0294204 38.3203 0.0291733 39.7705C0.102416 41.6162 0.395384 42.5244 1.31824 43.9014C1.65515 44.3994 6.24011 49.0869 12.4071 55.2393C23.7889 66.5918 23.5546 66.3721 25.6493 66.8701C26.8505 67.1484 28.4178 67.1484 29.5165 66.8701C31.6551 66.3135 30.3514 67.5293 52.6464 45.2783C66.1376 31.8018 73.4764 24.3896 73.8427 23.8184C74.663 22.5586 74.9999 21.3721 74.9999 19.6436C74.9999 17.3145 74.326 15.6299 72.7733 14.0918C71.0594 12.3633 68.8475 11.6162 66.2841 11.8799Z" fill="url(#paint0_linear_286_12766)"/>
</g>
<defs>
<linearGradient id="paint0_linear_286_12766" x1="66.2886" y1="63.5038" x2="12.4107" y2="17.5902" gradientUnits="userSpaceOnUse">
<stop stop-color="#6B76FE"/>
<stop offset="1" stop-color="#53FFEC"/>
</linearGradient>
<clipPath id="clip0_286_12766">
<rect width="75" height="75" fill="white"/>
</clipPath>
</defs>
</svg>
