<svg width="45" height="45" viewBox="0 0 45 45" fill="none" xmlns="http://www.w3.org/2000/svg">
<path d="M38.2375 16.956C36.3742 18.1812 35.2437 20.2605 35.2437 22.5C35.2437 24.7446 36.3794 26.8283 38.2503 28.0524L35.4703 32.8181C34.5456 32.3596 33.5233 32.1125 32.4937 32.1125C31.3216 32.1125 30.1753 32.4227 29.1456 33.0141L29.1416 33.0165C27.1988 34.1446 25.9628 36.1507 25.8411 38.375H19.1401C19.0186 36.152 17.7849 34.1473 15.8625 33.0188L15.8584 33.0165C13.9105 31.8854 11.5327 31.8294 9.53078 32.818L6.76691 28.0516C8.62219 26.8267 9.75628 24.7418 9.75628 22.4812C9.75628 20.2333 8.61791 18.1682 6.7498 16.9475L9.52971 12.1819C10.4544 12.6404 11.4767 12.8875 12.5063 12.8875C13.6784 12.8875 14.8247 12.5773 15.8544 11.9858L15.8544 11.9859L15.8584 11.9835C17.8012 10.8554 19.0372 8.84932 19.1589 6.625H25.8411C25.9628 8.84932 27.1988 10.8554 29.1416 11.9835L29.1456 11.9858C30.1753 12.5773 31.3216 12.8875 32.4937 12.8875C33.523 12.8875 34.545 12.6406 35.4694 12.1823L38.2375 16.956ZM15.875 22.5C15.875 26.1648 18.8352 29.125 22.5 29.125C26.1648 29.125 29.125 26.1648 29.125 22.5C29.125 18.8352 26.1648 15.875 22.5 15.875C18.8352 15.875 15.875 18.8352 15.875 22.5Z" stroke="#53FFEC" stroke-width="2"/>
</svg>
