<svg width="24" height="25" viewBox="0 0 24 25" fill="none" xmlns="http://www.w3.org/2000/svg">
<path d="M12.0181 2.53711C9.77807 3.64811 8 4.53711 3 5.53711C3 6.67411 3 10.239 3 11.426C3 18.093 8.667 21.4261 12 22.5371C15.333 21.4261 21 18.093 21 11.426C21 10.201 21 6.73111 21 5.53711C16 4.53711 14.2221 3.64811 12.0181 2.53711ZM15.542 11.0671L11.542 15.0671C11.396 15.2131 11.204 15.2871 11.012 15.2871C10.82 15.2871 10.6279 15.2141 10.4819 15.0671L8.48193 13.0671C8.18893 12.7741 8.18893 12.2991 8.48193 12.0061C8.77493 11.7131 9.24997 11.7131 9.54297 12.0061L11.0129 13.4761L14.4829 10.0061C14.7759 9.7131 15.2509 9.7131 15.5439 10.0061C15.8369 10.2991 15.835 10.7741 15.542 11.0671Z" fill="url(#paint0_linear_156_1734)"/>
<defs>
<linearGradient id="paint0_linear_156_1734" x1="12" y1="2.53711" x2="11.987" y2="16.5371" gradientUnits="userSpaceOnUse">
<stop stop-color="#111026"/>
<stop offset="1" stop-color="#0B0A17"/>
</linearGradient>
</defs>
</svg>
