<svg width="24" height="24" viewBox="0 0 24 24" fill="none" xmlns="http://www.w3.org/2000/svg">
<g clip-path="url(#clip0_264_9285)">
<path d="M10.5703 0.0562553C8.40938 0.300007 6.18281 1.24219 4.43438 2.64844C3.87188 3.09844 2.82656 4.17657 2.40469 4.73907C1.42031 6.05157 0.7125 7.54219 0.328125 9.10313C0.0609375 10.1953 0.0234375 10.5469 0.0234375 12C0.0234375 13.4531 0.0609375 13.8047 0.328125 14.8969C0.642188 16.1672 1.25156 17.5688 1.95 18.6094C3.94688 21.5953 7.03125 23.5031 10.5469 23.9344C11.4141 24.0375 13.1344 24.0047 13.95 23.8641C15.0375 23.6766 15.975 23.3953 16.9453 22.9641C17.5359 22.6969 18.3234 22.2609 18.4313 22.1391C18.6844 21.8484 18.75 21.3609 18.5766 21.0234C18.3984 20.6813 18.1406 20.5313 17.7234 20.5313C17.4844 20.5313 17.3953 20.5594 17.1 20.7188C15.8344 21.4172 14.5969 21.8391 13.3266 22.0078C12.6938 22.0922 11.4094 22.1016 10.8516 22.0313C9.57656 21.8672 8.53594 21.5531 7.42969 20.9859C4.56563 19.5281 2.63906 16.9078 2.02969 13.6406C1.9125 13.0031 1.9125 10.9969 2.02969 10.3594C2.64375 7.08282 4.56563 4.47657 7.44375 3.00469C8.45625 2.48907 9.51562 2.15626 10.6594 1.99219C11.3344 1.89376 12.6516 1.89376 13.3594 1.99219C15.8203 2.33907 18.1313 3.60938 19.6969 5.48438C20.8688 6.88594 21.6281 8.50782 21.9609 10.3359C22.0641 10.8938 22.1063 12.4969 22.0359 13.1063C21.9094 14.1563 21.5859 15.3047 21.1547 16.2234C20.9344 16.6922 20.8125 16.9078 20.4188 17.55C20.2688 17.7984 20.25 17.8688 20.25 18.1359C20.25 18.7172 20.6109 19.0781 21.1922 19.0781C21.6422 19.0781 21.8344 18.9375 22.2 18.3469C23.0484 16.9781 23.5688 15.5953 23.8641 13.9359C24.0047 13.1484 24.0422 11.4281 23.9344 10.5469C23.6672 8.36251 22.7906 6.25313 21.4359 4.53282C21.0938 4.09688 19.9031 2.90626 19.4672 2.56407C17.7609 1.21876 15.6469 0.337505 13.5 0.0703182C12.8578 -0.0093689 11.2078 -0.0187435 10.5703 0.0562553Z" fill="#0B0A17"/>
<path d="M7.1625 7.49532C6.18281 7.80938 5.53125 8.69063 5.53125 9.69376C5.53125 10.1297 5.6625 10.3875 5.97188 10.5703C6.26719 10.7438 6.69844 10.7391 6.98906 10.5563C7.23281 10.4016 7.3875 10.125 7.42969 9.77813C7.47188 9.47345 7.6125 9.32813 7.875 9.32813C8.1375 9.32813 8.27813 9.47345 8.32031 9.77813C8.3625 10.125 8.51719 10.4016 8.76094 10.5563C9.05156 10.7391 9.48281 10.7438 9.77813 10.5703C10.0875 10.3875 10.2188 10.1297 10.2188 9.69376C10.2188 8.68595 9.55781 7.80001 8.58281 7.50001C8.19375 7.37813 7.5375 7.37813 7.1625 7.49532Z" fill="#0B0A17"/>
<path d="M15.4594 7.49532C14.4797 7.80938 13.8281 8.69063 13.8281 9.69376C13.8281 10.1297 13.9594 10.3875 14.2688 10.5703C14.5641 10.7438 14.9953 10.7391 15.2859 10.5563C15.5297 10.4016 15.6844 10.125 15.7266 9.77813C15.7688 9.47345 15.9094 9.32813 16.1719 9.32813C16.4344 9.32813 16.575 9.47345 16.6172 9.77813C16.6594 10.125 16.8141 10.4016 17.0578 10.5563C17.3484 10.7391 17.7797 10.7438 18.075 10.5703C18.3844 10.3875 18.5156 10.1297 18.5156 9.69376C18.5156 8.68595 17.8547 7.80001 16.8797 7.50001C16.4906 7.37813 15.8344 7.37813 15.4594 7.49532Z" fill="#0B0A17"/>
<path d="M5.8739 13.5281C5.43796 13.7859 5.29265 14.3813 5.55046 14.8453C5.76609 15.2297 6.19734 15.7969 6.60046 16.2234C7.69265 17.3813 8.99577 18.1172 10.5473 18.4547C11.1567 18.5859 12.8395 18.5766 13.4536 18.4359C15.4505 17.9859 17.2458 16.6922 18.3005 14.9344C18.4458 14.6906 18.4692 14.6156 18.4692 14.3484C18.4692 13.7719 18.1083 13.4063 17.5317 13.4063C17.1051 13.4063 16.927 13.5234 16.5942 14.0156C15.6567 15.3984 14.377 16.2938 12.9286 16.5703C12.4223 16.6688 11.4848 16.6688 10.9786 16.5703C9.54421 16.2938 8.23171 15.3844 7.31296 14.0156C6.98015 13.5188 6.80202 13.4063 6.37077 13.4063C6.13171 13.4063 6.02859 13.4344 5.8739 13.5281Z" fill="#0B0A17"/>
</g>
<defs>
<clipPath id="clip0_264_9285">
<rect width="24" height="24" fill="white"/>
</clipPath>
</defs>
</svg>
