<svg width="24" height="24" viewBox="0 0 24 24" fill="none" xmlns="http://www.w3.org/2000/svg">
<path d="M11.5361 3.77347C11.7371 3.40884 12.2629 3.40884 12.4639 3.77347L14.8791 8.15512C15.0319 8.43226 15.3014 8.62648 15.6134 8.68429L20.567 9.60209C20.98 9.67861 21.1432 10.181 20.8536 10.4841L17.3975 14.1009C17.1771 14.3315 17.0731 14.649 17.1145 14.9647L17.7622 19.9035C17.8165 20.3169 17.3903 20.6265 17.0118 20.4487L12.4513 18.3069C12.1655 18.1727 11.8345 18.1727 11.5487 18.3069L6.98822 20.4487C6.60966 20.6265 6.18353 20.3169 6.23776 19.9035L6.88548 14.9647C6.92689 14.649 6.8229 14.3315 6.60252 14.1009L3.14643 10.4841C2.85677 10.181 3.01999 9.67861 3.43298 9.60209L8.38659 8.68429C8.69859 8.62649 8.9681 8.43226 9.12086 8.15512L11.5361 3.77347Z" stroke="#53FFEC" stroke-width="1.5"/>
</svg>
