<svg width="24" height="24" viewBox="0 0 24 24" fill="none" xmlns="http://www.w3.org/2000/svg">
<path d="M12.0091 10.5C14.2151 10.5 16.0091 8.706 16.0091 6.5C16.0091 4.294 14.2151 2.5 12.0091 2.5C9.80309 2.5 8.00909 4.294 8.00909 6.5C8.00909 8.706 9.80309 10.5 12.0091 10.5ZM12.0091 3.5C13.6631 3.5 15.0091 4.846 15.0091 6.5C15.0091 8.154 13.6631 9.5 12.0091 9.5C10.3551 9.5 9.00909 8.154 9.00909 6.5C9.00909 4.846 10.3541 3.5 12.0091 3.5ZM14.0001 12.5H10.0001C5.94006 12.5 4.50006 15.473 4.50006 18.019C4.50006 20.296 5.71111 21.5 8.00311 21.5H15.997C18.289 21.5 19.5001 20.296 19.5001 18.019C19.5001 15.473 18.0601 12.5 14.0001 12.5ZM15.997 20.5H8.00311C6.27211 20.5 5.50006 19.735 5.50006 18.019C5.50006 16.959 5.82406 13.5 10.0001 13.5H14.0001C18.2831 13.5 18.5001 17.264 18.5001 18.019C18.5001 19.735 17.729 20.5 15.997 20.5Z" fill="#53FFEC"/>
</svg>
