<svg width="45" height="45" viewBox="0 0 45 45" fill="none" xmlns="http://www.w3.org/2000/svg">
<path d="M32.6756 19.2599L32.6754 19.2599C30.3309 19.993 28.1204 19.0648 26.9269 17.3761C27.7466 15.8285 28.2081 14.0627 28.2081 12.1875C28.2081 11.5934 28.1628 11.0095 28.0716 10.4352C28.9031 9.80327 29.941 9.4375 31.0519 9.4375C34.3674 9.4375 36.9475 12.6483 35.8476 16.1068C35.3766 17.5861 34.159 18.7964 32.6756 19.2599ZM34.75 33.7875C34.75 30.2918 33.6649 26.7205 31.2783 24.0251H33.9562C36.7226 24.0251 38.4851 25.0228 39.5761 26.356C40.6942 27.7224 41.1875 29.5424 41.1875 31.2751C41.1875 32.8006 40.7672 33.834 40.1074 34.4886C39.4464 35.1445 38.4016 35.5625 36.8626 35.5625H34.6457C34.7243 34.9804 34.75 34.3785 34.75 33.7875ZM10.3938 12.1875C10.3938 8.59603 13.3023 5.6875 16.8938 5.6875C20.4681 5.6875 23.3938 8.59766 23.3938 12.1875C23.3938 15.7773 20.4681 18.6875 16.8938 18.6875C13.3023 18.6875 10.3938 15.779 10.3938 12.1875ZM13.125 24.4375H20.625C24.16 24.4375 26.4426 25.7164 27.8617 27.4524C29.3079 29.2217 29.9375 31.5668 29.9375 33.7875C29.9375 35.7557 29.4174 37.0934 28.5616 37.9438C27.7047 38.7952 26.3559 39.3125 24.375 39.3125H9.375C7.39411 39.3125 6.0453 38.7952 5.18843 37.9438C4.33264 37.0934 3.8125 35.7557 3.8125 33.7875C3.8125 31.5668 4.44209 29.2217 5.88831 27.4524C7.30739 25.7164 9.58996 24.4375 13.125 24.4375Z" stroke="#53FFEC" stroke-width="2"/>
</svg>
