<svg width="45" height="45" viewBox="0 0 45 45" fill="none" xmlns="http://www.w3.org/2000/svg">
<path d="M34.6875 12.2269V11.25C34.6875 6.95625 32.4188 4.6875 28.125 4.6875H9.375C6.78938 4.6875 4.6875 6.79125 4.6875 9.375V33.75C4.6875 38.0438 6.95625 40.3125 11.25 40.3125H33.75C38.0438 40.3125 40.3125 38.0438 40.3125 33.75V18.75C40.3125 14.7806 38.3737 12.5419 34.6875 12.2269ZM38.4375 30H30.9375C28.8694 30 27.1875 28.3181 27.1875 26.25C27.1875 24.1819 28.8694 22.5 30.9375 22.5H38.4375V30ZM9.375 6.5625H28.125C31.3669 6.5625 32.8125 8.00813 32.8125 11.25V12.1875H9.375C7.82437 12.1875 6.5625 10.9256 6.5625 9.375C6.5625 7.82437 7.82437 6.5625 9.375 6.5625ZM33.75 38.4375H11.25C8.00813 38.4375 6.5625 36.9919 6.5625 33.75V13.1232C7.34625 13.7119 8.32125 14.0625 9.375 14.0625H33.75C36.9919 14.0625 38.4375 15.5081 38.4375 18.75V20.625H30.9375C27.8363 20.625 25.3125 23.1488 25.3125 26.25C25.3125 29.3512 27.8363 31.875 30.9375 31.875H38.4375V33.75C38.4375 36.9919 36.9919 38.4375 33.75 38.4375ZM31.8544 24.8438H31.8826C32.6569 24.8438 33.2812 25.4719 33.2812 26.25C33.2812 27.0281 32.6551 27.6562 31.8826 27.6562C31.1119 27.6562 30.4688 27.0281 30.4688 26.25C30.4688 25.4719 31.0819 24.8438 31.8544 24.8438Z" fill="#53FFEC"/>
</svg>
