<svg width="75" height="75" viewBox="0 0 75 75" fill="none" xmlns="http://www.w3.org/2000/svg">
<g clip-path="url(#clip0_286_12967)">
<path d="M33.1055 0.307724C31.582 0.703232 29.8389 1.56749 28.6816 2.50499C27.583 3.39854 2.72461 29.7071 2.03613 30.7032C0.688477 32.6661 0 34.9659 0 37.5001C0 40.1661 0.761719 42.5831 2.22656 44.5167C3.10547 45.6739 27.2314 71.2501 28.3887 72.2462C29.5898 73.2716 31.6113 74.3263 33.1641 74.7071C34.7607 75.1173 37.3242 75.1026 38.9062 74.7071C40.5029 74.297 42.2021 73.4474 43.5352 72.3927C44.7363 71.4259 45.3369 70.5909 45.4834 69.6534C45.791 67.7638 44.0186 65.9767 42.1436 66.2696C41.3525 66.4015 40.7666 66.7237 39.9463 67.4854C39.5654 67.837 38.877 68.3058 38.4082 68.5255C37.6758 68.8771 37.3975 68.921 36.0352 68.921C34.585 68.921 34.4385 68.8917 33.501 68.4376C32.5488 67.9688 31.9336 67.339 19.7607 54.4483C5.15625 38.9649 6.0791 40.1075 6.0791 37.5001C6.0791 34.8927 5.15625 36.0353 19.7607 20.5519C31.9336 7.66123 32.5488 7.03136 33.501 6.56261C34.3506 6.15245 34.6729 6.06456 35.7715 6.03526C37.207 5.97667 38.0566 6.18175 39.1406 6.87022C39.5215 7.11925 45.0146 12.8175 52.4268 20.669C65.9473 35.0099 65.7129 34.7315 66.0645 36.6065C66.167 37.1339 66.167 37.6905 66.0645 38.2911C65.7568 40.1661 65.6396 40.3126 57.6416 48.7794C53.5693 53.086 50.0977 56.88 49.9219 57.2022C49.2188 58.5353 49.6729 60.2784 50.9473 61.0987C51.5771 61.5089 51.7236 61.5382 52.6758 61.4942C53.5107 61.4503 53.833 61.3771 54.2285 61.0841C54.873 60.6153 69.0234 45.63 69.8291 44.546C71.3818 42.4952 72.0996 40.2687 72.0996 37.5001C72.0996 34.7315 71.3818 32.505 69.8291 30.4542C68.9502 29.297 45.1904 4.08702 43.8428 2.88585C42.5391 1.72862 40.6494 0.732529 38.9062 0.293076C37.3242 -0.102432 34.6436 -0.102432 33.1055 0.307724Z" fill="#383661"/>
<path d="M35.0977 22.7784C34.292 23.0567 33.8232 23.4375 33.4424 24.1114L33.1055 24.6827L33.1494 31.5088L33.1787 38.3203L33.5303 38.8477C34.1162 39.6973 34.7754 40.0489 35.874 40.1075C37.1484 40.1807 37.9688 39.7705 38.5986 38.7452L39.0381 38.042V31.4356C39.0381 24.8731 39.0381 24.8291 38.7158 24.2139C38.3203 23.4815 37.6465 22.9395 36.8408 22.7198C36.0938 22.5147 35.8008 22.5293 35.0977 22.7784Z" fill="#383661"/>
<path d="M34.7901 46.6699C34.1163 47.0068 33.4278 47.7539 33.2374 48.3105C32.9737 49.1162 33.1348 50.4199 33.5889 51.1084C34.2334 52.0898 35.5079 52.5586 36.7237 52.2949C38.1299 51.9726 38.9795 50.8887 38.9795 49.3945C38.9795 48.8965 38.8916 48.3398 38.7745 48.1055C38.4815 47.5342 37.6758 46.7871 37.1631 46.5967C36.5625 46.3623 35.3028 46.4062 34.7901 46.6699Z" fill="#383661"/>
</g>
<defs>
<clipPath id="clip0_286_12967">
<rect width="75" height="75" fill="white"/>
</clipPath>
</defs>
</svg>
