<svg width="173" height="173" viewBox="0 0 173 173" fill="none" xmlns="http://www.w3.org/2000/svg">
<mask id="mask0_841_7366" style="mask-type:alpha" maskUnits="userSpaceOnUse" x="86" y="0" width="26" height="60">
<path d="M86.5 5C86.5 2.23857 88.7404 -0.0150629 91.4972 0.144469C97.2173 0.475476 102.89 1.374 108.433 2.82678C111.104 3.52696 112.538 6.36263 111.685 8.9889L96.2553 56.4763C94.4958 61.8915 86.5 60.6251 86.5 54.9313L86.5 5Z" fill="white"/>
</mask>
<g mask="url(#mask0_841_7366)">
<g filter="url(#filter0_d_841_7366)">
<path d="M86.5 22.5581C91.8639 22.5581 97.2064 23.233 102.402 24.567L101.925 26.4249C96.8852 25.131 91.703 24.4764 86.5 24.4764L86.5 22.5581Z" fill="#FF323E"/>
</g>
<g filter="url(#filter1_d_841_7366)">
<path d="M103.48 24.8539C113.864 27.714 123.357 33.1507 131.078 40.6594L129.741 42.0346C122.251 34.7512 113.043 29.4776 102.971 26.7033L103.48 24.8539Z" fill="#FDFF5A"/>
</g>
<g filter="url(#filter2_d_841_7366)">
<path d="M36.3961 46.7739C42.2523 39.3879 49.669 33.388 58.1152 29.2037C66.5615 25.0194 75.8283 22.7542 85.2524 22.5703L85.2899 24.4882C76.1485 24.6666 67.1596 26.8638 58.9668 30.9226C50.7739 34.9813 43.5797 40.8013 37.8993 47.9657L36.3961 46.7739Z" fill="#E12FE1"/>
</g>
</g>
<defs>
<filter id="filter0_d_841_7366" x="71.5" y="7.55811" width="45.9017" height="33.8669" filterUnits="userSpaceOnUse" color-interpolation-filters="sRGB">
<feFlood flood-opacity="0" result="BackgroundImageFix"/>
<feColorMatrix in="SourceAlpha" type="matrix" values="0 0 0 0 0 0 0 0 0 0 0 0 0 0 0 0 0 0 127 0" result="hardAlpha"/>
<feOffset/>
<feGaussianBlur stdDeviation="7.5"/>
<feComposite in2="hardAlpha" operator="out"/>
<feColorMatrix type="matrix" values="0 0 0 0 1 0 0 0 0 0.196078 0 0 0 0 0.243137 0 0 0 1 0"/>
<feBlend mode="normal" in2="BackgroundImageFix" result="effect1_dropShadow_841_7366"/>
<feBlend mode="normal" in="SourceGraphic" in2="effect1_dropShadow_841_7366" result="shape"/>
</filter>
<filter id="filter1_d_841_7366" x="87.9708" y="9.854" width="58.1072" height="47.1807" filterUnits="userSpaceOnUse" color-interpolation-filters="sRGB">
<feFlood flood-opacity="0" result="BackgroundImageFix"/>
<feColorMatrix in="SourceAlpha" type="matrix" values="0 0 0 0 0 0 0 0 0 0 0 0 0 0 0 0 0 0 127 0" result="hardAlpha"/>
<feOffset/>
<feGaussianBlur stdDeviation="7.5"/>
<feComposite in2="hardAlpha" operator="out"/>
<feColorMatrix type="matrix" values="0 0 0 0 0.992157 0 0 0 0 1 0 0 0 0 0.352941 0 0 0 1 0"/>
<feBlend mode="normal" in2="BackgroundImageFix" result="effect1_dropShadow_841_7366"/>
<feBlend mode="normal" in="SourceGraphic" in2="effect1_dropShadow_841_7366" result="shape"/>
</filter>
<filter id="filter2_d_841_7366" x="21.3961" y="7.57031" width="78.8938" height="55.3953" filterUnits="userSpaceOnUse" color-interpolation-filters="sRGB">
<feFlood flood-opacity="0" result="BackgroundImageFix"/>
<feColorMatrix in="SourceAlpha" type="matrix" values="0 0 0 0 0 0 0 0 0 0 0 0 0 0 0 0 0 0 127 0" result="hardAlpha"/>
<feOffset/>
<feGaussianBlur stdDeviation="7.5"/>
<feComposite in2="hardAlpha" operator="out"/>
<feColorMatrix type="matrix" values="0 0 0 0 0.882353 0 0 0 0 0.184314 0 0 0 0 0.882353 0 0 0 1 0"/>
<feBlend mode="normal" in2="BackgroundImageFix" result="effect1_dropShadow_841_7366"/>
<feBlend mode="normal" in="SourceGraphic" in2="effect1_dropShadow_841_7366" result="shape"/>
</filter>
</defs>
</svg>
