<svg width="24" height="24" viewBox="0 0 24 24" fill="none" xmlns="http://www.w3.org/2000/svg">
<rect width="24" height="24" rx="12" fill="white"/>
<path d="M11.945 3.58146C12.2585 3.59796 12.528 3.35596 12.55 3.04246C12.572 2.72896 12.3245 2.45946 12.011 2.43746C11.6975 2.42096 11.428 2.65746 11.406 2.97096C11.3895 3.28996 11.6315 3.55946 11.945 3.58146Z" fill="#0033AD"/>
<path d="M17.2855 3.65847C17.148 3.86747 16.873 3.92797 16.664 3.79047C16.4605 3.65297 16.4 3.37247 16.532 3.16347C16.6695 2.95997 16.9445 2.89947 17.1535 3.03697C17.3625 3.17447 17.423 3.44947 17.2855 3.65847Z" fill="#0033AD"/>
<path d="M7.25348 3.83444C7.47348 3.72444 7.56148 3.44944 7.45148 3.22944C7.34148 3.00944 7.06648 2.92144 6.84648 3.03144C6.62648 3.14144 6.53848 3.41094 6.64848 3.63094C6.75848 3.85644 7.02798 3.94994 7.25348 3.83444Z" fill="#0033AD"/>
<path d="M8.65047 13.3604C7.88597 13.3164 7.29747 12.6619 7.34147 11.8974C7.37997 11.1604 7.99047 10.5829 8.72747 10.5829C9.49747 10.5774 10.119 11.1989 10.119 11.9689C10.1245 12.7389 9.50297 13.3604 8.73297 13.3604H8.65047Z" fill="#0033AD"/>
<path d="M1.68747 11.9634C1.69847 11.7159 1.91297 11.5234 2.16047 11.5399C2.40797 11.5564 2.60047 11.7654 2.58397 12.0129C2.56747 12.2604 2.35847 12.4529 2.11097 12.4364C1.86347 12.4254 1.67647 12.2109 1.68747 11.9634Z" fill="#0033AD"/>
<path d="M8.96948 5.36347C9.13998 5.70447 9.00248 6.12247 8.66148 6.29297C8.32048 6.46347 7.90248 6.32597 7.73198 5.98497C7.56148 5.64397 7.69898 5.22597 8.03998 5.05547C8.38098 4.88497 8.79898 5.02247 8.96948 5.36347Z" fill="#0033AD"/>
<path d="M3.92047 7.98145C4.18447 8.15195 4.53647 8.08045 4.71247 7.81645C4.88297 7.55245 4.81147 7.20045 4.54747 7.02445C4.28347 6.85395 3.93147 6.92545 3.75547 7.18945C3.57947 7.45345 3.65647 7.81095 3.92047 7.98145Z" fill="#0033AD"/>
<path d="M4.03048 11.9469C4.05248 11.5619 4.37698 11.2704 4.76198 11.2924C5.14698 11.3145 5.43848 11.6444 5.41648 12.0239C5.39448 12.4089 5.06998 12.7004 4.68498 12.6784C4.29998 12.6564 4.00848 12.3319 4.03048 11.9469Z" fill="#0033AD"/>
<path d="M3.99747 15.951C3.71697 16.094 3.60147 16.435 3.74447 16.721C3.88747 17.0015 4.22847 17.117 4.51447 16.974C4.79497 16.831 4.91047 16.49 4.76747 16.204C4.62447 15.9235 4.27797 15.808 3.99747 15.951Z" fill="#0033AD"/>
<path d="M7.81998 9.62044C7.57798 9.99994 7.07198 10.1044 6.69248 9.85694C6.31298 9.60944 6.20848 9.10344 6.45598 8.72944C6.69798 8.34994 7.20398 8.24544 7.58348 8.49294C7.96298 8.73494 8.06748 9.24094 7.81998 9.62044Z" fill="#0033AD"/>
<path d="M15.245 6.23796C15.564 6.44696 15.9985 6.35896 16.2075 6.03996C16.4165 5.72096 16.3285 5.28646 16.0095 5.07746C15.6905 4.86846 15.256 4.95646 15.047 5.27546C14.8325 5.59996 14.9205 6.02896 15.245 6.23796Z" fill="#0033AD"/>
<path d="M15.3495 10.5719C14.585 10.5279 13.925 11.1164 13.8865 11.8809C13.8425 12.6454 14.431 13.3054 15.1955 13.3439H15.2725C16.037 13.3439 16.6585 12.7224 16.6585 11.9524C16.664 11.2209 16.0865 10.6104 15.3495 10.5719Z" fill="#0033AD"/>
<path d="M10.361 10.5224C9.83298 10.5224 9.35448 10.2254 9.11798 9.75793C8.77148 9.07593 9.04648 8.23993 9.73398 7.88793C10.416 7.54143 11.252 7.81643 11.5985 8.50393C11.6975 8.70193 11.747 8.91643 11.747 9.13093C11.747 9.90093 11.1255 10.5224 10.361 10.5224Z" fill="#0033AD"/>
<path d="M20.0025 7.98143C20.283 7.83843 20.393 7.49193 20.25 7.21143C20.107 6.93093 19.7605 6.82093 19.48 6.96393C19.1995 7.10693 19.0895 7.44793 19.227 7.72843C19.3755 8.00893 19.7165 8.12443 20.0025 7.98143Z" fill="#0033AD"/>
<path d="M16.1195 9.51596C15.916 9.11446 16.081 8.62496 16.4825 8.42146C16.884 8.22346 17.3735 8.38296 17.577 8.78446C17.7805 9.18596 17.6155 9.67546 17.214 9.87896C16.8125 10.0825 16.323 9.91746 16.1195 9.51596Z" fill="#0033AD"/>
<path d="M12.7975 6.40293C12.7755 6.85393 12.3905 7.20043 11.9395 7.17293C11.4885 7.15093 11.1475 6.76593 11.1695 6.31493C11.1915 5.86393 11.5765 5.51743 12.0275 5.54493C12.4785 5.56693 12.825 5.95193 12.7975 6.40293Z" fill="#0033AD"/>
<path d="M7.51748 15.5109C7.91898 15.3074 8.08397 14.8179 7.88048 14.4164C7.67698 14.0149 7.18748 13.8499 6.78598 14.0534C6.38448 14.2569 6.21948 14.7464 6.42298 15.1479C6.62648 15.5494 7.11598 15.7144 7.51748 15.5109Z" fill="#0033AD"/>
<path d="M12.869 10.2859C12.2255 9.86795 12.0495 9.00995 12.4675 8.36645C12.726 7.97595 13.1605 7.73945 13.628 7.73945C13.8975 7.73945 14.1615 7.81645 14.387 7.96495C15.0305 8.38295 15.2065 9.24095 14.7885 9.88445C14.3705 10.5279 13.5125 10.7039 12.869 10.2859Z" fill="#0033AD"/>
<path d="M14.882 14.1745C14.5355 13.487 13.6995 13.212 13.0175 13.5585C12.33 13.905 12.055 14.741 12.4015 15.423C12.748 16.1105 13.584 16.3855 14.266 16.039C14.948 15.698 15.2285 14.873 14.8875 14.1855C14.8875 14.18 14.8875 14.18 14.882 14.1745Z" fill="#0033AD"/>
<path d="M16.18 14.3119C16.422 13.9324 16.928 13.8279 17.3075 14.0754C17.687 14.3229 17.7915 14.8289 17.544 15.2029C17.302 15.5824 16.796 15.6869 16.4165 15.4394C16.037 15.1974 15.9325 14.6914 16.18 14.3119Z" fill="#0033AD"/>
<path d="M19.9695 11.9909C19.9915 11.6059 19.7 11.2814 19.315 11.2594C18.93 11.2374 18.6055 11.5289 18.5835 11.9139C18.5615 12.2989 18.853 12.6234 19.238 12.6454C19.6175 12.6674 19.9475 12.3704 19.9695 11.9909Z" fill="#0033AD"/>
<path d="M21.416 11.9194C21.427 11.672 21.6415 11.4795 21.889 11.4959C22.1365 11.5125 22.3235 11.7215 22.3125 11.969C22.296 12.2165 22.087 12.409 21.8395 12.3925C21.592 12.3815 21.405 12.167 21.416 11.9194Z" fill="#0033AD"/>
<path d="M20.0795 15.9509C19.8155 15.7804 19.4635 15.8519 19.2875 16.1159C19.117 16.3799 19.1885 16.7319 19.4525 16.9079C19.7165 17.0784 20.0685 17.0069 20.2445 16.7429C20.4205 16.4789 20.3435 16.1214 20.0795 15.9509Z" fill="#0033AD"/>
<path d="M6.70898 20.2684C6.84648 20.0649 7.12148 20.0044 7.33048 20.1419C7.53948 20.2794 7.59998 20.5599 7.45698 20.7634C7.31948 20.9669 7.04448 21.0274 6.83548 20.8899C6.63198 20.7524 6.57148 20.4774 6.70898 20.2684Z" fill="#0033AD"/>
<path d="M16.7465 20.098C16.5265 20.208 16.4385 20.483 16.5485 20.703C16.6585 20.923 16.9335 21.011 17.1535 20.901C17.3735 20.791 17.4615 20.5215 17.3515 20.3015C17.2415 20.076 16.972 19.9825 16.7465 20.098Z" fill="#0033AD"/>
<path d="M11.131 13.641C11.7745 14.0645 11.9505 14.9225 11.5325 15.566C11.274 15.962 10.8395 16.1985 10.3665 16.193C10.097 16.193 9.83298 16.116 9.60748 15.9675C8.96398 15.544 8.78248 14.686 9.20598 14.0425C9.62948 13.399 10.4875 13.223 11.131 13.641Z" fill="#0033AD"/>
<path d="M8.75497 17.6944C8.43597 17.4854 8.00147 17.5734 7.79247 17.8924C7.58347 18.2114 7.67147 18.6459 7.99047 18.8549C8.30947 19.0639 8.74397 18.9759 8.95297 18.6569C9.16747 18.3379 9.07947 17.9034 8.75497 17.6944Z" fill="#0033AD"/>
<path d="M11.3895 20.89C11.4115 20.5765 11.681 20.3345 11.9945 20.351C12.308 20.373 12.55 20.6425 12.5335 20.9615C12.5115 21.275 12.242 21.5115 11.9285 21.495C11.615 21.473 11.3675 21.2035 11.3895 20.89Z" fill="#0033AD"/>
<path d="M12 16.7594C11.549 16.7319 11.164 17.0784 11.142 17.5294C11.1145 17.9804 11.461 18.3654 11.912 18.3874C12.363 18.4094 12.748 18.0684 12.77 17.6174C12.7975 17.1719 12.451 16.7814 12 16.7594Z" fill="#0033AD"/>
<path d="M15.036 18.5745C14.86 18.2335 14.9975 17.8155 15.3385 17.6395C15.685 17.4635 16.103 17.6065 16.279 17.9475C16.4495 18.2885 16.312 18.7065 15.971 18.877C15.63 19.053 15.212 18.9155 15.036 18.5745Z" fill="#0033AD"/>
</svg>
