<svg width="24" height="24" viewBox="0 0 24 24" fill="none" xmlns="http://www.w3.org/2000/svg">
<g clip-path="url(#clip0_200_4589)">
<path d="M12 24C18.6274 24 24 18.6274 24 12C24 5.37258 18.6274 0 12 0C5.37258 0 0 5.37258 0 12C0 18.6274 5.37258 24 12 24Z" fill="#0AC18E"/>
<path d="M15.7431 7.97058C15.1401 6.60307 13.7543 6.31068 12.0578 6.59393L11.5127 4.48022L10.2274 4.8122L10.7634 6.91982C10.4254 7.0051 10.0781 7.07819 9.73398 7.17566L9.19794 5.08022L7.91266 5.4122L8.45784 7.52591C8.18068 7.6051 5.86292 8.19901 5.86292 8.19901L6.21621 9.57566C6.21621 9.57566 7.16038 9.31068 7.15124 9.332C7.6751 9.19494 7.9218 9.45687 8.03753 9.70357L9.53601 15.4965C9.55429 15.664 9.52383 15.9503 9.16444 16.0477C9.18576 16.0599 8.22941 16.2883 8.22941 16.2883L8.36951 17.8934C8.36951 17.8934 10.666 17.3056 10.9675 17.2295L11.5188 19.3675L12.804 19.0356L12.2528 16.8823C12.6061 16.8 12.9502 16.7147 13.2853 16.6264L13.8335 18.7675L15.1188 18.4356L14.5675 16.3005C16.5472 15.8193 17.9451 14.5706 17.6589 12.6609C17.4761 11.5097 16.2182 10.5655 15.1736 10.4589C15.8162 9.88936 16.1421 9.05789 15.7431 7.97058ZM15.1248 13.0112C15.3807 14.9026 12.7523 15.134 11.8842 15.3625L11.1289 12.533C12 12.3046 14.6924 11.3452 15.1248 13.0112ZM13.5411 9.1584C13.8122 10.8396 11.5644 11.0345 10.8396 11.2203L10.1512 8.65281C10.8792 8.47312 12.9898 7.60205 13.5411 9.1584Z" fill="white"/>
</g>
<defs>
<clipPath id="clip0_200_4589">
<rect width="24" height="24" fill="white"/>
</clipPath>
</defs>
</svg>
