<svg width="24" height="24" viewBox="0 0 24 24" fill="none" xmlns="http://www.w3.org/2000/svg">
<path d="M20.9868 3.78301C22.6267 5.63117 23.601 7.79534 23.9074 10.2636C24.1971 12.6145 23.8045 14.8385 22.7631 16.9284C22.3753 17.7089 21.8989 18.4295 21.3435 19.0926C20.2829 20.3638 19.0069 21.3358 17.5227 22.0252C16.6728 22.4203 15.7726 22.6573 14.8701 22.8895C14.1423 23.0786 13.4146 23.2797 12.6652 23.3683C10.4149 23.634 8.27226 23.2414 6.23497 22.1761C5.23189 21.6518 4.31738 20.9934 3.50821 20.1891C1.66005 18.3529 0.542053 16.1264 0.142256 13.5337C-0.238389 11.0608 0.149437 8.71703 1.25067 6.50977C1.6792 5.65032 2.21306 4.8627 2.84508 4.14689C4.07798 2.74641 5.55747 1.7122 7.3003 1.10413C8.12862 0.814454 8.98567 0.603783 9.83554 0.381142C12.8304 -0.401695 15.6817 0.0268295 18.3869 1.61644C19.3589 2.21015 20.2279 2.92835 20.9868 3.78301Z" fill="url(#paint0_linear_352_6048)"/>
<path d="M7.54923 20.9264C2.4548 17.8334 0.692826 11.1182 3.60871 5.91845C6.49108 0.776151 12.9788 -1.00737 18.0972 2.07609C23.2227 5.16434 24.9895 11.9058 22.0616 17.1104C19.1242 22.3245 12.6006 23.9931 7.54923 20.9264Z" fill="url(#paint1_linear_352_6048)"/>
<path d="M21.049 16.3922C18.4802 20.9599 12.8161 22.3867 8.43504 19.818C3.86491 17.1367 2.32078 11.1996 4.80096 6.67016C7.31705 2.07369 13.0746 0.467322 17.5993 3.21802C22.0712 5.91605 23.6178 11.8244 21.049 16.3922Z" fill="url(#paint2_linear_352_6048)"/>
<path d="M6.13209 6.49062C6.67792 5.67426 7.34345 4.97283 8.14304 4.42699C10.616 2.73923 13.2423 2.48547 16.0049 3.71598C16.7806 4.06071 17.4772 4.55148 18.1021 5.14759C19.7396 6.71086 20.6756 8.63564 20.8767 10.9051C21.073 13.1292 20.4218 15.0994 19.1147 16.8375C18.3726 17.8238 17.4485 18.597 16.3688 19.1692C15.7823 19.478 15.1742 19.7462 14.5254 19.8683C12.8544 20.1867 11.2313 19.9784 9.66562 19.2578C8.7176 18.8221 7.87013 18.2308 7.13278 17.4767C4.43475 14.7092 3.86737 10.4503 5.80411 7.00293C5.87354 6.8952 6.00042 6.69171 6.13209 6.49062Z" fill="url(#paint3_linear_352_6048)"/>
<path d="M15.7032 10.0672C15.6266 10.0601 15.5835 10.005 15.5356 9.9643C14.7384 9.3275 13.9412 8.6907 13.1488 8.04672C13.0123 7.93659 12.9501 7.92702 12.84 8.08263C12.251 8.91813 11.6478 9.73927 11.0588 10.5724C10.9583 10.7136 10.896 10.7232 10.7644 10.6131C10.3382 10.2564 9.90493 9.91403 9.46922 9.57169C9.37585 9.49748 9.3567 9.45438 9.43331 9.34905C10.4555 7.93899 11.473 6.52414 12.488 5.10928C12.5527 5.01831 12.591 5.00395 12.6844 5.07816C14.0465 6.17701 15.4111 7.27106 16.7781 8.36272C16.8571 8.42497 16.8738 8.46566 16.8092 8.55424C16.4645 9.02347 16.1269 9.49987 15.7846 9.97149C15.7582 10.005 15.7295 10.0361 15.7032 10.0672Z" fill="#CD5E15"/>
<path d="M14.3722 17.9291C14.2884 17.8669 14.2549 17.8405 14.2214 17.8142C12.8616 16.7249 11.5042 15.6333 10.142 14.5464C10.0462 14.4698 10.0366 14.4243 10.1109 14.3238C10.4412 13.8785 10.7668 13.4308 11.0828 12.976C11.1786 12.8395 11.2384 12.8179 11.3773 12.9305C12.1745 13.5816 12.9813 14.216 13.7785 14.8672C13.9077 14.9725 13.9604 14.9582 14.0538 14.8265C14.6451 13.9934 15.2484 13.1723 15.8349 12.3368C15.9522 12.1692 16.0192 12.1811 16.1605 12.3008C16.5794 12.6528 17.008 12.9903 17.4413 13.3279C17.5418 13.4069 17.5418 13.4524 17.47 13.5529C16.4526 14.9582 15.4399 16.3658 14.4272 17.7759C14.4009 17.8118 14.3937 17.8693 14.3722 17.9291Z" fill="#CD5E15"/>
<path d="M13.654 12.9209C13.6085 12.8874 13.575 12.8634 13.5415 12.8347C13.0818 12.466 12.6222 12.0926 12.1577 11.7287C12.0691 11.6593 12.0548 11.6186 12.1266 11.5204C12.4761 11.0464 12.8209 10.5652 13.1632 10.084C13.2231 10.0002 13.259 9.96191 13.3595 10.0457C13.8216 10.4263 14.2884 10.7974 14.7576 11.1685C14.8366 11.2307 14.8534 11.2714 14.7887 11.36C14.4344 11.8412 14.0873 12.3296 13.7378 12.8132C13.7114 12.8491 13.6851 12.8802 13.654 12.9209Z" fill="#CD5E15"/>
<path d="M18.3724 12.2338C18.3461 12.2147 18.3102 12.1907 18.2767 12.1644C17.8266 11.8053 17.3813 11.4414 16.9265 11.0871C16.8211 11.0057 16.8331 10.9554 16.9025 10.8621C17.2401 10.4048 17.5728 9.94515 17.8984 9.47832C17.975 9.37059 18.0205 9.35623 18.1282 9.44481C18.5711 9.81109 19.0236 10.1702 19.4737 10.5269C19.5455 10.5843 19.5862 10.6179 19.5144 10.716C19.1648 11.19 18.8225 11.6712 18.4778 12.15C18.4538 12.1835 18.4347 12.2266 18.3724 12.2338Z" fill="#CD5E15"/>
<path d="M8.9186 13.5266C8.86115 13.5361 8.83481 13.4931 8.80369 13.4691C8.34165 13.1004 7.8844 12.7294 7.41996 12.3631C7.33139 12.2937 7.34335 12.2506 7.40081 12.1716C7.74555 11.7023 8.08549 11.2283 8.42305 10.7519C8.49008 10.6586 8.53796 10.6538 8.62653 10.7256C9.079 11.0943 9.53386 11.4582 9.98872 11.822C10.051 11.8699 10.0988 11.9034 10.0318 11.9944C9.67511 12.4828 9.32319 12.9736 8.96888 13.4643C8.95451 13.4883 8.93536 13.5074 8.9186 13.5266Z" fill="#CD5E15"/>
<path d="M15.2723 10.0505C15.1957 10.0433 15.1526 9.98824 15.1047 9.94754C14.3075 9.31074 13.5103 8.67394 12.7179 8.02995C12.5814 7.91983 12.5192 7.91025 12.4091 8.06586C11.8201 8.90137 11.2168 9.72251 10.6279 10.5556C10.5274 10.6969 10.4651 10.7064 10.3335 10.5963C9.90733 10.2396 9.47402 9.89727 9.03831 9.55493C8.94495 9.48071 8.92579 9.43762 9.0024 9.33229C10.0246 7.92222 11.0421 6.50737 12.0571 5.09252C12.1218 5.00155 12.1601 4.98719 12.2534 5.0614C13.6156 6.16025 14.9802 7.2543 16.3472 8.34596C16.4262 8.4082 16.4429 8.4489 16.3783 8.53748C16.0336 9.0067 15.696 9.48311 15.3537 9.95472C15.3273 9.98824 15.2962 10.0194 15.2723 10.0505Z" fill="#FFFFFD"/>
<path d="M13.9388 17.9124C13.855 17.8501 13.8215 17.8238 13.788 17.7975C12.4282 16.7082 11.0708 15.6165 9.70863 14.5297C9.61287 14.453 9.6033 14.4076 9.67751 14.307C10.0079 13.8617 10.3335 13.4141 10.6495 12.9592C10.7452 12.8227 10.8051 12.8012 10.9439 12.9137C11.7411 13.5649 12.5479 14.1993 13.3451 14.8504C13.4744 14.9558 13.5271 14.9414 13.6204 14.8097C14.2117 13.9766 14.815 13.1555 15.4016 12.32C15.5189 12.1524 15.5859 12.1644 15.7271 12.2841C16.1461 12.636 16.5746 12.9736 17.0079 13.3111C17.1085 13.3901 17.1085 13.4356 17.0367 13.5361C16.0192 14.9414 15.0065 16.3491 13.9939 17.7592C13.9675 17.7951 13.9604 17.8525 13.9388 17.9124Z" fill="#FFFFFD"/>
<path d="M13.2231 12.9041C13.1776 12.8706 13.1441 12.8467 13.1105 12.8179C12.6509 12.4493 12.1913 12.0758 11.7268 11.7119C11.6382 11.6425 11.6239 11.6018 11.6957 11.5036C12.0452 11.0296 12.39 10.5484 12.7323 10.0672C12.7921 9.98345 12.8281 9.94515 12.9286 10.0289C13.3906 10.4096 13.8575 10.7807 14.3267 11.1517C14.4057 11.214 14.4225 11.2547 14.3578 11.3432C14.0035 11.8244 13.6564 12.3128 13.3069 12.7964C13.2805 12.8323 13.2542 12.8634 13.2231 12.9041Z" fill="#FFFFFD"/>
<path d="M17.9415 12.217C17.9152 12.1979 17.8793 12.174 17.8458 12.1476C17.3957 11.7885 16.9504 11.4246 16.4956 11.0703C16.3902 10.9889 16.4022 10.9387 16.4716 10.8453C16.8092 10.388 17.1419 9.92839 17.4675 9.46156C17.5441 9.35383 17.5896 9.33947 17.6973 9.42804C18.1402 9.79433 18.5927 10.1534 19.0428 10.5101C19.1146 10.5676 19.1553 10.6011 19.0835 10.6993C18.7339 11.1733 18.3916 11.6545 18.0469 12.1333C18.0205 12.1668 18.0014 12.2099 17.9415 12.217Z" fill="#FFFFFD"/>
<path d="M8.48769 13.5098C8.43024 13.5194 8.40391 13.4763 8.37278 13.4524C7.91074 13.0837 7.45349 12.7126 6.98905 12.3463C6.90048 12.2769 6.91245 12.2338 6.9699 12.1548C7.31464 11.6856 7.65459 11.2116 7.99214 10.7352C8.05917 10.6418 8.10705 10.637 8.19563 10.7088C8.64809 11.0775 9.10295 11.4414 9.55781 11.8053C9.62005 11.8532 9.66794 11.8867 9.6009 11.9777C9.2442 12.466 8.89228 12.9568 8.53797 13.4476C8.52121 13.4715 8.50206 13.4907 8.48769 13.5098Z" fill="#FFFFFD"/>
<defs>
<linearGradient id="paint0_linear_352_6048" x1="1.66328" y1="5.75719" x2="22.3437" y2="17.697" gradientUnits="userSpaceOnUse">
<stop stop-color="#E3700B"/>
<stop offset="0.2967" stop-color="#E57A0F"/>
<stop offset="0.7977" stop-color="#EA941A"/>
<stop offset="1" stop-color="#EDA11F"/>
</linearGradient>
<linearGradient id="paint1_linear_352_6048" x1="3.49509" y1="6.11562" x2="22.1819" y2="16.9044" gradientUnits="userSpaceOnUse">
<stop stop-color="#F2B92C"/>
<stop offset="1" stop-color="#E3700B"/>
</linearGradient>
<linearGradient id="paint2_linear_352_6048" x1="4.75495" y1="6.7439" x2="21.1543" y2="16.2121" gradientUnits="userSpaceOnUse">
<stop stop-color="#E3700B"/>
<stop offset="0.2967" stop-color="#E57A0F"/>
<stop offset="0.7977" stop-color="#EA941A"/>
<stop offset="1" stop-color="#EDA11F"/>
</linearGradient>
<linearGradient id="paint3_linear_352_6048" x1="5.61994" y1="7.32234" x2="19.9268" y2="15.5824" gradientUnits="userSpaceOnUse">
<stop stop-color="#F2B92C"/>
<stop offset="1" stop-color="#E3700B"/>
</linearGradient>
</defs>
</svg>
