<svg width="45" height="45" viewBox="0 0 45 45" fill="none" xmlns="http://www.w3.org/2000/svg">
<g clip-path="url(#clip0_2001_761)">
<path d="M22.5 45C34.9264 45 45 34.9264 45 22.5C45 10.0736 34.9264 0 22.5 0C10.0736 0 0 10.0736 0 22.5C0 34.9264 10.0736 45 22.5 45Z" fill="#F3BA2F"/>
<path d="M17.0381 20.2556L22.5 14.7938L27.9647 20.2584L31.1428 17.0803L22.5 8.4375L13.86 17.0775L17.0381 20.2556ZM8.4375 22.5L11.6156 19.3219L14.7938 22.5L11.6156 25.6781L8.4375 22.5ZM17.0381 24.7444L22.5 30.2062L27.9647 24.7416L31.1428 27.9183L22.5 36.5625L13.86 27.9225L13.8558 27.9183L17.0381 24.7444ZM30.2062 22.5L33.3844 19.3219L36.5625 22.5L33.3844 25.6781L30.2062 22.5ZM25.7231 22.4972H25.7259V22.5L22.5 25.7259L19.2783 22.5056L19.2727 22.5L19.2783 22.4958L19.8422 21.9305L20.1164 21.6562L22.5 19.2741L25.7245 22.4986L25.7231 22.4972Z" fill="white"/>
</g>
<defs>
<clipPath id="clip0_2001_761">
<rect width="45" height="45" fill="white"/>
</clipPath>
</defs>
</svg>
