<svg width="25" height="24" viewBox="0 0 25 24" fill="none" xmlns="http://www.w3.org/2000/svg">
<path d="M21.4825 3.86991C23.1611 5.76173 24.1585 7.97701 24.4721 10.5035C24.7686 12.91 24.3667 15.1865 23.3008 17.3258C22.9038 18.1247 22.4161 18.8623 21.8476 19.5411C20.762 20.8423 19.4559 21.8373 17.9365 22.543C17.0666 22.9474 16.1452 23.19 15.2213 23.4277C14.4764 23.6213 13.7314 23.8271 12.9644 23.9178C10.6609 24.1898 8.46765 23.7879 6.38224 22.6974C5.35546 22.1607 4.41936 21.4868 3.59107 20.6635C1.69926 18.7839 0.554856 16.5049 0.145616 13.851C-0.24402 11.3196 0.152967 8.92047 1.28022 6.66353C1.71886 5.78378 2.26533 4.97755 2.91228 4.24484C4.1743 2.81128 5.68874 1.75264 7.47273 1.13021C8.32062 0.833691 9.19791 0.618044 10.0679 0.390144C13.1335 -0.411182 16.0521 0.0274632 18.8212 1.65462C19.8161 2.2599 20.7056 2.99507 21.4825 3.86991Z" fill="url(#paint0_linear_352_5934)"/>
<path d="M7.72761 21.4182C2.51531 18.2521 0.711714 11.3784 3.69647 6.05579C6.64692 0.792028 13.2879 -1.03362 18.5271 2.12267C23.7737 5.28387 25.5822 12.1846 22.5852 17.5121C19.5784 22.8493 12.8982 24.5574 7.72761 21.4182Z" fill="url(#paint1_linear_352_5934)"/>
<path d="M21.5486 16.7769C18.9167 21.4525 13.1212 22.9131 8.6367 20.2812C3.95862 17.5366 2.37803 11.4592 4.91678 6.82281C7.4923 2.11777 13.3858 0.473459 18.0174 3.28913C22.595 6.05334 24.178 12.1013 21.5486 16.7769Z" fill="url(#paint2_linear_352_5934)"/>
<path d="M6.2793 6.64147C6.83802 5.80584 7.51927 5.08783 8.33775 4.52911C10.8692 2.80148 13.5574 2.54172 16.3853 3.8013C17.1793 4.15417 17.8924 4.65653 18.532 5.26672C20.2082 6.86692 21.1663 8.83716 21.3722 11.1603C21.5731 13.4368 20.9066 15.4536 19.5686 17.2327C18.8089 18.2423 17.863 19.0339 16.7578 19.6195C16.1574 19.9356 15.535 20.2101 14.8709 20.3351C13.1604 20.661 11.499 20.4478 9.8963 19.7102C8.92588 19.2642 8.05839 18.6589 7.30363 17.887C4.53942 15.0542 3.96109 10.6971 5.94358 7.16589C6.01219 7.05561 6.14207 6.84732 6.2793 6.64147Z" fill="url(#paint3_linear_352_5934)"/>
<path d="M9.56789 6.66353C9.79579 6.68558 10.0163 6.70519 10.2344 6.72479C10.7539 6.7738 11.2735 6.82281 11.793 6.87427C11.8665 6.88162 11.891 6.86202 11.8959 6.7836C11.9327 6.18077 11.9768 5.58039 12.0135 4.98C12.0184 4.89669 12.0405 4.87463 12.1189 4.88198C12.4497 4.91874 12.7805 4.94815 13.1114 4.97755C13.1849 4.98491 13.1971 5.01676 13.1922 5.08783C13.1506 5.67841 13.1138 6.26654 13.0746 6.85712C13.0722 6.88653 13.0746 6.91593 13.0746 6.95269C13.2658 6.96984 13.452 6.98455 13.6382 6.99925C13.7167 7.0066 13.7975 7.00415 13.8759 7.01885C13.9568 7.03356 13.9715 6.99435 13.9764 6.92328C13.996 6.59491 14.0181 6.26409 14.0401 5.93572C14.0573 5.68086 14.0769 5.426 14.0867 5.1736C14.0916 5.08538 14.1259 5.07313 14.197 5.08048C14.518 5.11479 14.8414 5.14174 15.1625 5.1736C15.2752 5.1834 15.2727 5.1834 15.2654 5.30348C15.2262 5.90141 15.1845 6.49934 15.1453 7.09972C15.1429 7.12668 15.1453 7.15363 15.1453 7.19284C15.1943 7.20509 15.2433 7.21735 15.2923 7.22715C15.78 7.33007 16.2579 7.46975 16.7014 7.72216C17.145 7.97457 17.5003 8.31764 17.6743 8.8298C17.912 9.5184 17.8532 10.5452 17.2846 11.1088C17.1303 11.2607 16.9563 11.3784 16.7676 11.4739C16.7504 11.4813 16.7333 11.4911 16.7235 11.4984C16.9097 11.5965 17.1033 11.6822 17.2822 11.7925C17.662 12.0253 17.9438 12.3537 18.0909 12.7972C18.2109 13.1599 18.2305 13.5348 18.1962 13.9122C18.1497 14.3999 18.0419 14.8655 17.7943 15.2796C17.5272 15.7305 17.1401 16.0197 16.6696 16.1912C16.1549 16.3799 15.6183 16.4387 15.0743 16.4436C14.9199 16.4461 14.763 16.4461 14.6062 16.4412C14.5425 16.4387 14.5204 16.4534 14.5155 16.5269C14.4788 17.1371 14.4322 17.7498 14.3955 18.36C14.3905 18.4506 14.3636 18.4678 14.2827 18.4604C13.9544 18.4237 13.626 18.3943 13.3001 18.3649C13.2314 18.36 13.2094 18.333 13.2143 18.257C13.2559 17.6615 13.2952 17.0661 13.3344 16.4681C13.3417 16.3505 13.3417 16.3505 13.2314 16.3407C12.9986 16.3162 12.7683 16.2966 12.5379 16.2672C12.4669 16.2574 12.4448 16.277 12.4399 16.353C12.4032 16.9484 12.3615 17.5439 12.3223 18.1419C12.3149 18.2668 12.3149 18.2668 12.1924 18.257C11.8738 18.2276 11.5528 18.1933 11.2343 18.1688C11.1534 18.1615 11.1338 18.1345 11.1411 18.0536C11.1828 17.4533 11.222 16.8504 11.2612 16.25C11.2686 16.1275 11.271 16.1275 11.1558 16.1153C10.4525 16.0466 9.74923 15.9756 9.04592 15.907C8.94545 15.8972 8.943 15.8972 8.96751 15.7869C9.06308 15.3654 9.1611 14.9414 9.25422 14.52C9.27137 14.4464 9.30323 14.4342 9.36694 14.4415C9.6218 14.4685 9.8742 14.4955 10.1291 14.5126C10.3986 14.5298 10.5555 14.3803 10.5751 14.0936C10.6951 12.3194 10.8128 10.5452 10.9304 8.76854C10.9549 8.41811 10.7662 8.15591 10.4329 8.09954C10.1462 8.05298 9.85705 8.03093 9.57034 8.00642C9.49192 7.99907 9.46987 7.97702 9.47722 7.89125C9.50662 7.51386 9.52868 7.13648 9.55318 6.7591C9.55563 6.72724 9.56299 6.70028 9.56789 6.66353ZM12.5772 14.7479C12.6041 14.7552 12.6188 14.7601 12.636 14.7626C13.1898 14.8165 13.7412 14.8875 14.2974 14.8459C14.6062 14.8214 14.9101 14.7797 15.1992 14.6572C15.6771 14.4538 15.9123 14.0642 15.8707 13.5177C15.8462 13.1893 15.6844 12.932 15.4345 12.736C15.1453 12.5081 14.812 12.3929 14.469 12.3071C13.9397 12.1748 13.403 12.1405 12.8639 12.1013C12.7487 12.0939 12.7511 12.0915 12.7413 12.2164C12.7095 12.6845 12.6801 13.1501 12.6482 13.6182C12.6286 13.9931 12.6041 14.3656 12.5772 14.7479ZM14.5621 10.8736C14.6234 10.8589 14.7361 10.8343 14.8463 10.8C14.9174 10.778 14.9836 10.7461 15.0497 10.7143C15.7261 10.3932 15.7163 9.46694 15.3169 9.06751C15.0939 8.84206 14.8243 8.71953 14.5351 8.63376C14.0597 8.49163 13.5721 8.46467 13.0869 8.42791C13.0133 8.42301 12.9962 8.44262 12.9913 8.51613C12.9472 9.21454 12.9006 9.91049 12.8541 10.6064C12.8394 10.8319 12.8394 10.8343 13.0526 10.8589C13.5378 10.9103 14.0254 10.9544 14.5621 10.8736Z" fill="#CD5E15"/>
<path d="M9.46012 6.66108C9.67576 6.68313 9.88651 6.70519 10.0948 6.72724C10.5898 6.7787 11.0848 6.83016 11.5798 6.88408C11.6484 6.89143 11.673 6.87182 11.6754 6.79341C11.7073 6.20037 11.744 5.60734 11.7759 5.01431C11.7808 4.93099 11.8028 4.91139 11.8763 4.91874C12.19 4.9555 12.5061 4.98736 12.8198 5.01921C12.8884 5.02657 12.9031 5.05842 12.8982 5.12949C12.8615 5.71027 12.8296 6.29104 12.7953 6.87182C12.7929 6.90123 12.7953 6.93064 12.7953 6.96739C12.9766 6.98455 13.1555 7.0017 13.332 7.01641C13.4079 7.02376 13.4839 7.02376 13.5574 7.03846C13.6358 7.05561 13.6481 7.0164 13.6505 6.94534C13.6677 6.62187 13.6873 6.29595 13.7045 5.97247C13.7192 5.72252 13.7363 5.47256 13.7461 5.22016C13.7486 5.13194 13.7829 5.12214 13.8515 5.12949C14.1578 5.1638 14.4641 5.19565 14.7704 5.22751C14.8758 5.23976 14.8758 5.23976 14.8685 5.35739C14.8342 5.94797 14.7998 6.5361 14.7631 7.12668C14.7606 7.15363 14.7631 7.18059 14.7631 7.21735C14.8096 7.2296 14.8562 7.24185 14.9028 7.25166C15.3684 7.35458 15.8217 7.49426 16.2457 7.74667C16.6672 7.99662 17.0078 8.33725 17.1793 8.84451C17.4097 9.52576 17.3607 10.5354 16.8215 11.0892C16.677 11.2387 16.5128 11.3539 16.3314 11.447C16.3167 11.4543 16.2996 11.4641 16.2898 11.4715C16.4687 11.5695 16.6525 11.6553 16.824 11.7631C17.1867 11.9935 17.4562 12.3194 17.5984 12.758C17.716 13.1158 17.7356 13.4858 17.7037 13.8583C17.6621 14.3386 17.5641 14.7969 17.3313 15.2037C17.0788 15.6448 16.7113 15.929 16.2677 16.0957C15.7801 16.2794 15.2703 16.3334 14.7533 16.3334C14.6063 16.3334 14.4568 16.3334 14.3097 16.3285C14.2509 16.326 14.2264 16.3407 14.224 16.4142C14.1921 17.0171 14.1529 17.6174 14.121 18.2203C14.1161 18.3085 14.0892 18.3256 14.0132 18.3183C13.702 18.2815 13.3883 18.2497 13.0771 18.2178C13.0109 18.2105 12.9913 18.186 12.9962 18.1124C13.033 17.5268 13.0649 16.9386 13.0992 16.3505C13.1065 16.2353 13.1065 16.2353 13.0011 16.2231C12.7806 16.1986 12.56 16.1765 12.3395 16.1447C12.2709 16.1349 12.2513 16.1545 12.2464 16.228C12.2145 16.8161 12.1802 17.4018 12.1459 17.9899C12.1386 18.1124 12.1386 18.1149 12.0234 18.1026C11.7195 18.0708 11.4156 18.0365 11.1118 18.0095C11.0358 18.0022 11.0162 17.9752 11.0211 17.8944C11.0579 17.3013 11.0922 16.7083 11.1265 16.1177C11.1338 15.9976 11.1338 15.9976 11.026 15.9854C10.357 15.9143 9.68557 15.8408 9.01657 15.7673C8.921 15.7575 8.91855 15.755 8.9406 15.6497C9.02882 15.2331 9.11949 14.8189 9.20526 14.4023C9.21996 14.3288 9.25182 14.319 9.31308 14.3264C9.55569 14.3558 9.79584 14.3827 10.0384 14.3999C10.2933 14.4195 10.4428 14.27 10.4599 13.9882C10.5629 12.241 10.6658 10.4913 10.7687 8.74403C10.7883 8.39851 10.6094 8.13875 10.2908 8.08239C10.0188 8.03583 9.74438 8.01132 9.46992 7.98682C9.3964 7.97947 9.37435 7.95741 9.37925 7.87409C9.40375 7.50161 9.42336 7.13158 9.44541 6.7591C9.45031 6.72724 9.45767 6.69783 9.46012 6.66108ZM12.3714 14.6474C12.3959 14.6547 12.4106 14.6596 12.4277 14.6621C12.9546 14.7185 13.4815 14.792 14.0083 14.7528C14.3024 14.7307 14.5915 14.6915 14.866 14.5714C15.3194 14.3729 15.5424 13.9931 15.4982 13.454C15.4713 13.1305 15.3169 12.8756 15.0792 12.6796C14.8023 12.4542 14.4862 12.3365 14.1578 12.2508C13.653 12.116 13.1408 12.0792 12.6311 12.0376C12.5233 12.0278 12.5233 12.0278 12.5159 12.1503C12.489 12.611 12.462 13.0717 12.4351 13.5299C12.4155 13.9024 12.3934 14.27 12.3714 14.6474ZM14.2387 10.8392C14.2975 10.8245 14.4053 10.8025 14.5107 10.7706C14.5768 10.751 14.6406 10.7167 14.7043 10.6873C15.3463 10.3761 15.3292 9.46204 14.9493 9.06505C14.7361 8.84206 14.4788 8.71708 14.2019 8.63131C13.7486 8.48918 13.2854 8.45732 12.8223 8.41811C12.7536 8.41321 12.734 8.43282 12.7316 8.50388C12.6948 9.19003 12.6532 9.87618 12.614 10.5648C12.6017 10.7878 12.6017 10.7902 12.8051 10.8147C13.2634 10.8711 13.7265 10.9177 14.2387 10.8392Z" fill="white"/>
<defs>
<linearGradient id="paint0_linear_352_5934" x1="1.70335" y1="5.89072" x2="22.8722" y2="18.1126" gradientUnits="userSpaceOnUse">
<stop stop-color="#EB6810"/>
<stop offset="1" stop-color="#F29221"/>
</linearGradient>
<linearGradient id="paint1_linear_352_5934" x1="3.5785" y1="6.25761" x2="22.7067" y2="17.3013" gradientUnits="userSpaceOnUse">
<stop stop-color="#F8AF00"/>
<stop offset="1" stop-color="#E95A13"/>
</linearGradient>
<linearGradient id="paint2_linear_352_5934" x1="4.86802" y1="6.90074" x2="21.6547" y2="16.5925" gradientUnits="userSpaceOnUse">
<stop stop-color="#EB6810"/>
<stop offset="1" stop-color="#F29221"/>
</linearGradient>
<linearGradient id="paint3_linear_352_5934" x1="5.75341" y1="7.49284" x2="20.3982" y2="15.948" gradientUnits="userSpaceOnUse">
<stop stop-color="#F8AF00"/>
<stop offset="1" stop-color="#EB6810"/>
</linearGradient>
</defs>
</svg>
