<svg width="45" height="45" viewBox="0 0 45 45" fill="none" xmlns="http://www.w3.org/2000/svg">
<path d="M44.3265 27.943C41.3211 39.9966 29.1114 47.3322 17.055 44.3264C5.0036 41.3213 -2.33289 29.1123 0.673989 17.0595C3.67806 5.0045 15.8877 -2.33182 27.9406 0.673303C39.9962 3.67843 47.332 15.8888 44.3265 27.943Z" fill="#F7931A"/>
<path d="M32.4212 19.2945C32.8691 16.3007 30.5894 14.6912 27.4721 13.6176L28.4833 9.56198L26.0144 8.94675L25.0299 12.8955C24.3808 12.7337 23.7142 12.5812 23.0518 12.43L24.0433 8.45527L21.5757 7.84004L20.5638 11.8942C20.0266 11.7719 19.4992 11.651 18.9873 11.5237L18.9901 11.511L15.5852 10.6609L14.9284 13.2976C14.9284 13.2976 16.7603 13.7174 16.7216 13.7434C17.7215 13.993 17.9022 14.6547 17.872 15.1792L16.7202 19.7994C16.7891 19.817 16.8784 19.8423 16.9768 19.8816C16.8946 19.8613 16.8067 19.8387 16.716 19.8169L15.1014 26.2892C14.979 26.5929 14.6689 27.0485 13.97 26.8756C13.9946 26.9114 12.1754 26.4277 12.1754 26.4277L10.9497 29.2535L14.1626 30.0543C14.7603 30.2041 15.3461 30.3609 15.9227 30.5086L14.901 34.6106L17.3671 35.2258L18.379 31.1674C19.0527 31.3502 19.7067 31.519 20.3466 31.6779L19.3382 35.7173L21.8071 36.3325L22.8289 32.2382C27.0389 33.0349 30.2047 32.7135 31.5373 28.9062C32.6111 25.8406 31.4838 24.0722 29.2688 22.9191C30.8819 22.5472 32.097 21.4862 32.4212 19.2945ZM26.7801 27.2039C26.0172 30.2695 20.855 28.6123 19.1814 28.1967L20.5371 22.7623C22.2107 23.18 27.5776 24.0068 26.7801 27.2039ZM27.5438 19.2502C26.8476 22.0388 22.5511 20.622 21.1573 20.2747L22.3865 15.3458C23.7803 15.6932 28.2688 16.3414 27.5438 19.2502Z" fill="white"/>
</svg>
