<svg width="45" height="46" viewBox="0 0 45 46" fill="none" xmlns="http://www.w3.org/2000/svg">
<rect y="0.5" width="45" height="45" rx="22.5" fill="#F0B90B"/>
<path d="M26.8365 9.93749L22.4996 5.49606L11.5789 16.5212L15.9158 20.8582L26.8365 9.93749Z" fill="white"/>
<path d="M33.4203 16.5213L29.0833 12.0798L11.5789 29.6888L15.9158 34.0257L33.4203 16.5213Z" fill="white"/>
<path d="M9.33204 18.6636L13.669 23.105L9.33204 27.4419L4.99512 23.105L9.33204 18.6636Z" fill="white"/>
<path d="M40.004 23.105L35.6671 18.6636L18.1627 36.2725L22.4996 40.6094L40.004 23.105Z" fill="white"/>
<path d="M26.8365 9.93749L22.4996 5.49606L11.5789 16.5212L15.9158 20.8582L26.8365 9.93749Z" stroke="white" stroke-width="0.594513"/>
<path d="M33.4203 16.5213L29.0833 12.0798L11.5789 29.6888L15.9158 34.0257L33.4203 16.5213Z" stroke="white" stroke-width="0.594513"/>
<path d="M9.33204 18.6636L13.669 23.105L9.33204 27.4419L4.99512 23.105L9.33204 18.6636Z" stroke="white" stroke-width="0.594513"/>
<path d="M40.004 23.105L35.6671 18.6636L18.1627 36.2725L22.4996 40.6094L40.004 23.105Z" stroke="white" stroke-width="0.594513"/>
</svg>
