<svg width="45" height="45" viewBox="0 0 45 45" fill="none" xmlns="http://www.w3.org/2000/svg">
<rect width="45" height="45" rx="22.5" fill="#0382D1"/>
<path d="M16.0201 9.86401H27.3241C37.2601 9.86401 39.0241 15.3 37.6201 22.95C36.6661 28.08 34.3261 32.004 30.3301 33.84C28.5301 34.686 26.8561 35.136 22.8601 35.136H11.5741L12.5101 29.88H22.4461C28.4041 29.88 30.0061 27.27 30.7801 25.02C31.0861 24.156 31.7341 21.546 31.7701 19.98C31.8061 16.956 30.3301 15.12 25.2901 15.12H15.0841L16.0201 9.86401Z" fill="white"/>
<path d="M7.47827 22.9147C7.74866 21.7417 8.1838 19.854 11.1241 19.854H22.6981C22.6981 19.854 22.5721 20.484 22.2121 22.014C22.2094 22.0257 22.2067 22.0375 22.204 22.0493C21.9336 23.2223 21.4985 25.11 18.5581 25.11H6.98413C6.98413 25.11 7.11013 24.48 7.47013 22.95C7.47283 22.9383 7.47554 22.9266 7.47827 22.9147Z" fill="white"/>
</svg>
