<svg width="25" height="24" viewBox="0 0 25 24" fill="none" xmlns="http://www.w3.org/2000/svg">
<path d="M21.4803 3.87197C23.1587 5.76359 24.156 7.97865 24.4696 10.5049C24.7661 12.9111 24.3643 15.1874 23.2984 17.3265C22.9015 18.1253 22.4138 18.8628 21.8454 19.5416C20.7599 20.8427 19.4539 21.8375 17.9347 22.5432C17.0649 22.9475 16.1435 23.1901 15.2198 23.4277C14.4749 23.6213 13.73 23.8271 12.9631 23.9178C10.6598 24.1898 8.46679 23.7879 6.38159 22.6975C5.35492 22.1609 4.41891 21.4871 3.59071 20.6638C1.69908 18.7844 0.554799 16.5057 0.145601 13.852C-0.243995 11.3208 0.152953 8.92201 1.28009 6.66285C1.71869 5.78319 2.26511 4.97705 2.91199 4.24441C4.17389 2.81099 5.68816 1.75246 7.47197 1.13009C8.31977 0.833606 9.19698 0.617981 10.0668 0.390104C13.1321 -0.41114 16.0504 0.0274604 18.8193 1.65445C19.8116 2.26212 20.7011 2.99721 21.4803 3.87197Z" fill="url(#paint0_linear_352_6000)"/>
<path d="M7.72684 21.4185C2.51263 18.2527 0.709225 11.3797 3.69368 6.05762C6.64383 0.794401 13.2841 -1.03106 18.5228 2.12491C23.7689 5.28578 25.5772 12.1858 22.5805 17.5127C19.574 22.8495 12.897 24.5573 7.72684 21.4185Z" fill="url(#paint1_linear_352_6000)"/>
<path d="M21.5441 16.7776C18.9149 21.4528 13.1175 22.9131 8.63351 20.284C3.95591 17.5396 2.37548 11.4629 4.91398 6.82698C7.48923 2.12243 13.3822 0.478283 18.0132 3.29367C22.5904 6.05514 24.1733 12.1025 21.5441 16.7776Z" fill="url(#paint2_linear_352_6000)"/>
<path d="M6.27625 6.64324C6.83491 5.8077 7.5161 5.08976 8.3345 4.5311C10.8656 2.80364 13.5536 2.54391 16.3812 3.80336C17.1751 4.1562 17.8882 4.65851 18.5277 5.26863C20.2037 6.86867 21.1618 8.83871 21.3676 11.1616C21.5685 13.4379 20.902 15.4545 19.5642 17.2334C18.8046 18.2429 17.8588 19.0344 16.7537 19.62C16.1534 19.9361 15.531 20.2105 14.867 20.3355C13.1567 20.6614 11.4954 20.4482 9.89288 19.7106C8.92256 19.2647 8.05515 18.6595 7.30047 17.8876C4.53899 15.0551 3.95827 10.696 5.94056 7.16761C6.01162 7.05734 6.13903 6.84907 6.27625 6.64324Z" fill="url(#paint3_linear_352_6000)"/>
<path d="M13.3309 18.287C12.2454 18.5222 11.3486 18.7134 10.4542 18.9167C10.2876 18.9535 10.2484 18.9094 10.2435 18.7526C10.2239 18.0763 10.2018 17.4 10.17 16.7237C10.1626 16.5645 10.2068 16.5081 10.3636 16.4762C11.7259 16.1871 13.0883 15.8955 14.4482 15.5917C15.0657 15.4545 15.6758 15.2903 16.2418 14.9889C17.1264 14.5185 17.685 13.8128 17.8247 12.8082C17.9497 11.9016 17.9717 10.9925 17.7781 10.0908C17.5576 9.06657 16.8838 8.53976 15.8326 8.53241C15.3548 8.52996 14.8868 8.59857 14.4212 8.69658C12.9707 9.00287 11.525 9.3165 10.0769 9.63749C9.91271 9.67425 9.87596 9.63749 9.87106 9.47822C9.85146 8.78969 9.82695 8.10116 9.79265 7.41263C9.7853 7.28276 9.82941 7.23866 9.94947 7.2117C11.7137 6.83191 13.473 6.43741 15.2421 6.07477C16.0752 5.90325 16.9205 5.85424 17.7683 6.02577C18.9445 6.26589 19.78 6.95442 20.177 8.06441C20.9145 10.1177 20.9611 12.2103 20.199 14.271C19.5864 15.9225 18.3491 16.9492 16.6902 17.4882C15.5288 17.8607 14.3257 18.0444 13.3309 18.287Z" fill="#2C548C"/>
<path d="M9.93473 14.3518C9.09428 14.5356 8.25137 14.7145 7.41092 14.9032C7.26636 14.935 7.2247 14.9154 7.22715 14.7586C7.23205 14.3224 7.2296 13.8863 7.27371 13.4526C7.33251 12.8817 7.66085 12.5043 8.19257 12.3059C8.36899 12.2397 8.55522 12.1931 8.73899 12.1515C10.339 11.8011 11.9415 11.4507 13.544 11.1028C13.7621 11.0562 13.7645 11.0562 13.7621 11.2767C13.7572 11.5683 13.7523 11.8575 13.7474 12.149C13.7229 13.1439 13.3529 13.5996 12.385 13.8201C11.9783 13.9132 11.5691 13.999 11.1599 14.0872C10.7507 14.173 10.3415 14.2612 9.93473 14.3518Z" fill="#2C548C"/>
<path d="M13.1128 17.9905C12.0592 18.2184 11.1869 18.4046 10.3195 18.6007C10.1578 18.6374 10.1186 18.5933 10.1161 18.4414C10.0965 17.7847 10.0769 17.128 10.045 16.4714C10.0377 16.317 10.0818 16.2631 10.2337 16.2312C11.5569 15.9519 12.88 15.6677 14.1983 15.3712C14.7962 15.2364 15.3891 15.0796 15.9404 14.788C16.8005 14.3323 17.342 13.6462 17.4768 12.671C17.5993 11.7889 17.6189 10.9067 17.4302 10.032C17.217 9.03718 16.5604 8.52507 15.541 8.52017C15.0779 8.51772 14.6222 8.58387 14.1713 8.67944C12.7649 8.97592 11.3584 9.28221 9.95438 9.59339C9.79511 9.6277 9.75836 9.59339 9.75591 9.43657C9.73875 8.76764 9.7118 8.09872 9.67995 7.43224C9.67505 7.30482 9.7167 7.26317 9.83432 7.23866C11.5471 6.87112 13.2574 6.48643 14.9726 6.13358C15.7812 5.96696 16.6045 5.92041 17.4253 6.08703C18.5671 6.31981 19.3782 6.98874 19.7653 8.06686C20.4808 10.0614 20.5274 12.0927 19.7874 14.0921C19.1944 15.6971 17.9913 16.6919 16.379 17.2162C15.247 17.5789 14.0782 17.7578 13.1128 17.9905Z" fill="#FCFDFD"/>
<path d="M9.81226 14.1705C8.99631 14.347 8.17791 14.5234 7.36197 14.7047C7.2223 14.7366 7.18063 14.7145 7.18308 14.565C7.18798 14.1411 7.18554 13.7172 7.22964 13.2958C7.286 12.7396 7.60454 12.3745 8.12155 12.1833C8.29307 12.1196 8.47439 12.0731 8.65326 12.0339C10.2092 11.6933 11.7627 11.3552 13.3186 11.0146C13.5318 10.968 13.5318 10.968 13.5293 11.1836C13.5269 11.4654 13.522 11.7472 13.5146 12.0314C13.4926 12.9993 13.1324 13.4403 12.1915 13.6535C11.797 13.7442 11.4 13.8275 11.0031 13.9133C10.6061 13.999 10.2092 14.0848 9.81226 14.1705Z" fill="#FCFDFD"/>
<defs>
<linearGradient id="paint0_linear_352_6000" x1="1.70168" y1="5.89257" x2="22.8684" y2="18.1132" gradientUnits="userSpaceOnUse">
<stop offset="0.013" stop-color="#00649C"/>
<stop offset="1" stop-color="#3181C0"/>
</linearGradient>
<linearGradient id="paint1_linear_352_6000" x1="3.57667" y1="6.25943" x2="22.7029" y2="17.3019" gradientUnits="userSpaceOnUse">
<stop stop-color="#368ECD"/>
<stop offset="1" stop-color="#1A6189"/>
</linearGradient>
<linearGradient id="paint2_linear_352_6000" x1="4.86617" y1="6.90245" x2="21.6511" y2="16.5933" gradientUnits="userSpaceOnUse">
<stop offset="0.013" stop-color="#00649C"/>
<stop offset="1" stop-color="#3181C0"/>
</linearGradient>
<linearGradient id="paint3_linear_352_6000" x1="5.75135" y1="7.49453" x2="20.3946" y2="15.9488" gradientUnits="userSpaceOnUse">
<stop stop-color="#3181C0"/>
<stop offset="1" stop-color="#00649C"/>
</linearGradient>
</defs>
</svg>
