<svg width="24" height="24" viewBox="0 0 24 24" fill="none" xmlns="http://www.w3.org/2000/svg">
<g clip-path="url(#clip0_200_4579)">
<rect width="24" height="24" rx="12" fill="#988430"/>
<path d="M11.9906 23.6062C18.4057 23.6062 23.6062 18.4057 23.6062 11.9906C23.6062 5.57549 18.4057 0.375 11.9906 0.375C5.57549 0.375 0.375 5.57549 0.375 11.9906C0.375 18.4057 5.57549 23.6062 11.9906 23.6062Z" fill="#7A6A2A"/>
<path d="M11.9906 23.3615C18.2706 23.3615 23.3615 18.2706 23.3615 11.9906C23.3615 5.71067 18.2706 0.619751 11.9906 0.619751C5.71067 0.619751 0.619751 5.71067 0.619751 11.9906C0.619751 18.2706 5.71067 23.3615 11.9906 23.3615Z" fill="#BA9F33"/>
<path fill-rule="evenodd" clip-rule="evenodd" d="M5.23719 10.7091C5.16922 10.647 5.09741 10.5848 5.03136 10.5227C4.96531 10.4606 4.89747 10.3984 4.82951 10.3363L4.62752 10.1443C4.5945 10.1113 4.55955 10.0823 4.52653 10.0491C4.49351 10.02 4.45472 9.98702 4.4217 9.95784C4.15367 9.7035 3.8841 9.44917 3.61978 9.1947C3.89357 9.4452 4.1616 9.6939 4.43539 9.94811L4.5305 10.0433C4.56352 10.0762 4.59847 10.1054 4.63149 10.1384L4.83335 10.3248C4.90131 10.3869 4.96736 10.4491 5.03533 10.5168C5.1033 10.5845 5.16935 10.6469 5.23731 10.7088L5.23719 10.7091ZM1.67994 10.6707C1.67994 10.6707 2.65466 10.7715 3.13043 10.8395C3.57114 10.9017 4.94983 11.1133 4.94983 11.1133L1.67994 10.6707ZM1.67994 10.6707C1.95373 10.694 2.22752 10.723 2.50131 10.7522C2.64109 10.7658 2.77511 10.7813 2.90912 10.7948L3.11482 10.8183C3.18279 10.8279 3.24883 10.8376 3.3168 10.8473L4.13242 10.9774L4.5401 11.0453C4.67411 11.0686 4.80813 11.094 4.94791 11.1173C4.81389 11.1037 4.67411 11.0842 4.5401 11.0648L4.13242 11.0065L3.3168 10.8862C3.24883 10.8765 3.18279 10.8628 3.11482 10.8532L2.90899 10.8295C2.77498 10.8159 2.6352 10.7965 2.50119 10.7809C2.22739 10.748 1.9536 10.7129 1.67981 10.6703L1.67994 10.6707ZM4.8528 11.3672C4.8528 11.3672 3.81203 11.6314 3.46055 11.7324C3.11495 11.8275 2.06829 12.146 2.06829 12.146L4.85267 11.3674L4.8528 11.3672Z" fill="#CFB66C"/>
<path fill-rule="evenodd" clip-rule="evenodd" d="M4.85275 11.3672C4.62171 11.4352 4.39195 11.5013 4.15758 11.5635L3.46241 11.7498C3.23137 11.8178 3.00161 11.8839 2.77121 11.9518L2.42561 12.0469C2.31105 12.08 2.19457 12.109 2.07617 12.1422C2.1906 12.1038 2.30721 12.0645 2.42177 12.0314L2.76737 11.9208C2.99841 11.8489 3.22817 11.7809 3.45857 11.7091C3.69345 11.6509 3.92462 11.5887 4.1595 11.5324C4.38273 11.476 4.61774 11.4199 4.85275 11.3674V11.3672ZM2.21403 12.7868C2.32846 12.744 3.64891 12.1286 3.95572 11.9848C4.10932 11.9129 4.55579 11.7544 4.55579 11.7544L2.21403 12.7868Z" fill="#CFB66C"/>
<path fill-rule="evenodd" clip-rule="evenodd" d="M2.214 12.7868C2.31486 12.7484 2.41009 12.7014 2.50712 12.6567L2.79448 12.5227L3.37124 12.2451C3.56324 12.1538 3.74987 12.0531 3.94788 11.9673C4.04888 11.9247 4.14987 11.8897 4.25073 11.8567L4.40433 11.8082C4.45668 11.7946 4.50532 11.779 4.55793 11.7654C4.36593 11.8567 4.16382 11.9344 3.97156 12.0236C3.77956 12.1189 3.58321 12.1965 3.38507 12.2819L2.7987 12.5401C2.60184 12.6198 2.40984 12.7052 2.21387 12.7868H2.214ZM2.342 13.3244C2.342 13.3244 3.53803 12.6234 3.94967 12.3981C4.16523 12.2778 4.86232 11.9321 4.86232 11.9321L2.342 13.3244Z" fill="#CFB66C"/>
<path fill-rule="evenodd" clip-rule="evenodd" d="M2.34204 13.3246C2.5439 13.2003 2.74972 13.0741 2.95554 12.946L3.26274 12.7595C3.36758 12.6974 3.46857 12.6392 3.57545 12.5771C3.68028 12.5149 3.78127 12.4528 3.88802 12.3946C3.93884 12.3632 3.99209 12.3359 4.04726 12.313L4.21033 12.2315C4.42588 12.1267 4.64143 12.0198 4.86863 11.9285C4.66281 12.0587 4.4511 12.1694 4.23951 12.2839C4.13468 12.3421 4.0278 12.3946 3.92297 12.4528C3.81814 12.5111 3.71714 12.5733 3.61027 12.6296C3.50543 12.6917 3.40444 12.7499 3.29769 12.8062L2.98114 12.979L2.3423 13.3246H2.34204ZM4.85263 12.0857C4.85263 12.0857 4.10895 12.6566 3.86818 12.8391C3.62742 13.0216 2.91868 13.5343 2.91868 13.5343L4.85263 12.0857Z" fill="#CFB66C"/>
<path fill-rule="evenodd" clip-rule="evenodd" d="M9.12078 16.6896L8.74023 15.9692L8.96155 15.0682L10.5402 14.4586L9.8683 13.08L10.2003 11.6878L10.8237 10.441L12.75 10.1382L14.1654 8.7887L17.2218 9.01974L17.8217 12.2877L16.6664 16.4023L16.0082 18.5324L13.3402 18.6334L12.1014 17.7752L10.6509 17.1692L9.12078 16.6896Z" fill="#E2CC85"/>
<path fill-rule="evenodd" clip-rule="evenodd" d="M13.8005 16.6663C13.8005 16.6663 13.4315 16.8353 12.8021 16.7964C12.6199 16.5518 11.3443 16.4372 11.3443 16.4372C11.3443 16.4372 11.1851 16.3887 10.9035 16.5052C10.6201 16.6204 10.352 16.6062 10.1015 16.6683C9.85104 16.7303 9.60234 16.4042 9.41034 16.3362C9.21834 16.2644 8.96374 16.0916 8.96374 16.0916L8.42614 16.0391L7.34659 15.5828L5.63152 13.8741L5.16547 14.6037L5.02173 15.5067L5.54026 16.5766L6.93635 17.8484L9.65866 18.5396L11.2722 18.0642L13.2936 17.2098L13.8005 16.6662V16.6663Z" fill="#F1D789"/>
<path fill-rule="evenodd" clip-rule="evenodd" d="M4.1284 10.6275L4.474 9.58099L4.88577 8.90515L6.21185 8.79443L5.81377 9.95565L4.70516 11.9285L5.16532 13.6897L4.34984 14.0973L4.09921 13.713L3.89736 12.8314L3.88379 11.8411L4.1284 10.6275Z" fill="#F4ECB4"/>
<path fill-rule="evenodd" clip-rule="evenodd" d="M5.61585 16.5945L5.36151 16.2391C5.36151 16.2391 5.29355 16.0702 5.33246 15.9226C5.37086 15.7731 5.36535 15.7634 5.34603 15.707C5.3267 15.6507 5.1635 15.4565 5.17323 15.2895C5.18283 15.1205 5.15966 15.0642 5.28382 14.9303C5.41387 14.8003 5.37508 14.575 5.37508 14.575L5.54404 14.6798L5.58244 14.6216C5.58244 14.6216 5.64452 14.6701 5.64452 14.7459C5.65809 14.6411 5.60177 14.1556 5.7299 14.045C5.85803 13.9344 6.08523 14.5634 6.08523 14.5634L5.94545 13.6507L5.58615 12.7149L4.94731 11.8605L4.90891 10.9187V10.8372C4.90891 10.8372 4.61566 11.2877 4.53412 11.6436C4.47588 11.8882 4.61566 12.1853 4.5866 12.5367C4.56318 12.8863 4.53412 12.859 4.6195 12.9975C4.70487 13.136 4.91275 13.4208 4.83121 13.6267C4.7594 13.8034 4.51467 13.6791 4.51467 13.6791C4.51467 13.6791 4.46615 13.8228 4.40011 13.8752C4.37681 13.7899 4.35159 13.7355 4.305 13.6832C4.30103 13.7163 4.29143 13.7609 4.29143 13.7609C4.29143 13.7609 4.24868 13.6269 4.20593 13.458C4.14782 13.2328 4.08561 12.9357 4.02929 12.7765C4.00599 12.8678 3.94775 13.1454 3.94775 13.1454L3.98078 13.5726L4.14001 14.159L4.29361 14.543L4.44311 15.0129L4.57303 15.3286L4.67787 15.5693L4.76913 16.1111L5.20983 16.5771L5.44484 16.682L5.61559 16.5946L5.61585 16.5945Z" fill="#F3E19D"/>
<path fill-rule="evenodd" clip-rule="evenodd" d="M4.35949 9.77314C4.35949 9.77314 4.04294 10.3107 3.95181 10.8527C3.86067 11.3946 3.77901 11.9673 3.83661 12.7051C3.89485 13.4489 4.00557 13.9051 4.09491 14.2314C4.24851 14.7732 4.64633 15.5266 4.64633 15.5266L4.6599 15.4974C4.59303 15.3707 4.53966 15.2372 4.50067 15.0993C4.44819 14.8935 4.42873 14.6489 4.38022 14.5382C4.33747 14.4276 4.26566 14.3324 4.23072 14.1964C4.19769 14.0664 4.19232 13.8606 4.09094 13.7072C4.04819 13.645 3.99571 13.4819 3.98022 13.3189C3.96077 13.0741 3.98995 12.8003 3.96665 12.5752C3.9239 12.2004 3.89485 11.9461 3.93363 11.7498C3.97241 11.5536 4.17453 10.9966 4.29881 10.5538C4.38035 10.2703 4.33171 10.0314 4.48121 9.78478C4.63072 9.54018 4.72211 9.32462 4.75501 9.17512C4.79341 9.03918 4.35897 9.77314 4.35897 9.77314H4.35949Z" fill="#F2E8B0"/>
<path fill-rule="evenodd" clip-rule="evenodd" d="M5.86056 9.55762C5.86056 9.55762 5.69749 9.60626 5.6198 9.69163C5.5421 9.77317 5.50908 9.84114 5.40424 9.97899C5.29941 10.1168 5.29352 10.2295 5.20802 10.4023C5.12264 10.5712 4.93423 10.8256 4.91093 10.9168C4.88764 11.0081 4.84885 11.4352 4.80034 11.6372C4.75759 11.8392 4.84885 12.0878 4.84885 12.0878L4.95944 12.0644C4.95944 12.0644 4.95944 12.2081 5.07016 12.3053C5.18076 12.4004 5.20021 11.9828 5.20021 11.9828L5.61378 10.5867L6.23701 10.1634L6.30498 9.82168L5.86031 9.55762H5.86056Z" fill="#F5EEC0"/>
<path fill-rule="evenodd" clip-rule="evenodd" d="M6.16338 10.1907C6.16338 10.1907 5.87013 10.21 5.72651 10.315C5.66827 10.3576 5.64498 10.3925 5.5829 10.445C5.46834 10.5401 5.35173 10.6275 5.29554 10.7522C5.23333 10.8764 5.16536 11.0648 5.11877 11.4201C5.09931 11.5696 5.09931 11.7075 5.08574 11.8279C5.06629 11.991 5.03723 12.121 5.05272 12.2119C5.07218 12.3983 5.26443 12.4954 5.28312 12.707L5.6812 12.5052L6.05598 11.0274L6.85214 10.5282L6.40158 10.0234L6.16286 10.1898L6.16338 10.1907Z" fill="#E6DB9D"/>
<path fill-rule="evenodd" clip-rule="evenodd" d="M4.06336 20.1415C4.06502 20.1269 4.06669 20.1123 4.06835 20.0973C4.12646 19.5981 4.13632 19.2198 4.17894 18.9828C4.24102 18.647 4.28378 18.522 4.27405 18.3963C4.26048 18.1945 4.24499 18.0469 4.26445 17.8915C4.2935 17.6857 4.49549 17.4411 4.48973 17.2721C4.48576 17.1381 4.41779 17.0508 4.35955 16.9693C4.30131 16.8877 4.25472 16.8198 4.25472 16.8198C4.25472 16.8198 4.6528 16.546 4.64896 15.443C4.65709 15.4453 4.66491 15.4486 4.67226 15.4527L4.86835 16.0099L5.00237 16.173L5.51693 17.1322L6.17907 17.775L7.15763 18.4332L7.77126 19.101L7.83334 20.8816L7.03142 21.9224L6.9001 22.1602C5.85673 21.6364 4.89997 20.9555 4.06323 20.1414L4.06336 20.1415Z" fill="#E5CB7A"/>
<path fill-rule="evenodd" clip-rule="evenodd" d="M6.51294 21.845C6.51294 21.845 6.52651 21.6236 6.70904 21.4799C6.73822 21.5284 6.75755 21.5751 6.75179 21.6099C6.78481 21.5518 7.01585 21.179 7.53822 21.0818C8.06059 20.9867 8.1868 20.6062 8.1868 20.6062L9.2954 19.5984L10.5634 18.4315L12.1051 17.8896L12.8256 17.7129C12.8256 17.7129 12.8392 17.7653 12.8121 17.8818C12.946 17.8722 13.2431 17.8043 13.5518 17.6955C13.6761 17.6469 13.7927 17.6275 13.8548 17.6916C13.946 17.777 13.9596 17.979 13.9654 18.0993C14.1149 18.0663 14.2877 17.9227 14.4262 17.9362C14.6476 17.9595 14.8437 18.2197 15.069 18.2197C15.3661 18.2197 15.4999 18.0372 15.7078 17.8935C15.8321 17.8081 16.0107 17.7015 16.1117 17.6294C16.3524 17.4526 18.9 16.674 18.9 16.674L19.7932 16.7323L19.9369 17.6915L19.8601 20.199C19.8507 20.2081 19.8412 20.2176 19.8316 20.2267L15.7704 22.3477L10.141 23.2107C8.87995 23.0047 7.66306 22.5861 6.54212 21.9728L6.51332 21.8448L6.51294 21.845Z" fill="#D8C173"/>
<path fill-rule="evenodd" clip-rule="evenodd" d="M4.40466 20.4605C4.48466 20.2932 4.5566 20.1533 4.56927 20.1033C4.57925 20.2041 4.59756 20.4254 4.63442 20.6607C4.55703 20.5949 4.48044 20.5281 4.40466 20.4604V20.4605Z" fill="#F1D789"/>
<path fill-rule="evenodd" clip-rule="evenodd" d="M8.51701 22.8203L9.24507 22.6178L9.30715 22.6373C9.30715 22.6373 9.34018 22.6567 9.34018 22.7227C9.43144 22.6703 9.50914 22.6799 9.56546 22.6451C9.59451 22.7072 9.62357 22.913 9.75183 22.9382C9.88571 22.9674 10.0295 22.88 10.1751 22.7694C10.3187 22.6548 10.4823 22.5111 10.6061 22.4528C10.6515 22.5363 10.6917 22.6226 10.7265 22.711C10.8896 22.581 11.1731 22.0528 11.577 22.0624C11.6937 21.7866 11.8887 21.551 12.1379 21.3848C12.5127 21.1305 12.7475 21.111 13.0408 21.1343C13.1573 20.983 13.3008 20.8546 13.4641 20.7557C13.5126 20.7751 13.6466 20.8567 13.8137 20.779C13.9826 20.7014 14.1728 20.4004 14.4233 20.3616C14.5583 20.343 14.6955 20.3718 14.8117 20.4431C14.8117 20.4431 15.5413 19.7188 16.0447 19.478C16.0252 19.4198 15.9865 19.2004 16.5767 18.7149C16.6097 18.744 16.5864 18.8256 16.6097 18.8301C16.6193 18.8301 16.7633 18.768 16.9456 18.6281C17.1708 18.4592 17.4407 18.2825 17.6037 18.234C17.9109 18.1427 18.2368 18.3291 18.2368 18.3291C18.2645 18.3096 18.2954 18.2952 18.3281 18.2863C18.4057 18.2727 18.462 18.263 18.5047 18.2479C18.5009 18.3489 18.5572 18.5217 18.5047 18.6712C18.5655 18.7054 18.6299 18.7327 18.6967 18.7527C18.6638 18.8246 18.5919 19.0071 18.4716 19.0945C18.5724 19.143 18.586 19.1993 18.7297 19.2481C18.6715 19.3296 18.5761 19.4695 18.5337 19.5553C18.4909 19.6466 18.3374 20.0252 18.2695 20.1688C18.1976 20.3126 18.1006 20.5766 18.0539 20.6296C18.0072 20.6826 17.8384 20.9072 17.7083 21.0178C17.8235 20.9751 18.2948 20.8315 18.4947 20.7771C18.4352 20.8644 18.1335 21.312 17.8435 21.7424C16.4547 22.5748 14.9045 23.1017 13.2962 23.2878C11.6879 23.474 10.0583 23.3153 8.51611 22.8222L8.51701 22.8203Z" fill="#E0CD81"/>
<path fill-rule="evenodd" clip-rule="evenodd" d="M6.21146 10.1382C6.21146 10.1382 6.04263 10.1382 6.0096 10.1615C5.97658 10.1848 6.17856 10.2335 6.24064 10.2568C6.30272 10.2801 6.43674 10.3868 6.47168 10.4723C6.50471 10.5539 7.68525 11.0295 7.68525 11.0295L8.5202 10.9868L8.80807 10.5891L8.26048 10.1094L8.64448 8.97742L8.13581 9.05895L6.91252 9.78855L6.29888 10.0236L6.21146 10.1382Z" fill="#DFC57C"/>
<path fill-rule="evenodd" clip-rule="evenodd" d="M8.04504 10.513C8.05711 10.5326 8.07411 10.5486 8.09433 10.5595C8.11455 10.5704 8.13728 10.5758 8.16024 10.5751C8.33304 10.5751 8.49214 10.6179 8.55819 10.7052C8.66891 10.8451 8.97573 11.2917 8.97573 11.2917L9.70968 11.5557L9.75704 10.6915L8.95512 10.1343L8.04248 10.4701V10.5129H8.04453L8.04504 10.513Z" fill="#E5CC7C"/>
<path fill-rule="evenodd" clip-rule="evenodd" d="M7.90108 10.8334C7.90108 10.8334 8.03497 10.8431 8.20393 10.7809C8.37289 10.7187 8.65052 10.5848 8.77097 10.6373C8.93981 10.7091 8.90486 10.9344 9.08752 11.1365C9.19811 11.2608 9.40009 11.257 9.51465 11.391C9.62921 11.525 10.0233 11.4628 10.0233 11.4628L10.1728 12.2692L9.57289 13.0382L9.37667 13.9935H8.56541L7.82428 13.6994L7.45923 12.8162L7.64176 11.9231L7.90108 10.8334Z" fill="#D2C281"/>
<path fill-rule="evenodd" clip-rule="evenodd" d="M9.47034 10.8721C9.49046 10.8783 9.51137 10.8816 9.53242 10.8819C9.50913 10.9013 9.46049 10.944 9.47994 11.0547C9.4994 11.1654 9.56148 11.3052 9.50913 11.3905C9.55092 11.4362 9.58209 11.4906 9.60039 11.5498C9.63342 11.645 9.64314 11.7323 9.85857 11.746C9.82748 11.7651 9.79881 11.788 9.77319 11.814C9.77319 11.814 9.9227 11.944 9.99847 12.0643C10.076 12.061 10.2819 11.997 10.2819 11.997L10.3246 12.0262L10.4159 11.9878C10.4159 11.9878 10.3305 11.9548 10.3926 11.747C10.4508 11.5645 10.5033 11.5742 10.5078 11.5607C10.5123 11.5471 10.5505 11.3548 10.5505 11.2771C10.5796 11.1763 10.6029 10.8695 10.6029 10.8695L10.5408 10.1918L10.1914 9.98011L9.90721 9.70581L9.63918 10.2106L9.46266 10.3866L9.4491 10.8235L9.47034 10.8721Z" fill="#E2C270"/>
<path fill-rule="evenodd" clip-rule="evenodd" d="M10.311 10.3053C10.311 10.3053 10.3731 10.4819 10.3965 10.6178C10.4048 10.5914 10.4094 10.564 10.4101 10.5363C10.4101 10.5363 10.4586 10.8043 10.4682 10.9151C10.4877 10.9111 10.5066 10.9053 10.511 10.9247C10.5153 10.944 10.5596 11.1597 10.5494 11.28C10.6302 11.1466 10.7421 11.0347 10.8755 10.9538C10.9532 10.9052 11.0445 10.8528 11.1397 10.8489C11.2892 10.845 11.3979 10.9441 11.5766 10.9441C12.0075 10.9441 12.3979 10.6276 12.6853 10.5305C12.8969 10.4586 13.0794 10.4063 13.2075 10.2896C13.2698 10.2373 13.3805 10.1208 13.4813 9.94789C13.6154 9.71749 13.7551 9.51691 13.895 9.49169C13.8317 9.50332 13.7673 9.50787 13.703 9.50526C13.703 9.50526 13.7458 9.46251 13.8182 9.40427C13.8907 9.34603 13.9775 9.27422 14.1016 9.27422C14.3231 9.27422 14.4337 9.30712 14.5579 9.30712C14.6822 9.30328 14.754 9.27422 14.754 9.27422C14.754 9.27422 14.8842 9.36549 15.1773 9.36549C15.4706 9.36933 15.6667 9.39454 15.8202 9.40824C15.9736 9.42193 16.4881 9.36549 16.6356 9.36984C16.7319 9.37355 16.8263 9.39666 16.9134 9.43781L16.4376 8.05541L14.7286 6.56165L13.7111 7.28203L12.1459 8.84709L10.6314 9.40824L10.3149 9.76357V10.3053H10.311Z" fill="#CCB360"/>
<path fill-rule="evenodd" clip-rule="evenodd" d="M13.7092 9.51291C13.7092 9.51291 13.752 9.47028 13.8237 9.41204C13.8953 9.3538 13.983 9.28187 14.1072 9.28187C14.3285 9.28187 14.4392 9.31489 14.5635 9.31489C14.6878 9.31105 14.7596 9.28187 14.7596 9.28187C14.7596 9.28187 14.8899 9.373 15.1829 9.373C15.4761 9.37684 15.6722 9.40206 15.8257 9.41563C15.9792 9.4292 16.4936 9.373 16.6412 9.37723C16.7374 9.38085 16.8318 9.40397 16.9188 9.4452L16.7033 8.82184L16.4529 8.34619L15.7383 7.5636C15.7383 7.5636 14.8807 7.05876 14.8742 7.05492C14.8703 7.05108 14.5771 6.97339 14.5771 6.97339L13.8004 7.44328L13.0956 9.26664L13.082 9.65064L13.5382 9.86619C13.6528 9.67419 13.7791 9.52059 13.8975 9.50113C13.7906 9.51278 13.7091 9.51278 13.7091 9.51278L13.7092 9.51291Z" fill="#D5B457"/>
<path fill-rule="evenodd" clip-rule="evenodd" d="M13.6994 9.64306C13.6315 9.6469 13.5753 9.63333 13.5597 9.58482C13.5014 9.42175 13.4548 9.39845 13.4061 9.39845C13.3573 9.39845 13.2915 9.50328 13.2525 9.51288C13.2134 9.52248 13.1671 9.39256 13.1671 9.39256L13.1243 9.37311C13.1243 9.37311 12.8738 9.53618 12.6972 9.72844C12.5206 9.92069 12.2312 10.247 12.1011 10.3051C11.9711 10.3632 11.5243 10.3828 11.3715 10.4158C11.2187 10.4488 11.0492 10.5595 11.0259 10.5848C11.0026 10.61 11.094 10.6371 11.1076 10.6623C11.1211 10.6856 10.9579 10.6759 10.9444 10.7007C10.9348 10.7202 10.9828 10.8308 11.0066 10.8871C11.0482 10.8664 11.0939 10.8551 11.1405 10.8541C11.29 10.8502 11.3988 10.9493 11.5773 10.9493C12.0084 10.9493 12.3987 10.6328 12.6861 10.5356C12.8978 10.4638 13.0803 10.4113 13.2084 10.2948C13.2705 10.2425 13.3812 10.1259 13.4822 9.95308C13.556 9.83468 13.6279 9.72396 13.6998 9.64242L13.6994 9.64306Z" fill="#D2B257"/>
<path fill-rule="evenodd" clip-rule="evenodd" d="M7.517 19.2528C7.517 19.2528 7.4786 19.109 7.12276 18.7382C7.02177 18.6334 6.95969 18.5462 6.89172 18.4839C6.72276 18.3245 6.62369 18.2819 6.50337 18.1906C6.23931 17.9945 5.95195 17.9945 5.73064 17.7538C5.50932 17.513 5.2514 17.053 5.0722 16.5828C4.89556 16.1129 4.84692 15.9634 4.84692 15.9499C4.84692 15.9363 4.89556 15.845 4.95764 15.8586C5.01972 15.8722 5.01972 15.9925 5.03534 16.0217C5.06627 16.0693 5.10135 16.1141 5.14017 16.1556C5.23144 16.2605 5.36148 16.386 5.42753 16.5731C5.41396 16.4139 5.35956 16.2372 5.35956 16.2372C5.35956 16.2372 5.70132 16.4528 5.99252 16.6779C6.28577 16.9032 6.40609 16.9809 6.49172 17.1245C6.57736 17.2681 6.77908 17.6469 6.87572 17.7576C6.97236 17.8683 8.29652 18.2857 8.29652 18.2857L8.92641 18.7554L9.23912 19.4408L8.99438 19.8248L8.52449 19.9258L7.76136 19.5841L7.517 19.2527V19.2528Z" fill="#D2B159"/>
<path fill-rule="evenodd" clip-rule="evenodd" d="M5.82166 16.8916C5.82166 16.8916 5.98089 17.146 6.36924 17.3867C6.71881 17.5984 7.27215 17.7907 7.76546 17.9053C8.04885 17.9732 8.33238 18.0256 8.58671 18.0295C9.27215 18.0391 9.74396 17.8432 10.3285 17.779C10.6451 17.746 11.0334 17.7208 11.4373 17.6254C11.9557 17.5012 12.2625 17.3613 12.68 17.1646C12.9829 17.0249 13.2606 16.92 13.4858 16.786C13.8023 16.5997 14.0334 16.3919 14.3014 16.3298C14.2684 16.4211 14.2334 16.5842 13.9694 16.7531C14.1091 16.7492 14.3014 16.7396 14.3014 16.7396C14.3014 16.7396 14.115 16.8502 13.7868 17.0987C13.5849 17.2523 13.317 17.5123 13.0432 17.6851C12.8664 17.7958 12.6741 17.8771 12.5479 17.9434C12.2407 18.1124 12.1168 18.1977 11.915 18.4042C11.9868 18.4004 11.9927 18.4042 11.9927 18.4042C11.9927 18.4042 11.7382 18.4372 11.5558 18.5342C11.5174 18.5342 11.4508 18.5207 11.3344 18.5537C11.2431 18.5828 11.1226 18.6489 10.9985 18.6838C10.8217 18.7362 10.7636 18.7129 10.7636 18.7129L10.7927 18.7712C10.7927 18.7712 10.5623 18.7672 10.4855 18.775C10.499 18.7789 10.4952 18.7847 10.4952 18.7847C10.4817 18.787 10.4687 18.7916 10.4568 18.7983C10.4198 18.8223 10.3792 18.8399 10.3365 18.8507C10.3132 18.8545 10.2937 18.8545 10.2645 18.8604C10.2743 18.8837 10.35 19.014 10.385 19.0908C10.3559 19.1102 9.91894 19.4404 9.91894 19.4404C9.93249 19.4617 9.94357 19.4845 9.95196 19.5083C9.96553 19.551 9.97142 19.6132 9.98498 19.6422C10.0179 19.7005 10.0373 19.7102 10.0373 19.7102C10.0373 19.7102 9.98498 19.7199 9.89359 19.7432C9.81602 19.7627 9.72079 19.7956 9.58639 19.815C9.54515 19.8204 9.50367 19.8236 9.4621 19.8247C9.48156 19.8675 9.56693 20.0306 9.40962 20.2189C9.25231 20.4071 9.2038 20.4345 9.15529 20.5549C9.13087 20.5364 9.10487 20.5201 9.07759 20.5062C9.02524 20.4829 8.9533 20.4481 8.92809 20.4014C8.91339 20.4636 8.89392 20.5247 8.86985 20.5839C8.82134 20.714 8.74953 20.8422 8.73596 20.9392C8.68348 20.881 8.58646 20.7664 8.45244 20.7897C8.31842 20.813 8.21167 20.9956 8.18838 21.048C8.18838 21.015 8.16508 20.9898 8.15932 21.0286C8.15535 21.0713 8.08162 21.5178 7.66998 21.879C7.66614 21.7878 7.66614 21.5858 7.65641 21.5198C7.61801 21.5582 7.57103 21.615 7.29135 21.7354C7.01756 21.8557 7.06095 21.9762 7.06095 21.9762C7.06095 21.9762 7.03766 21.7842 7.18524 21.5819C7.33474 21.3801 7.42601 21.2848 7.42601 21.2694C7.42359 21.2536 7.41686 21.2388 7.40655 21.2266C7.3871 21.2071 7.34831 21.1839 7.34831 21.1684C7.37161 21.1588 7.60265 21.048 7.58908 20.8188C7.57551 20.6131 7.48822 20.5062 7.42601 20.4306C7.41641 20.4208 7.5174 20.349 7.5037 20.3257C7.49398 20.3122 7.36982 20.2208 7.3542 20.1721C7.35787 20.1431 7.36439 20.1145 7.37366 20.0868C7.38722 20.044 7.39695 20.0148 7.39311 19.9858C7.38338 19.9373 7.3309 19.8032 7.31542 19.7897C7.32898 19.7935 7.42601 19.7897 7.42601 19.7897C7.42601 19.7897 7.34844 19.6654 7.33474 19.6071C7.32105 19.5489 7.29199 19.3954 7.2765 19.3664C7.30953 19.3702 7.39106 19.376 7.39106 19.3664C7.39503 19.3372 7.31925 19.2887 7.35266 19.2512C7.37596 19.255 7.42063 19.2745 7.46326 19.3289C7.43996 19.2667 7.40118 19.1463 7.31951 19.0978C7.35791 19.0843 7.48847 19.0492 7.60303 19.1172C7.71759 19.1851 7.75663 19.2802 7.75663 19.2802C7.75663 19.2802 7.8246 19.3327 7.92956 19.4104C8.04988 19.5055 8.20322 19.6408 8.44796 19.7366C8.50044 19.7657 8.63433 19.7657 8.73148 19.7463C8.77378 19.7362 8.81434 19.7199 8.8518 19.6978C8.86533 19.6898 8.87966 19.6833 8.89455 19.6783C8.87368 19.6364 8.84967 19.5962 8.82274 19.5579C8.85577 19.5579 8.89455 19.5618 8.89455 19.5618C8.89455 19.5618 8.91785 19.5094 8.81302 19.4082C8.83631 19.3849 8.86549 19.3698 8.86549 19.3305C8.83247 19.3267 8.77423 19.2782 8.76066 19.2587C8.77999 19.2452 8.80918 19.2005 8.8422 19.1869C8.81302 19.1636 8.74121 19.0665 8.70818 19.0569C8.73973 19.0452 8.77026 19.0309 8.79945 19.0141C8.79945 19.0141 8.63637 18.9714 8.58389 18.9364C8.53141 18.898 8.45385 18.8316 8.40725 18.8121C8.35861 18.7927 8.27324 18.7831 8.23829 18.7442C8.27119 18.7539 8.32367 18.7442 8.36258 18.7442C8.39164 18.7442 8.40534 18.748 8.41494 18.748C8.4111 18.7344 8.4111 18.7053 8.48687 18.6957C8.52332 18.6902 8.55869 18.679 8.5917 18.6626C8.5917 18.6626 8.51977 18.6588 8.4381 18.5811C8.35644 18.5034 8.2886 18.4413 8.24201 18.4316C8.1935 18.4219 8.10223 18.4646 8.04591 18.4606C7.96822 18.451 7.93519 18.4121 7.93519 18.4121C7.93519 18.4121 7.67702 18.4354 7.10422 18.086C6.60898 17.783 6.39343 17.5151 6.39343 17.5151C6.34709 17.4983 6.30229 17.4775 6.25954 17.4529C6.07318 17.3559 5.81487 17.1539 5.82268 16.8897L5.82166 16.8916Z" fill="#C2A44D"/>
<path fill-rule="evenodd" clip-rule="evenodd" d="M12.9653 5.2372C13.0103 5.25179 13.0502 5.27871 13.0805 5.31489C13.1718 5.41972 13.23 5.61774 13.0223 5.82945C13.1038 5.85851 13.1375 5.86785 13.2087 5.85851C13.1369 5.94401 12.9738 6.12654 12.9641 6.28577C12.9543 6.41582 13.0359 6.45473 13.0359 6.45473C13.0359 6.45473 12.9116 6.59835 12.9058 6.83873C12.9645 6.77254 13.0287 6.71148 13.0978 6.6562C13.2416 6.54164 13.4396 6.4116 13.5736 6.33006C13.5718 6.36423 13.5764 6.39845 13.5872 6.43092C13.5872 6.43092 13.8375 6.2251 14.048 6.31649C14.1431 6.35924 14.1003 6.49313 14.1003 6.49313C14.1003 6.49313 14.2305 6.44462 14.3218 6.53588C14.413 6.62715 14.542 6.86254 14.6082 6.9538C14.6373 6.99656 14.7131 7.07809 14.7906 7.2043C14.8966 7.381 14.9851 7.56761 15.0548 7.76148C15.0587 7.66049 15.0839 7.50331 15.3714 7.60225C15.6587 7.70324 15.9849 7.91496 16.2587 8.33185C16.5324 8.74875 16.6003 9.2194 16.7381 9.3986C16.8779 9.5714 17.0217 9.85876 17.0314 9.97921C17.0411 10.0997 16.9886 10.4879 17.276 11.5384C17.3575 11.2122 17.4818 10.4879 17.4818 10.4879L17.5498 9.84904L17.6275 7.87233L15.5634 6.15752L13.9498 4.98657L12.8993 5.08756L12.9652 5.23707L12.9653 5.2372Z" fill="#CAA13E"/>
<path fill-rule="evenodd" clip-rule="evenodd" d="M16.8004 8.1789C16.8004 8.1789 16.7712 7.9869 16.2858 7.6605C15.8003 7.33819 15.4217 7.33819 15.0723 7.0644C14.8042 6.84885 14.5247 6.35362 14.3427 6.19054C14.1659 6.02939 14.1368 5.56334 14.1368 5.56334L14.7329 5.06414L15.6195 3.78274L16.3689 2.95752L16.7281 3.45672L17.2273 4.04309L17.5049 5.21979L17.6059 6.94216L16.7995 8.17902L16.8004 8.1789Z" fill="#B59544"/>
<path fill-rule="evenodd" clip-rule="evenodd" d="M17.4004 10.2434C17.4151 9.98223 17.3828 9.72051 17.3052 9.47069C17.1772 9.07261 16.8975 8.3658 16.7676 8.10109C16.7151 7.80785 16.754 7.78455 16.8103 7.75153C16.8666 7.7185 17.0783 7.59793 17.1943 7.17489C17.3103 6.75185 17.6701 6.73802 17.6701 6.73802L17.8914 6.57495L18.2274 7.41566L18.5205 8.17495L18.6118 8.75556L18.6797 9.25066L18.5205 10.2973L17.7342 11.008L17.4003 10.2434H17.4004Z" fill="#C89D3A"/>
<path fill-rule="evenodd" clip-rule="evenodd" d="M6.42761 21.9092V21.8877C6.44395 21.8775 6.45838 21.8645 6.47024 21.8493C6.4838 21.8298 6.49366 21.8065 6.50326 21.8008C6.52272 21.791 6.61398 21.7624 6.66249 21.7716C6.711 21.7808 6.83926 21.8336 6.90723 21.8298C7.047 21.826 7.21008 21.7191 7.46838 21.7677C7.85673 21.8395 7.948 22.1036 8.17328 22.2531C8.32688 22.3581 8.48585 22.3113 8.50915 22.3113H8.5615C8.57123 22.3113 8.64304 22.2298 8.68195 22.2338C8.75964 22.2376 8.76732 22.3017 8.81584 22.3056C8.9304 22.3192 9.15184 22.2473 9.26256 22.2765C9.29539 22.2868 9.32524 22.3049 9.34958 22.3292C9.37392 22.3535 9.39202 22.3834 9.40233 22.4162C9.42563 22.488 9.40617 22.5793 9.34985 22.6317C9.22953 22.7423 9.11497 22.8473 9.09168 22.9389C9.12131 22.9615 9.14976 22.9856 9.17692 23.0111C8.21618 22.7663 7.29181 22.3962 6.42761 21.9103V21.9092Z" fill="#CEB052"/>
<path fill-rule="evenodd" clip-rule="evenodd" d="M16.7673 18.0295C16.7673 18.0295 17.0702 17.6257 17.1751 17.4256C17.28 17.2194 16.8431 14.6082 16.8431 14.6082L17.7208 11.7326L17.6974 10.7966C17.6974 10.7966 17.7401 9.9325 17.8411 9.55772C17.9616 9.77327 18.3364 10.0335 18.4179 10.1714C18.4563 9.90716 18.5867 9.34997 18.5674 8.7558C18.6392 8.86639 18.812 9.97909 18.812 9.97909L18.9848 10.7285L19.2101 11.5247L19.4606 12.3655L19.6101 12.9461L19.6955 13.0859L19.7674 13.3305L19.8354 13.5947L20.0315 14.2141L20.1467 14.7228L20.2379 15.6451C20.2578 15.7158 20.2721 15.7878 20.2807 15.8607C20.2845 15.9617 20.2671 16.0199 20.2671 16.0375C20.2671 16.055 20.3001 16.2588 20.2866 16.4122C20.2671 16.5658 20.2671 16.686 20.1467 16.7962C20.0262 16.9065 19.9506 17.5651 19.9506 17.5651L19.735 17.4215C19.735 17.4215 19.7778 17.2253 19.6768 17.0467C19.5758 16.8682 19.3797 16.8312 19.269 16.8604C19.1584 16.8837 18.9371 16.9185 18.8651 16.9807C18.7972 17.0428 18.6302 17.235 18.4768 17.3225C18.2848 17.4377 17.9719 17.4467 17.805 17.4855C17.6361 17.5239 17.4497 17.6391 17.2535 17.7729C17.0996 17.8725 16.9372 17.9582 16.7681 18.0289L16.7673 18.0295Z" fill="#CCA847"/>
<path fill-rule="evenodd" clip-rule="evenodd" d="M16.7673 22.2722C16.7673 22.2722 16.7801 22.2805 16.8048 22.2941C18.1844 21.6477 19.4204 20.7316 20.44 19.5997C20.4289 19.2067 20.4144 18.8039 20.3986 18.6546C20.3657 18.3381 20.389 18.0158 20.3792 17.8294C20.3695 17.643 20.2647 16.8838 20.2162 16.6877C20.1637 16.4916 20.0626 16.3944 20.0472 16.3944C20.0336 16.3984 19.952 16.7634 19.952 16.8552C19.952 16.947 19.9325 17.1679 19.9325 17.2242C19.9189 17.2203 19.9132 17.1858 19.9132 17.1718C19.8937 17.2203 19.8704 17.3058 19.8607 17.3155C19.851 17.3252 19.8743 17.234 19.8607 17.2145C19.8471 17.195 19.8223 17.2048 19.8277 17.1563C19.83 17.1275 19.8345 17.099 19.8413 17.0709C19.8413 17.0709 19.783 17.1563 19.7404 17.3737C19.6976 17.5893 19.6976 17.5952 19.6821 17.6145C19.6686 17.6379 19.5909 17.7155 19.5869 17.7447C19.5831 17.797 19.6589 17.8495 19.6646 17.8786C19.6685 17.9272 19.5966 18.1524 19.5733 18.2626C19.5501 18.3728 19.5598 18.5887 19.5349 18.6994C19.5155 18.8004 19.4965 18.8587 19.4301 18.9013C19.4786 18.911 19.5252 18.9246 19.5252 18.9246C19.5252 18.9246 19.5932 19.2119 19.4204 19.4567C19.3583 19.5421 19.3428 19.581 19.2768 19.6587C19.1466 19.8023 19.0456 19.9659 19.0359 20.0722C19.0292 20.0408 19.0246 20.009 19.0223 19.977C19.0223 19.977 18.8205 20.212 18.7349 20.346C18.6244 20.5188 18.4709 20.5091 18.4277 20.5518C18.3846 20.5946 18.3753 20.6722 18.3893 20.7344C18.3509 20.744 18.2788 20.7577 18.2301 20.9072C18.2068 20.9847 18.1486 21.0608 18.0573 21.113C17.9661 21.1652 17.8553 21.181 17.799 21.1945C17.8475 21.2081 17.867 21.2081 17.8903 21.2236C17.8612 21.2721 17.7272 21.3479 17.5777 21.445C17.4282 21.5363 17.3563 21.6702 17.3194 21.7576C17.281 21.8391 17.2243 21.8916 17.133 21.9014C17.1714 21.9246 17.2283 21.9789 17.2573 21.9965C17.2146 22.0062 17.1421 22.0062 17.0127 22.1169C16.8768 22.2295 16.8302 22.2626 16.768 22.2723L16.7673 22.2722Z" fill="#C39D3C"/>
<path fill-rule="evenodd" clip-rule="evenodd" d="M14.0656 23.1721C14.1399 23.12 14.2205 23.0773 14.3053 23.045C14.6082 22.9247 14.9286 22.9014 15.0548 22.8626C15.1752 22.8242 15.2703 22.7712 15.4198 22.7421C15.4159 22.7762 15.4125 22.8082 15.4089 22.8384C14.9682 22.9769 14.5193 23.0884 14.0649 23.1721H14.0656Z" fill="#D2BA6B"/>
<path fill-rule="evenodd" clip-rule="evenodd" d="M19.6514 15.2063C19.6514 15.2063 19.5893 15.5422 19.4786 15.7539C19.3679 15.9656 19.2482 16.2587 19.2482 16.2587C19.2489 16.1926 19.2567 16.1269 19.2715 16.0625C19.1317 16.144 18.7919 16.3402 18.6955 16.4275C18.6042 16.5091 18.4507 16.6528 18.412 16.7208C18.5032 16.4529 18.5983 16.2121 18.6139 16.1014C18.4742 16.2024 17.8216 16.7402 17.4819 17.0956L16.4236 17.9519C16.3015 18.0178 16.1757 18.0767 16.0469 18.1283C15.8645 18.2058 15.649 18.2719 15.4897 18.3341C15.5325 18.2195 15.6003 18.1184 15.6955 18.0214C15.7965 17.9263 16.0994 17.5981 16.146 17.4454C16.1887 17.2862 16.1985 17.191 16.1421 17.057C16.0897 17.0706 15.9693 17.0765 15.8878 17.0998C15.8063 17.1231 15.7188 17.2104 15.7188 17.2104C15.7188 17.2104 15.7809 16.855 15.9149 16.5192C15.8139 16.523 15.6411 16.5521 15.6411 16.5521C15.6411 16.5521 15.8819 16.1482 16.2939 15.8668C16.1678 15.8936 16.0443 15.9319 15.925 15.9812C15.6843 16.0822 15.4202 16.2317 15.2241 16.3132C15.3347 16.1596 16.1114 15.0511 16.5736 14.0181C17.0344 12.987 17.2066 12.723 17.3076 12.1696C17.3599 11.8958 17.346 11.4912 17.3599 11.1288C17.3735 10.7695 17.4182 10.4472 17.3891 10.2317C17.5094 10.3812 17.96 10.8026 17.9755 11.7444C17.989 12.6861 17.5445 13.958 17.0726 14.6433C17.1878 14.6764 17.4863 14.7153 17.793 14.1825C18.0996 13.6498 18.0959 13.5011 18.2066 13.2796C18.2202 13.3903 18.2162 13.4291 18.2162 13.4291C18.2162 13.4291 18.663 12.8874 18.8746 12.2058C18.9173 12.4991 19.0435 12.7574 18.8454 13.2952C18.6687 13.7806 18.4377 13.8991 18.4377 13.8991C18.4377 13.8991 18.5522 13.8797 18.7211 13.7787C18.7503 13.8505 18.7445 13.9323 18.793 13.9612C18.8415 13.9902 18.9076 14.0389 18.9173 14.0855C18.9697 14.0078 19.0512 13.9087 19.0765 13.835C19.0571 13.9886 19.0435 14.6602 19.1149 15.002C19.2646 14.9884 19.4179 14.9787 19.5227 14.7087C19.4509 14.9729 19.4509 15.132 19.4994 15.3573C19.5791 15.303 19.6509 15.2059 19.6509 15.2059L19.6514 15.2063Z" fill="#C0993A"/>
<path fill-rule="evenodd" clip-rule="evenodd" d="M14.6061 4.50328C14.6061 4.50328 14.4566 4.56536 14.2023 4.56536C13.981 4.56536 14.0431 4.47998 13.6975 4.47998C13.1655 4.47998 11.3072 4.78718 10.9809 4.78283C10.7692 4.77899 11.6954 4.87409 11.6954 4.87409L14.0625 4.90712L14.5382 4.86872L14.7149 4.50904L14.6061 4.50328Z" fill="#A88F33"/>
<path fill-rule="evenodd" clip-rule="evenodd" d="M8.4683 9.13046C8.4683 9.13046 8.16532 9.3615 8.03719 9.53827C7.90907 9.71504 7.8411 9.83139 7.69543 9.97513C7.72963 9.97644 7.76379 9.97185 7.79643 9.96157C7.79643 9.96157 7.79643 9.99997 7.77313 10.0101C7.79326 10.0078 7.81364 10.0101 7.83278 10.0167C7.85191 10.0234 7.86932 10.0342 7.88372 10.0485C7.84097 10.0718 7.72449 10.1884 7.81575 10.3262C7.88372 10.4311 8.02747 10.4407 8.02747 10.4407C8.02747 10.4407 7.99444 10.5359 8.1323 10.5262C8.42939 10.5126 8.76142 10.3824 8.91476 10.4155C9.06836 10.4539 9.15566 10.4679 9.26433 10.6563C9.37953 10.8427 9.47988 10.8719 9.47988 10.8719C9.47988 10.8719 9.54785 10.699 9.53236 10.4408C9.58809 10.3016 9.61898 10.1538 9.62363 10.0039L9.52263 9.26025L9.08193 8.70294L8.51105 9.01949L8.4683 9.13008V9.13046Z" fill="#E3C571"/>
<path fill-rule="evenodd" clip-rule="evenodd" d="M9.01001 9.01971C9.01001 9.01971 9.05276 9.1207 9.23145 9.1303C9.21199 9.17305 9.21199 9.17894 9.21788 9.21183C9.22172 9.24486 9.22748 9.29337 9.22748 9.29337C9.24715 9.28385 9.26494 9.27084 9.27996 9.25497C9.28969 9.29772 9.27023 9.36556 9.27996 9.4142C9.28596 9.44378 9.29573 9.47248 9.30902 9.49958C9.31185 9.49294 9.3151 9.48648 9.31875 9.48025C9.32259 9.47052 9.35715 9.58508 9.45276 9.67225C9.45268 9.65885 9.45598 9.64564 9.46236 9.63385C9.46383 9.6582 9.47188 9.68169 9.48566 9.70182C9.4785 9.69841 9.47197 9.69382 9.46633 9.68825C9.46633 9.68825 9.47593 9.99545 9.52841 10.1543C9.53718 10.144 9.54498 10.133 9.55171 10.1213C9.55171 10.1117 9.54787 10.2068 9.53814 10.2749C9.52457 10.3428 9.5343 10.4379 9.5343 10.4379C9.56931 10.4104 9.60778 10.3875 9.64873 10.37C9.70697 10.3466 9.80233 10.2747 9.86044 10.1155C9.89415 10.0253 9.92015 9.93246 9.93814 9.83788C9.95691 9.87403 9.96987 9.9129 9.97654 9.95308C9.98051 10.0016 10.0718 9.97638 10.0718 9.97638L10.0912 9.76467L10.2064 9.28505L10.3113 8.98796L10.8161 8.20166L11.7282 7.49919L12.5244 7.68172L13.1961 6.76908L12.0389 6.07391L10.9437 6.18847L9.94979 7.56511L9.15375 8.81375L9.01001 9.01958V9.01971Z" fill="#D8B65B"/>
<path fill-rule="evenodd" clip-rule="evenodd" d="M14.7459 7.02755C14.7459 7.02755 14.6779 7.04112 14.4818 7.14275C14.2857 7.24438 14.1498 7.27664 14.074 7.42614C13.9983 7.57565 13.9925 7.69417 13.9925 7.69417C13.9925 7.69417 14.1265 7.63593 14.2042 7.61648C14.2857 7.59715 14.377 7.60291 14.3673 7.63593C14.3579 7.65858 14.345 7.67955 14.3289 7.69801C14.3289 7.69801 14.4825 7.69417 14.4784 7.76995C14.4743 7.84573 14.4493 7.92918 14.4203 7.96605C14.3911 8.00445 14.2708 8.06128 14.2572 8.10595C14.2242 8.19721 14.2708 8.20105 14.2532 8.27478C14.2397 8.34672 14.1757 8.48649 13.9659 8.7311C13.7503 8.97584 13.6587 9.14864 13.6587 9.14864C13.6587 9.14864 13.5538 8.95254 13.4994 8.78358C13.461 8.80291 13.2548 8.91747 13.2548 8.91747L12.7771 7.25347L12.7867 7.14275C12.7867 7.14275 12.8295 7.0904 12.8392 6.99325C12.7674 6.96995 12.7577 6.95049 12.6625 6.85936C12.5672 6.76822 12.4897 6.65737 12.3305 6.5816C12.3073 6.53885 12.2781 6.48073 12.1616 6.45731C12.0451 6.43389 11.9752 6.41469 11.9752 6.41469C11.9752 6.41469 12.0373 6.39126 12.0665 6.34275C11.9945 6.35248 11.9364 6.37577 11.7791 6.37193C11.6199 6.36797 11.6024 6.36221 11.5151 6.37577C11.4278 6.38934 11.3231 6.42825 11.284 6.29424C11.2413 6.26121 11.15 6.2904 11.0723 6.40483C10.9946 6.51926 10.9675 6.61065 10.818 6.65533C10.8075 6.72123 10.7844 6.7845 10.75 6.84169C10.7073 6.91363 10.6393 6.98544 10.548 7.09219C10.4043 7.26115 10.4276 7.53878 10.1985 7.75049C9.96741 7.96208 10.2369 7.164 10.2369 7.164L10.6057 6.2808L11.6562 5.2536L13.2873 5.14301L13.4466 5.98781L14.2427 6.2616L14.7457 7.02857L14.7459 7.02755Z" fill="#D3AE4D"/>
<path fill-rule="evenodd" clip-rule="evenodd" d="M15.0043 7.21396L14.3189 6.22567L13.8393 5.85665C13.8393 5.85665 13.4975 5.22765 13.4742 5.2082C13.4548 5.19463 13.1325 5.15969 12.9266 5.14612L12.965 5.24122C13.01 5.25581 13.0499 5.28274 13.0802 5.31892C13.1715 5.42375 13.2297 5.62177 13.022 5.83348C13.1035 5.86253 13.1372 5.87188 13.2084 5.86253C13.1366 5.94804 12.9735 6.13057 12.9638 6.2898C12.954 6.41985 13.0356 6.45863 13.0356 6.45863C13.0356 6.45863 12.9113 6.60237 12.9055 6.84263C12.9642 6.77644 13.0284 6.71538 13.0975 6.6601C13.2413 6.5449 13.4393 6.41537 13.5733 6.33383C13.5715 6.36805 13.5761 6.4023 13.5869 6.43482C13.5869 6.43482 13.8372 6.229 14.0477 6.32026C14.1428 6.36301 14.1 6.49703 14.1 6.49703C14.1 6.49703 14.2302 6.44852 14.3215 6.53978C14.4127 6.63105 14.5428 6.86593 14.6088 6.95732C14.6379 7.00007 14.7136 7.08161 14.7912 7.20769C14.8972 7.38441 14.9857 7.57107 15.0554 7.765C15.0592 7.6873 15.0749 7.57863 15.209 7.57863L15.0051 7.21357L15.0043 7.21396Z" fill="#CAA13E"/>
<path fill-rule="evenodd" clip-rule="evenodd" d="M4.72859 10.0217C4.72859 10.0217 4.68008 9.90128 4.72859 9.6664C4.7771 9.43152 4.85288 9.3208 4.8781 8.9752C4.90331 8.6296 5.12859 8.19849 5.12859 8.19849L5.75182 7.9151L6.19266 8.03542L6.3227 8.62576L5.76539 8.93296C5.76539 8.93296 5.73634 9.063 5.57902 9.16784C5.42171 9.27267 5.20424 9.3542 5.15189 9.46108C5.12059 9.52653 5.09775 9.59569 5.08392 9.66691C5.08392 9.66691 4.92469 9.63388 4.82958 9.73872C4.72859 9.8456 4.73243 9.9407 4.72859 10.0222V10.0217Z" fill="#F4EFC8"/>
<path fill-rule="evenodd" clip-rule="evenodd" d="M5.98672 9.8644C5.98672 9.8644 5.93424 9.89743 5.89545 9.9796C5.85705 9.91752 5.76528 9.5485 5.76144 9.21647C5.7576 8.88444 5.73776 8.80213 5.81456 8.6877C5.89136 8.57327 6.19254 8.45269 6.14979 8.24661C6.10704 8.05051 5.92835 7.96898 5.70896 8.0253C5.55536 8.0637 5.44105 8.39035 5.28182 8.55343C5.16137 8.67771 5.01776 8.65826 4.97897 8.72623C4.92649 8.81749 4.97501 8.90876 4.95952 8.967C4.95555 8.98645 4.90704 9.09128 4.81961 9.21749C4.64297 9.47183 4.34397 9.83112 4.30505 10.1534C4.31862 9.9709 4.30902 9.96706 4.35753 9.76507L4.32835 9.71656L4.52035 9.08744L4.64464 8.56904L4.9224 7.70095L5.41161 6.81365L5.88739 6.28156L6.38249 6.31458L6.44073 7.05826L6.72425 8.45448L7.32035 9.18844L6.36496 9.83138L5.98633 9.8644H5.98672Z" fill="#EBCC73"/>
<path fill-rule="evenodd" clip-rule="evenodd" d="M6.28386 10.1282C6.28386 10.1282 6.20232 10.1477 6.17314 10.1322C6.14396 10.1167 6.11503 10.0992 6.12463 10.0797C6.13423 10.0603 6.18671 10.0274 6.18671 10.0117C6.18779 9.99764 6.18332 9.98366 6.17426 9.97279C6.16521 9.96191 6.15227 9.955 6.1382 9.95351C6.09352 9.94775 6.07996 9.9768 6.07996 9.9768C6.07996 9.9768 6.0372 9.94391 6.00239 9.9384C6.02299 9.93588 6.04371 9.93455 6.06447 9.93443C6.01081 9.91013 5.95389 9.89378 5.89551 9.88592C5.94402 9.85687 6.03925 9.77136 6.10133 9.77136C6.16341 9.77136 6.20232 9.76176 6.1926 9.72874C6.18287 9.69571 6.13436 9.6472 6.082 9.62775C6.10133 9.60445 6.11503 9.56951 6.06844 9.47415C6.0198 9.37904 6.03925 9.31491 6.05487 9.29175C6.06844 9.26256 6.11695 9.21021 6.14024 9.17719C6.16354 9.14416 6.183 9.09949 6.22178 9.07619C6.24124 9.06263 6.30332 9.03779 6.36552 9.01411C6.43349 8.99082 6.48981 8.96163 6.5286 8.99082C6.57135 9.01987 6.55189 9.05879 6.55189 9.05879C6.55189 9.05879 6.68591 9.01015 6.80623 9.07235C6.92668 9.13047 7.21992 9.16746 7.21992 9.16746L7.32501 9.37917L6.62984 9.97527L6.34248 10.119L6.28424 10.1286L6.28386 10.1282Z" fill="#E5C66B"/>
<path fill-rule="evenodd" clip-rule="evenodd" d="M7.2489 9.15377C7.2489 9.15377 7.03335 9.29752 6.98484 9.34987C7.0139 9.35384 7.06241 9.37329 7.04295 9.40235C7.01966 9.4314 6.87988 9.5324 6.80219 9.62763C6.72065 9.72273 6.64295 9.84318 6.61582 9.90142C6.58676 9.95377 6.36532 10.1072 6.28967 10.1266C6.4489 10.1266 6.76929 9.93048 6.88961 9.93048C6.88577 9.98872 6.92263 10.0548 6.9906 10.0605C7.05857 10.0663 7.25467 10.1033 7.51873 9.9402C7.78279 9.78097 7.6955 9.66244 7.80609 9.58488C8.0178 9.44497 8.10318 9.32068 8.21966 9.24312C8.33614 9.16555 8.39643 9.14788 8.39643 9.14788C8.39643 9.14788 8.40026 9.08964 8.43482 9.09553C8.44428 9.09662 8.45327 9.10027 8.4608 9.10609C8.46834 9.11191 8.47414 9.11968 8.47758 9.12856C8.47758 9.12856 8.67956 8.98481 8.93838 8.94603C8.93234 8.94333 8.92751 8.9385 8.92481 8.93246C8.92481 8.93246 8.94414 8.92273 8.9481 8.913C8.9481 8.913 8.96167 8.89355 8.9714 8.90328C8.98113 8.913 8.9947 8.98481 9.01415 9.014C9.05691 8.99454 9.13844 8.81201 9.13844 8.81201L9.33466 8.25086V7.73822L9.18106 7.7674L8.02906 8.25662L7.32993 8.98097L7.24839 9.15377H7.2489Z" fill="#E6BD62"/>
<path fill-rule="evenodd" clip-rule="evenodd" d="M10.5654 6.63921C10.6277 6.62409 10.6874 6.59985 10.7427 6.56728C10.7194 6.62948 10.7194 6.69745 10.6184 6.84504C10.5174 6.99262 10.5135 7.014 10.432 7.16734C10.3505 7.32657 10.3407 7.55569 10.263 7.65656C10.2979 7.63963 10.3352 7.62852 10.3736 7.62366C10.3736 7.62366 10.2961 7.69163 10.263 7.76344C10.23 7.83524 10.1718 7.98475 10.0282 8.07614C9.88454 8.16753 9.70189 8.22564 9.50579 8.4412C9.30957 8.65278 9.10771 8.92081 9.00659 9.0172C9.05907 8.92593 9.13088 8.7434 9.15034 8.62308C9.16979 8.50276 9.14637 8.35889 9.17939 8.19979C9.21242 8.04068 9.21242 7.926 9.37139 7.64824C9.53037 7.37048 9.8025 6.40548 9.8025 6.40548L10.3889 6.21912L10.5656 6.63857L10.5654 6.63921Z" fill="#B6933F"/>
<path fill-rule="evenodd" clip-rule="evenodd" d="M10.1421 6.28387C10.1421 6.28387 9.96542 6.5382 9.91691 6.76348C9.8684 6.98876 9.91294 6.96931 9.88388 7.08003C9.8665 7.14753 9.8665 7.21834 9.88388 7.28585C9.94506 7.1873 10.0288 7.10472 10.1282 7.04495C10.2953 6.94409 10.4312 6.87215 10.5122 6.78678C10.5938 6.69551 10.6617 6.54601 10.8384 6.43145C10.7666 6.42172 10.6656 6.3887 10.6464 6.39305C10.7183 6.31151 10.9337 6.18723 11.1512 6.03772C11.3668 5.88412 11.3532 5.82217 11.7028 5.66883C11.5882 5.68828 11.5338 5.6591 11.4386 5.66883C11.477 5.58729 11.6114 5.54838 11.7458 5.41449C11.8802 5.2806 11.6604 5.08246 11.6604 5.08246L10.6364 5.70185L10.1413 6.28438L10.1421 6.28387Z" fill="#C49937"/>
<path fill-rule="evenodd" clip-rule="evenodd" d="M7.3634 5.82166L7.3867 5.63529L7.67995 5.16541L7.98676 4.34019V3.212L7.96347 2.55958L8.01198 2.13232L8.04884 1.99651L8.08776 1.94403L8.33812 2.07408L8.68385 2.54397L8.71688 3.45085L8.38088 4.88189L7.42164 5.92854L7.3634 5.82166Z" fill="#DFC068"/>
<path fill-rule="evenodd" clip-rule="evenodd" d="M8.12657 1.89153C8.12657 1.89153 7.97297 1.8955 7.9402 2.53435C7.90743 3.1732 7.89156 3.50907 7.86826 3.82561C7.84497 4.14216 7.7907 4.33428 7.76343 4.52078C7.73617 4.70728 7.72068 4.96148 7.63338 5.11688C7.59498 5.18868 7.51294 5.41396 7.32068 5.58292C7.10513 5.76929 6.78308 5.89947 6.73431 5.9092C6.64881 5.92852 6.21578 5.97128 6.03914 6.06843C5.97706 6.10145 5.87018 6.14024 5.75178 6.25096C5.51678 6.46254 5.2042 6.84116 4.97892 7.29748C4.63332 7.97908 4.28772 9.90331 4.28772 9.90331L4.36542 9.77326C4.36542 9.77326 4.37514 9.60046 4.54794 9.29748C4.7169 8.99463 4.66839 8.6548 4.90327 8.07419C4.99454 7.85288 5.1091 7.56552 5.24887 7.32078C5.47031 6.9227 5.73822 6.58094 6.00817 6.39457C6.44887 6.09172 6.93438 6.02568 6.93438 6.02568L7.45674 5.68008C7.45674 5.68008 7.54801 5.50344 7.66846 5.30145C7.83729 5.01806 8.05246 4.70152 8.09943 4.24136C8.17137 3.55976 7.99844 3.11316 8.00817 2.70932C8.0179 2.30548 8.02174 2.0084 8.1034 1.93646C8.18506 1.86452 8.1267 1.89179 8.1267 1.89179L8.12657 1.89153Z" fill="#A88F33"/>
<path fill-rule="evenodd" clip-rule="evenodd" d="M8.1266 4.94012C8.1266 4.94012 8.357 4.37308 8.46247 3.87016C8.48192 3.76917 8.52071 3.66831 8.53044 3.58677C8.57895 3.111 8.59252 2.9149 8.53044 2.65468C8.48192 2.46268 8.29556 2.28962 8.1984 2.15548C8.1033 2.01557 8.05863 1.96348 8.07808 1.93404C8.09754 1.9046 8.17319 1.85647 8.24692 1.86223C8.32529 1.86451 8.40238 1.88271 8.4735 1.91571C8.54462 1.94872 8.60828 1.99585 8.66061 2.05423C8.81012 2.22703 8.92852 2.81352 8.92852 2.81352L9.05306 3.58741L9.3696 4.56213L8.12685 4.94088L8.1266 4.94012Z" fill="#C99E3D"/>
<path fill-rule="evenodd" clip-rule="evenodd" d="M10.2916 4.34996C10.2916 4.34996 10.2489 4.36929 10.1713 4.34996C10.1746 4.38166 10.1691 4.41365 10.1554 4.44243C10.1417 4.4712 10.1203 4.49563 10.0936 4.51303C10.0121 4.48001 9.2488 4.54605 9.2488 4.54605C9.2488 4.54605 8.89347 4.48385 8.78275 4.01396C8.70519 3.70125 8.84099 3.27028 8.79632 2.98676C8.72835 2.56922 8.63325 2.48756 8.62352 2.35764C8.61379 2.22772 8.60406 2.19457 8.60406 2.11303C8.56131 2.1033 8.5361 2.08973 8.49347 2.08973C8.48375 2.05133 8.50307 2.0178 8.46045 1.94983C8.48375 1.95956 8.64298 1.97901 8.82935 2.15565C8.98295 2.2994 8.98295 2.35175 9.00611 2.38093C9.03517 2.40999 9.27018 2.61133 9.37117 2.81204C9.47216 3.01274 9.66826 3.65274 9.71293 3.75757C9.7265 3.80033 9.75568 3.84308 9.82813 3.9401C9.94077 4.08001 10.1058 4.3113 10.2921 4.3497L10.2916 4.34996Z" fill="#B58634"/>
<path fill-rule="evenodd" clip-rule="evenodd" d="M9.03345 2.39062C9.15108 2.58064 9.25675 2.7778 9.34986 2.98096C9.46442 3.23914 9.53239 3.45085 9.67614 3.62365C9.59844 3.3985 9.46058 2.95575 9.37905 2.79843C9.28778 2.63203 9.10142 2.45283 9.03345 2.39075V2.39062Z" fill="#A88F33"/>
<path fill-rule="evenodd" clip-rule="evenodd" d="M7.71291 5.58289C7.71291 5.58289 7.51682 5.6314 7.15176 5.82366C7.03131 5.88574 6.91688 5.93809 6.80616 5.98673C6.51855 6.11678 6.21007 6.23697 5.96533 6.30328C5.98479 6.32657 5.99439 6.33617 5.99439 6.33617C5.99439 6.33617 5.99439 6.4314 6.04687 6.48568C6.01781 6.51486 5.62933 6.77892 5.74402 7.66238C5.82159 7.63332 5.91285 7.59441 5.92642 7.59441C5.94984 7.59838 5.9556 7.66238 5.98466 7.66238C6.01371 7.66238 6.10895 7.62398 6.20994 7.49342C6.2061 7.5459 6.14786 8.07403 6.46043 8.42936C6.51867 8.36139 6.66626 8.13611 6.66626 8.13611L6.6701 8.0643C6.6701 8.0643 6.68367 7.8138 6.76533 7.58468C6.84699 7.35556 7.0061 7.1866 7.0061 7.1866L7.83695 6.00017L7.71266 5.58276L7.71291 5.58289Z" fill="#E6C367"/>
<path fill-rule="evenodd" clip-rule="evenodd" d="M6.93634 7.32497C6.8983 7.35185 6.85639 7.37278 6.81205 7.38705C6.79848 7.33854 6.77903 7.1715 6.89359 7.00842C7.0276 6.8122 7.32073 6.55786 7.40226 6.35562C7.45474 6.22545 7.43144 5.8993 7.89749 5.48177C8.36354 5.06423 8.54594 4.92062 8.54594 4.92062L9.29935 4.54199L10.2256 4.90705L9.7654 6.71057L9.40815 7.55537L7.98735 7.28746L6.93621 7.32497H6.93634Z" fill="#DCBA5A"/>
<path fill-rule="evenodd" clip-rule="evenodd" d="M7.47864 6.83528L7.65541 6.61397V6.45666C7.65541 6.45666 7.8515 6.40418 8.06309 6.18862C8.27467 5.97307 8.56792 5.5595 8.82622 5.58472C9.08453 5.6139 9.10974 6.14587 9.11947 6.2955C9.1292 6.44514 9.16222 6.78472 9.21457 6.96738C9.27281 7.1499 8.58545 7.8411 8.58545 7.8411L8.11864 8.19643L7.47864 6.83528Z" fill="#E9CE77"/>
<path fill-rule="evenodd" clip-rule="evenodd" d="M8.02551 8.67801C8.02551 8.67801 8.16926 8.45273 8.06391 8.40422C8.12599 8.26444 8.24055 8.11686 8.24055 8.11686C8.24055 8.11686 8.32209 7.915 8.58615 7.66642C8.85022 7.41785 9.01342 7.25273 9.05617 7.08582C9.08252 6.97704 9.09686 6.86569 9.09892 6.75378C9.12747 6.77711 9.15801 6.79788 9.19018 6.81586C9.23294 6.83532 9.43479 7.00223 9.40574 7.33823C9.37668 7.67423 9.25214 7.81401 9.25214 7.81401C9.25214 7.81401 9.13182 7.93433 9.04644 7.99654C8.95505 8.05862 8.92215 8.13042 8.76868 8.13631C8.78445 8.12377 8.80219 8.11391 8.82116 8.10713C8.82116 8.10713 8.66193 8.0878 8.57643 8.16537C8.49092 8.24294 8.30916 8.48191 8.2179 8.55385C8.12663 8.61209 8.0259 8.67814 8.0259 8.67814L8.02551 8.67801Z" fill="#CDAE50"/>
<path fill-rule="evenodd" clip-rule="evenodd" d="M14.4819 4.90124C14.2525 4.81763 14.0114 4.77047 13.7674 4.76146C13.3596 4.7479 12.7635 4.77119 12.179 4.77503C11.5499 4.77887 10.979 4.55948 10.1869 4.5207C10.0568 4.443 9.72605 4.10316 8.6936 4.82354C8.75568 4.8197 9.44317 4.66431 9.68189 4.96345C9.92266 5.26054 9.85469 5.76537 9.8218 5.88569C9.75959 6.15372 9.5576 6.54399 9.4762 6.81778C9.39479 7.09158 9.41399 7.23545 9.35575 7.42745C9.29751 7.61945 9.16938 7.71481 9.24503 7.93612C9.34602 7.87404 9.39863 7.87404 9.56733 7.49542C9.73604 7.11679 9.70135 6.84684 9.98103 6.52646C10.2548 6.20415 10.7106 5.76332 10.8839 5.6526C11.0573 5.54188 12.4334 4.82738 13.8743 5.50898C14.2218 5.47212 14.482 4.90111 14.482 4.90111L14.4819 4.90124Z" fill="#D2A83E"/>
<path fill-rule="evenodd" clip-rule="evenodd" d="M9.27405 4.63702C9.27263 4.62243 9.2694 4.60807 9.26445 4.59427C9.25098 4.56587 9.23328 4.53968 9.21197 4.51657C9.21197 4.51657 8.87021 4.45449 8.69741 4.47382C8.39444 4.50685 8.12064 4.88163 7.99252 5.07389C7.86439 5.26614 7.70516 5.5631 7.53236 5.71657C7.53425 5.70162 7.5308 5.68648 7.52263 5.67382C7.52263 5.67382 7.53236 5.68739 7.51303 5.70685C7.4937 5.7263 7.49357 5.7359 7.5033 5.74525L7.53248 5.7743C7.54208 5.7743 7.81012 5.65385 8.17517 5.3135C8.56352 4.95817 8.86061 4.7759 9.016 4.71344C9.09887 4.67822 9.18549 4.65258 9.27418 4.63702H9.27405Z" fill="#C29637"/>
<path fill-rule="evenodd" clip-rule="evenodd" d="M15.9033 3.17706C15.9033 3.17706 15.8411 3.25463 15.7634 3.34013C15.5906 3.52266 15.3653 3.72836 15.173 3.94007C14.9906 4.14205 14.7848 4.29937 14.5536 4.56343C14.3225 4.82749 14.0544 5.12061 13.9866 5.20612C13.9245 5.29162 13.876 5.4314 13.876 5.50321C13.843 5.47991 13.8042 5.45469 13.8042 5.45469C13.8205 5.48518 13.8401 5.51384 13.8624 5.5402C13.911 5.60817 13.9866 5.6938 14.0255 5.74602C14.0733 5.81251 14.1075 5.88769 14.1264 5.96733C14.1497 5.97117 14.2992 6.00036 14.4857 5.69354C14.6722 5.38673 14.9166 5.05085 14.9166 5.05085L15.305 4.47409L15.5497 3.98487L15.8569 3.43729L15.9037 3.17706H15.9033Z" fill="#AC8132"/>
<path fill-rule="evenodd" clip-rule="evenodd" d="M16.3014 2.78485C16.3014 2.78485 16.0664 2.97685 15.9752 3.09205C15.8839 3.20725 15.668 3.50959 15.668 3.50959L15.7457 3.49986L16.1399 3.15042L16.2935 2.87663L16.3013 2.78536L16.3014 2.78485Z" fill="#A88F33"/>
<path fill-rule="evenodd" clip-rule="evenodd" d="M16.2295 18.2159C16.2295 18.2159 16.2257 18.0566 16.315 17.9615C16.4063 17.8663 16.6373 17.7265 16.8626 17.2022C17.0879 16.6779 17.113 16.5595 17.113 16.5595C17.113 16.5595 16.7092 16.9051 16.4602 16.9867C16.5184 16.8662 16.5515 16.7809 16.5806 16.7186C16.5476 16.6896 16.4078 16.6566 16.3943 16.6411C16.4718 16.5634 16.5146 16.373 16.6719 16.2468C16.8739 16.0932 17.2428 15.8293 17.5295 15.594C17.8162 15.3588 18.3799 14.8116 18.4519 14.6523C18.4946 14.7144 18.5042 14.7532 18.5042 14.7532C18.5042 14.7532 18.2208 15.1222 18.0733 15.3571C17.9431 15.5591 17.9528 15.6737 17.9528 15.6737L18.2208 15.5585C18.2208 15.5585 18.2984 15.8458 17.947 16.2828C18.1006 16.2246 18.1626 16.2595 18.2499 16.2109C18.1061 16.3023 17.9081 16.4266 17.7218 16.7682C17.5392 17.1099 17.2907 17.508 16.8713 17.7565C16.4635 18.0186 16.2285 18.2147 16.2285 18.2147L16.2295 18.2159Z" fill="#A67A2E"/>
<path fill-rule="evenodd" clip-rule="evenodd" d="M15.177 5.10332C15.177 5.10332 15.0178 5.43523 14.9945 5.69353C14.9907 5.75574 14.975 5.80425 14.975 5.87606C14.9712 6.1071 14.9886 6.3654 14.9366 6.48572C14.9172 6.43721 14.9075 6.40418 14.888 6.38486C14.859 6.46639 14.8065 6.72073 14.7637 6.81583C14.7444 6.75375 14.7016 6.5382 14.7056 6.28386C14.7096 6.02953 14.7152 5.98089 14.7152 5.92854C14.7056 6.0061 14.6531 6.11107 14.6337 6.17315C14.6046 6.12079 14.5716 6.05282 14.5327 5.9965C14.5094 6.0349 14.4803 6.09161 14.4551 6.12079C14.4511 6.0975 14.4415 6.03529 14.4357 5.94799C14.4318 5.847 14.4259 5.71695 14.4318 5.68969C14.4414 5.63734 14.5231 5.43151 14.6959 5.2431C14.9017 5.01782 15.1134 4.58492 15.1755 4.4509C15.2376 4.31689 15.5016 3.7597 15.5016 3.7597H15.7036L15.4104 4.42761C15.4104 4.42761 15.2337 4.79267 15.1425 4.92681C15.0512 5.06095 14.859 5.44534 14.7734 5.59484C14.8355 5.5133 14.888 5.47055 14.9502 5.39286C15.0104 5.33846 15.1773 5.10358 15.1773 5.10358L15.177 5.10332Z" fill="#8C6228"/>
<path fill-rule="evenodd" clip-rule="evenodd" d="M16.3052 2.75952C16.2722 2.86107 16.2201 2.95535 16.1516 3.03728C16.0312 3.18103 15.7728 3.37315 15.6468 3.5265C15.5316 3.676 15.3012 4.08381 15.4059 4.56727C15.4443 4.46243 15.5166 4.25469 15.7088 4.01968C15.9011 3.78467 16.1069 3.51485 16.208 3.30519C16.3089 3.09347 16.3225 2.92656 16.3225 2.92656L16.3609 2.87805L16.3376 2.76733L16.3046 2.75952H16.3052Z" fill="#CBA94C"/>
<path fill-rule="evenodd" clip-rule="evenodd" d="M20.2372 15.6391C20.2372 15.6391 20.1595 15.4276 20.1362 15.2353C20.1129 15.043 20.1746 15.0049 20.1032 14.7849C20.0605 14.6509 19.9829 14.6697 19.9634 14.6509C19.944 14.632 19.9304 14.4295 19.9342 14.3188C19.9381 14.2081 19.9304 14.0645 19.911 14.0023C19.8819 13.979 19.8624 13.9595 19.8197 13.8159C19.7712 13.6722 19.7479 13.6004 19.7246 13.5577C19.7013 13.5151 19.6332 13.4762 19.6332 13.4334C19.6332 13.3479 19.7109 13.3034 19.7109 13.2798C19.707 13.2313 19.6488 13.2702 19.6332 13.2565C19.6139 13.2333 19.6818 13.0935 19.6566 13.074C19.6469 13.0644 19.5789 13.146 19.5614 13.1227C19.5419 13.0992 19.5186 12.8682 19.4837 12.7149C19.4508 12.5653 19.4157 12.4567 19.4119 12.412C19.408 12.3693 19.1438 11.6158 19.0798 11.4333C19.0283 11.2791 18.9849 11.1222 18.9498 10.9634C18.9303 10.8722 18.9168 10.6857 18.907 10.7051C18.8973 10.7246 18.9032 10.8197 18.8876 10.8158C18.874 10.8119 18.8255 10.48 18.81 10.4275C18.7965 10.375 18.7148 10.1971 18.6948 10.0683C18.6754 9.93815 18.6327 9.59831 18.6036 9.36727C18.5744 9.13623 18.5608 9.04112 18.5608 8.98327C18.5656 8.84176 18.5578 8.7001 18.5375 8.55997C18.4991 8.31524 18.4223 8.01815 18.355 7.84548C18.2249 7.5192 17.8792 6.68426 17.8174 6.47652C17.8174 6.42404 17.8854 6.45322 17.8854 6.45322C17.8854 6.45322 18.0542 6.87652 18.1785 7.20266C18.2989 7.52893 18.4135 7.81629 18.4427 7.84548C18.466 7.87453 18.6485 8.19492 18.73 8.7192C18.8116 9.24349 18.8406 9.72695 18.8893 10.0493C18.9126 10.2029 18.932 10.3658 18.9805 10.5289C19.0329 10.7056 19.1144 10.8882 19.2213 11.1677C19.3126 11.4027 19.3805 11.5988 19.4174 11.7678C19.4601 11.9833 19.4601 12.1464 19.4854 12.2533C19.5088 12.3445 19.5436 12.5269 19.6253 12.7909C19.7069 13.0548 19.8271 13.3948 19.9086 13.6064C20.068 14.0297 20.139 14.3831 20.1631 14.5715C20.1844 14.7657 20.2563 15.4375 20.2368 15.6394L20.2372 15.6391Z" fill="#A88F33"/>
<path fill-rule="evenodd" clip-rule="evenodd" d="M16.3149 2.73624L16.3052 2.75954C16.3052 2.75954 16.3343 2.76926 16.3285 2.80818C16.3289 2.86141 16.3257 2.91462 16.3188 2.96741C16.3092 3.03538 16.2897 3.08773 16.2859 3.13048C16.2859 3.22175 16.2995 3.32658 16.1707 3.5868C16.1323 3.65861 16.1086 3.72069 16.0891 3.76344C16.0406 3.86827 16.0309 3.88389 15.9882 3.9324C16.0561 3.894 16.3009 3.7404 16.425 3.76344C16.3396 3.81195 16.2095 3.90719 16.1279 4.03147C16.1474 4.03531 16.2289 4.05093 16.3583 4.03147C16.5739 3.99845 16.8147 3.92075 17.0262 3.93624C17.2574 3.94981 17.1661 3.65861 17.1661 3.65861L16.8994 3.07224L16.3946 2.71704L16.3149 2.73637V2.73624Z" fill="#BE9C44"/>
<path fill-rule="evenodd" clip-rule="evenodd" d="M17.6315 7.12853C17.6315 7.12853 17.4062 6.90325 17.3149 6.13013C17.2236 5.35342 17.2431 4.21013 17.2431 4.21013L17.0606 3.76353C17.0606 3.76353 17.0222 3.46645 16.9266 3.35585C16.8309 3.24526 16.6432 3.05877 16.5577 2.9675C16.4722 2.87624 16.3751 2.75195 16.3169 2.73249C16.346 2.68398 16.4761 2.41019 16.9751 2.40635C17.474 2.40251 17.6279 2.68014 17.68 2.78113C17.7321 2.88213 17.9673 3.31873 18.0546 4.15073C18.1362 4.98171 18.1401 5.04392 18.1266 5.33128C18.1168 5.49051 18.0644 5.85941 17.973 6.25352C17.8895 6.5876 17.7982 6.96046 17.6312 7.12929L17.6315 7.12853Z" fill="#A17C34"/>
<path fill-rule="evenodd" clip-rule="evenodd" d="M16.925 7.7907C17.0001 7.79612 17.0751 7.77919 17.1406 7.74206C17.2124 7.73822 17.4726 7.77124 17.6725 7.51691C17.6861 7.57502 17.7212 7.73246 17.6298 7.87223C17.6784 7.82359 17.7502 7.80427 17.76 7.7907C17.7638 7.86251 17.8318 8.08382 17.5444 8.62167C17.622 8.5363 17.7132 8.54014 17.7948 8.53041C17.7987 8.6314 17.853 8.97111 17.7094 9.15377C17.6143 9.27806 17.4589 9.23915 17.4589 9.23915C17.4612 9.21202 17.4612 9.18474 17.4589 9.15761C17.4551 9.10513 17.4356 9.05278 17.4493 9.01783C17.3742 8.98354 17.3058 8.93617 17.2473 8.87793C17.0784 8.7187 16.859 8.44695 16.8435 8.24497C16.824 8.01969 17.026 7.97118 17.026 7.97118C17.0091 7.95604 16.9947 7.93833 16.9833 7.9187C16.9735 7.8858 16.9638 7.83332 16.925 7.7907Z" fill="#8C6228"/>
<path fill-rule="evenodd" clip-rule="evenodd" d="M15.4274 5.34792C15.4274 5.34792 15.4177 5.33436 15.3654 5.39644C15.3751 5.33436 15.3848 5.27599 15.3887 5.21967C15.4134 5.16753 15.4455 5.11917 15.4839 5.07605C15.4547 5.13416 15.4352 5.18664 15.4352 5.18664C15.4352 5.18664 15.5072 5.05263 15.612 4.97109C15.6838 4.91285 15.7751 4.88572 15.8139 4.83132C15.8566 4.77308 15.8469 4.76335 15.8566 4.75362C15.8566 4.75362 15.9519 4.69154 16.0975 4.50888C16.1168 4.48559 16.146 4.46037 16.1655 4.43708C16.1984 4.42351 16.2761 4.38856 16.3673 4.34184C16.4626 4.28949 16.5693 4.21768 16.6354 4.18824C16.7654 4.13 16.9034 4.13589 16.9674 4.0445C17.0159 4.03093 17.0683 3.88527 17.0587 3.76111C17.1305 3.79016 17.4994 4.01928 17.6257 4.52028C17.717 4.8756 17.5538 5.42319 17.4858 5.68738C17.4178 5.95157 17.4082 6.14754 17.313 6.26786C17.1926 6.42722 16.8043 6.65186 16.7091 6.76309C16.6276 6.85436 16.383 7.0854 16.3926 7.25231C16.4023 7.3766 16.5556 7.44431 16.5888 7.46786C16.6219 7.49141 16.6217 7.52034 16.6839 7.50626C16.7461 7.49218 16.7693 7.46351 16.7946 7.46351C16.8237 7.46735 16.8237 7.47324 16.8372 7.47324C16.8471 7.47294 16.8569 7.47161 16.8664 7.46927C16.8664 7.46927 16.8567 7.64604 16.4431 7.69967C16.4139 7.70364 16.3849 7.71324 16.3479 7.71912C16.3965 7.69583 16.4256 7.69583 16.4781 7.62402C16.4198 7.61429 16.2528 7.60456 16.21 7.591C16.2236 7.5677 16.2683 7.50549 16.3051 7.47644C16.3382 7.44738 16.3013 7.43804 16.2722 7.45314C16.2222 7.48718 16.1742 7.5241 16.1285 7.56373C16.08 7.60648 16.0372 7.66472 15.9595 7.71733C15.9362 7.63964 15.9401 7.49205 16.0315 7.3853C16.008 7.38914 15.9634 7.45711 15.9207 7.44354C15.913 7.37272 15.9176 7.30109 15.9343 7.23183C15.9576 7.1444 16.0838 6.99106 16.0838 6.99106L16.6935 5.90165L16.8235 5.07644L15.4274 5.34767V5.34792Z" fill="#92723A"/>
<path fill-rule="evenodd" clip-rule="evenodd" d="M15.3945 5.39451C15.3945 5.39451 15.3615 5.4178 15.4276 5.46248C15.4178 5.47604 15.3945 5.52456 15.3654 5.55758C15.3325 5.59598 15.2974 5.61979 15.2838 5.65281C15.2548 5.72078 15.2315 5.76737 15.2315 5.79656C15.2315 5.82574 15.2217 6.01211 15.1402 6.13243C15.111 6.17518 15.078 6.24699 15.0547 6.2955C15.0062 6.38088 14.9634 6.4491 14.9537 6.4875C14.9344 6.55547 14.9208 6.74184 14.9208 6.74184C14.9208 6.74184 14.9636 6.68936 14.9791 6.67003C14.9556 6.71854 14.9304 6.77089 14.8936 6.8098C14.9169 6.79035 14.9848 6.74184 15.0994 6.64084C15.2586 6.50696 15.5072 6.28168 15.8102 6.10324C15.7188 6.13627 15.6412 6.13627 15.5791 6.146C15.6276 6.09748 16.0645 5.58484 16.2936 5.53633C16.3075 5.51869 16.3145 5.49655 16.3131 5.47412L16.1169 5.4548L15.7188 5.54017L15.6607 5.23297L15.3945 5.39412V5.39451Z" fill="#B18E3E"/>
<path fill-rule="evenodd" clip-rule="evenodd" d="M16.0277 7.14208C16.0277 7.14208 15.9752 7.19444 15.9267 7.32461C15.8893 7.28561 15.8573 7.24184 15.8314 7.19444C15.7596 7.07412 15.649 6.92064 15.3907 7.00807C15.3869 6.92653 15.381 6.88378 15.3907 6.82554C15.4335 6.81594 15.5635 6.71111 15.6936 6.55764C15.785 6.4528 15.8704 6.33236 15.9286 6.17901C15.967 6.14983 16.0334 6.10132 16.1206 6.045C16.2449 5.95962 16.3944 5.84301 16.4177 5.71296C16.3594 5.73626 16.2352 5.7945 16.0487 5.7849C16.1206 5.75188 16.2312 5.71693 16.2176 5.57319C16.2468 5.55373 16.2701 5.54016 16.2701 5.54016C16.2482 5.53286 16.2252 5.52957 16.2021 5.53044C16.1982 5.51687 16.1924 5.49754 16.1594 5.50714C16.1264 5.51674 16.121 5.51687 16.1166 5.53044C16.1031 5.5344 16.0584 5.53044 16.0254 5.55386C15.9923 5.57728 15.9011 5.65472 15.8661 5.66829C15.8797 5.645 15.899 5.61018 15.899 5.61018C15.899 5.61018 15.8039 5.61978 15.736 5.64858C15.6117 5.69133 15.4681 5.76903 15.3224 5.84468C15.336 5.82138 15.3418 5.80628 15.3514 5.80192C15.361 5.79757 15.3845 5.79232 15.3845 5.78836C15.3845 5.78439 15.3749 5.74996 15.3806 5.736C15.4242 5.64375 15.4756 5.5554 15.5342 5.47194C15.6022 5.38055 15.6158 5.2505 15.6158 5.2505L15.9129 5.101L16.7478 4.909L17.2896 4.94202L17.2217 5.3168L16.9017 5.97114L16.6279 6.56724L16.3152 6.93242L16.0278 7.14208H16.0277Z" fill="#543E26"/>
<path fill-rule="evenodd" clip-rule="evenodd" d="M17.3809 5.52025C17.3809 5.52025 17.0546 5.92409 16.9634 5.9863C17.0216 5.86201 17.3809 5.12217 17.511 4.91635C17.4819 4.89305 17.443 4.89305 17.5343 4.53235C17.4567 4.71475 17.4294 4.80998 17.3654 4.85849C17.3014 4.907 17.2935 4.89152 17.2502 4.89152C17.2584 4.87674 17.2618 4.85978 17.2598 4.843C17.2598 4.843 16.986 4.80998 16.799 4.80998C16.612 4.80998 16.2418 4.91097 16.0359 4.99251C15.8728 5.06048 15.7816 5.06048 15.7233 5.1031C15.6651 5.15161 15.6321 5.20409 15.6029 5.21766C15.5796 5.23123 15.469 5.26617 15.4436 5.30304C15.4203 5.34144 15.3816 5.38457 15.3816 5.3943C15.3816 5.40403 15.3718 5.41772 15.401 5.40787C15.4106 5.40403 15.4826 5.36512 15.5641 5.3166C15.6747 5.25452 15.8087 5.18272 15.9058 5.13996C16.1835 5.02924 16.2709 5.0487 16.3951 5.0254C16.5251 5.00211 16.7116 4.94771 16.8358 4.94771C16.9601 4.94387 17.1951 4.94771 17.2495 4.95744C17.2262 4.97689 17.2067 5.00019 17.2164 5.08172C17.2164 5.10502 17.197 5.13024 17.178 5.18656C17.1199 5.34579 17.0092 5.60985 16.9476 5.74387C16.8623 5.92627 16.7652 6.07974 16.7172 6.17484C16.6692 6.26995 16.5636 6.52044 16.4591 6.65446C16.3545 6.78848 16.2998 6.87001 16.2671 6.8992C16.2343 6.92838 15.999 7.10105 16.0166 7.16326C16.0593 7.14969 16.3293 7.04806 16.5252 6.82739C16.7212 6.60672 16.7602 6.47206 16.9136 6.35161C17.0669 6.23116 17.1874 6.02931 17.2592 5.8624C17.3194 5.707 17.3058 5.65849 17.3814 5.52064L17.3809 5.52025Z" fill="#806031"/>
<path fill-rule="evenodd" clip-rule="evenodd" d="M10.3499 8.53434C10.3499 8.53434 10.3072 8.71098 10.21 8.7984C10.1149 8.88391 9.94597 8.95764 9.92664 9.10138C9.90334 9.245 10.0956 9.31693 10.0956 9.31693C10.0956 9.31693 9.99064 9.48973 9.99064 9.61978C9.99064 9.7538 9.9868 9.77901 10.0004 9.90714C9.98497 9.91705 9.97188 9.93014 9.96197 9.94554C9.96197 9.94554 9.97157 10.0698 10.0668 10.1474C10.162 10.225 10.2434 10.2717 10.292 10.2522C10.2994 10.2681 10.3059 10.2843 10.3114 10.3009C10.3114 10.3009 10.3833 10.1183 10.4319 9.95911C10.4804 9.79604 10.5231 9.8192 10.5424 9.59981C10.5618 9.38042 10.7728 9.00372 10.7728 9.00372L10.9168 8.6818L10.682 8.49927L10.3499 8.53421V8.53434Z" fill="#B6903C"/>
<path fill-rule="evenodd" clip-rule="evenodd" d="M10.7868 8.85077C10.7383 8.90049 10.6936 8.95371 10.653 9.01C10.5909 9.09551 10.5424 9.17307 10.4511 9.20622C10.3599 9.23938 10.3016 9.23912 10.3074 9.33051C10.3132 9.4219 10.3987 9.46056 10.4472 9.50715C10.4997 9.55566 10.5424 9.6372 10.5191 9.72859C10.5482 9.71503 10.6006 9.69941 10.6492 9.59458C10.6977 9.48974 11.037 8.8509 11.037 8.8509H10.7868V8.85077Z" fill="#685026"/>
<path fill-rule="evenodd" clip-rule="evenodd" d="M12.125 7.37699C12.125 7.37699 12.154 7.29942 12.125 7.2431C12.0958 7.18486 11.9192 7.1654 11.8317 7.09936C11.7405 7.03139 11.6297 6.98416 11.5385 7.01398C11.552 6.98096 11.6064 6.90902 11.5618 6.89353C11.519 6.87996 11.3599 6.95177 11.3172 6.9848C11.2744 7.01782 11.1773 7.0566 11.1579 7.08003C11.1386 7.10345 11.1055 7.148 11.086 7.12854C11.0665 7.11497 11.0569 7.08003 11.0239 7.09936C10.9909 7.11868 10.8319 7.24886 10.8026 7.32464C10.7733 7.40041 10.7074 7.56937 10.5094 7.7615C10.3113 7.95363 10.2258 8.07804 10.2841 8.14985C10.3423 8.22166 10.3696 8.16931 10.3793 8.23139C10.3868 8.29233 10.3835 8.35411 10.3696 8.41392C10.3463 8.51491 10.3075 8.61001 10.3599 8.62947C10.4939 8.67222 10.624 8.59107 10.6531 8.6159C10.7113 8.66825 10.6201 8.85667 10.7579 8.89353C10.8978 8.93193 11.0357 8.86051 11.0357 8.86051L11.5444 8.58672L12.0337 8.32854L12.2841 7.83331L12.1498 7.41974L12.1242 7.37699H12.125Z" fill="#D4B968"/>
<path fill-rule="evenodd" clip-rule="evenodd" d="M11.645 8.55957C11.645 8.55957 11.5595 8.42952 11.6645 8.31483C11.7694 8.20014 11.9188 8.15176 11.977 8.07995C11.966 8.06628 11.9511 8.05617 11.9343 8.0509C11.973 7.98172 12.0319 7.92609 12.1033 7.89154C12.0742 7.86248 12.0353 7.83918 11.9927 7.83918C11.8974 7.83918 11.8391 7.89742 11.7518 7.89742C11.6664 7.89742 11.6567 7.85467 11.6567 7.85467C11.6567 7.85467 11.8004 7.8411 11.7867 7.77698C11.7731 7.70901 11.7483 7.70901 11.7483 7.70901C11.7483 7.70901 12.0259 7.59381 12.0745 7.53237C12.123 7.47093 12.1172 7.39835 12.1269 7.3693C12.1598 7.3693 12.3521 7.2683 12.4298 7.31106C12.5075 7.35381 12.4531 7.47029 12.4531 7.47029C12.4531 7.47029 12.6882 7.29352 12.808 7.12021C12.9129 7.12994 12.9616 7.0484 13.0384 7.0484C13.1337 7.0484 13.2832 7.17845 13.3122 7.45608C13.3317 7.61531 13.3607 7.70658 13.3317 7.98818C13.3181 8.14741 13.3219 8.48738 13.3701 8.65608C13.403 8.7901 13.4807 8.77653 13.4807 8.77653C13.4687 8.81737 13.4451 8.85381 13.4127 8.88136C13.3602 8.92987 13.3545 9.05813 13.3602 9.10664C13.368 9.14211 13.3777 9.17711 13.3894 9.21147C13.3894 9.21147 13.3273 9.28328 13.3117 9.33192C13.2981 9.38043 13.2341 9.41346 13.1874 9.41346C13.1407 9.41346 13.1641 9.40949 13.102 9.41346C13.04 9.41742 13.0205 9.42702 12.9816 9.41346C12.9427 9.39989 12.9136 9.38427 12.9292 9.25986C12.9428 9.13557 12.4496 8.84629 12.4496 8.84629L11.6432 8.55893L11.645 8.55957Z" fill="#CCA849"/>
<path fill-rule="evenodd" clip-rule="evenodd" d="M10.7188 9.78672C10.7188 9.78672 10.8954 10.0217 11.6217 10.0217C11.9673 10.0217 12.0877 9.98871 12.1593 9.96925C12.237 9.9498 12.5282 9.83536 12.8214 9.48963C13.0855 9.17706 13.0273 9.04893 13.0273 9.04893L12.8737 9.02563L12.3745 9.0936L10.8973 9.72272L10.7181 9.78672H10.7188Z" fill="#585136"/>
<path fill-rule="evenodd" clip-rule="evenodd" d="M11.2605 9.84493C11.2605 9.84493 10.6313 9.98483 10.6313 9.58675C10.6313 9.1984 11.0197 8.79059 11.1169 8.71879C11.2178 8.64685 11.4586 8.56519 11.4586 8.56519H12.0392L12.1498 8.85843L12.1013 9.49139L11.2605 9.8448V9.84493Z" fill="#252211"/>
<path fill-rule="evenodd" clip-rule="evenodd" d="M11.8411 8.68383C11.8411 8.68383 11.7208 8.57311 11.447 8.72223C11.1732 8.87135 10.9518 9.18303 10.9382 9.46603C10.9246 9.7164 11.144 9.9029 11.4858 9.91263C11.7401 9.92223 11.8936 9.89317 11.9713 9.87423C11.9518 9.85093 11.8509 9.72472 11.8509 9.72472L11.8413 8.68395L11.8411 8.68383Z" fill="#C3B378"/>
<path fill-rule="evenodd" clip-rule="evenodd" d="M11.7227 8.74581C11.7227 8.74581 11.6937 8.72252 11.6075 8.76911C11.5357 8.80751 11.4309 8.90901 11.3494 8.98082C11.2969 9.02357 11.2639 9.0429 11.2342 9.07593C11.1137 9.21967 11.0127 9.45468 11.0711 9.57116C11.1295 9.68764 11.3216 9.82165 11.8109 9.73039L11.7213 8.74594L11.7227 8.74581Z" fill="#E6D89C"/>
<path fill-rule="evenodd" clip-rule="evenodd" d="M11.5636 8.98671C11.5636 8.98671 11.4859 9.10716 11.4859 9.29942C11.4859 9.49551 11.5966 9.80809 12.0044 9.83138C12.317 9.85084 12.5266 9.38095 12.7538 9.19842C12.9266 9.05865 13.0315 9.05468 13.0315 9.05468C13.0315 9.05468 12.8548 8.86268 12.383 8.61398C11.917 8.36348 11.3946 8.33046 11.1111 8.71497C11.2451 8.70524 11.6781 8.59452 11.6781 8.59452L11.8898 8.66249L11.5636 8.98684V8.98671Z" fill="#252211"/>
<path fill-rule="evenodd" clip-rule="evenodd" d="M12.1732 9.24106C12.1596 9.212 12.1499 9.17309 12.2062 9.16349C12.2625 9.15389 12.2877 9.15952 12.3072 9.20189C12.3266 9.24426 12.3456 9.27959 12.3168 9.29712C12.2877 9.31261 12.212 9.29712 12.173 9.2408L12.1732 9.24106ZM12.0819 8.96727C12.0819 8.96727 12.0625 8.98083 12.0722 8.9537C12.076 8.9208 12.1014 8.86243 12.1634 8.87613C12.2255 8.88983 12.2121 8.95767 12.2018 8.97712C12.1916 8.99658 12.1398 9.02947 12.1009 9.01552C12.0959 9.01426 12.0914 9.01185 12.0875 9.0085C12.0837 9.00514 12.0807 9.00093 12.0788 8.9962C12.0769 8.99148 12.0762 8.98637 12.0766 8.9813C12.0771 8.97622 12.0787 8.97133 12.0814 8.96701L12.0819 8.96727Z" fill="#6F674D"/>
<path fill-rule="evenodd" clip-rule="evenodd" d="M6.82581 9.09143C6.82581 9.09143 6.97941 9.20663 7.15784 9.20215C7.33448 9.19819 7.56168 9.01579 7.66651 8.89918C7.72859 8.83121 7.78171 8.7594 7.83931 8.70308C7.88795 8.65457 7.92085 8.63127 7.94414 8.59825C7.97717 8.55985 8.01211 8.48766 8.02965 8.46423C7.98689 8.49726 7.92481 8.55563 7.86069 8.59441C7.79861 8.63281 7.66459 8.705 7.61019 8.72446C7.55784 8.74391 7.01409 9.03166 7.01409 9.03166L6.82581 9.09143Z" fill="#AC924C"/>
<path fill-rule="evenodd" clip-rule="evenodd" d="M7.06055 7.65667C7.06055 7.65667 7.14592 7.59843 7.31104 7.56144C7.47027 7.52304 7.79066 7.49347 7.79066 7.49347L8.05472 7.60867L8.15955 8.00675L7.96755 8.42045L7.72295 8.57405L7.44519 8.12745L7.06119 7.65744L7.06055 7.65667Z" fill="#9F8E57"/>
<path fill-rule="evenodd" clip-rule="evenodd" d="M6.71493 8.01198L6.62354 8.0802C6.62354 8.0802 6.64696 8.03745 6.66629 7.9074C6.68561 7.77736 6.78673 7.46081 6.93432 7.27828C7.0819 7.09576 7.07806 7.10548 7.07806 7.10548C7.06448 7.103 7.05053 7.10344 7.03713 7.10677C7.02373 7.1101 7.0112 7.11625 7.00037 7.12481C7.01982 7.0818 7.14411 6.9282 7.2684 6.8514C7.39269 6.7746 7.4412 6.75041 7.57125 6.813C7.70129 6.8756 7.73432 6.90811 7.82955 6.90427C7.92478 6.90043 8.00619 6.79944 8.00619 6.79944C8.00619 6.79944 8.02565 6.86152 7.95384 7.00526C7.88203 7.149 7.59851 7.44212 7.59851 7.44212L7.00817 7.84596L6.71493 8.01236V8.01198Z" fill="#EAC970"/>
<path fill-rule="evenodd" clip-rule="evenodd" d="M7.15164 7.60815C7.15164 7.60815 7.5789 7.66639 7.70895 7.54607C7.71279 7.55964 7.7284 7.55964 7.7284 7.56937C7.72736 7.5767 7.72394 7.58348 7.71868 7.58869C7.73282 7.58644 7.74711 7.58515 7.76143 7.58485C7.77853 7.58994 7.79612 7.5932 7.81391 7.59458C7.82823 7.59427 7.84252 7.59294 7.85666 7.59061C7.85531 7.60026 7.85203 7.60955 7.84702 7.6179C7.842 7.62626 7.83536 7.63352 7.82748 7.63925C7.84693 7.63925 7.86588 7.64309 7.86588 7.65858C7.86588 7.67407 7.86972 7.72079 7.84642 7.73052C7.82712 7.73585 7.80658 7.73445 7.78818 7.72655C7.78972 7.76331 7.79971 7.79923 7.81736 7.83151C7.85576 7.90332 7.93768 7.98511 8.04776 7.96156C8.04776 7.96156 8.10588 8.10133 7.86127 8.41199C7.82837 8.45474 7.7933 8.51298 7.75068 8.56149C7.73383 8.5982 7.72096 8.63661 7.71228 8.67605C7.71228 8.67605 8.12597 8.51682 8.24437 8.15368C8.36482 7.78863 8.38812 7.42946 8.36482 7.09359C8.36085 6.99836 8.34536 6.93052 8.32207 6.88188C8.26383 6.76143 8.10063 6.78088 8.03471 6.84885C7.93948 6.94408 7.78024 7.18088 7.55893 7.34396C7.33365 7.50703 7.32405 7.53596 7.15112 7.60815H7.15164Z" fill="#D7BC6B"/>
<path fill-rule="evenodd" clip-rule="evenodd" d="M6.63914 8.1324C6.63914 8.1324 6.55761 8.18091 6.51486 8.3628C6.4721 8.54917 6.55326 8.77637 6.60023 8.84818C6.64721 8.91998 6.75383 9.11621 6.97502 9.12594C7.02976 9.12565 7.0839 9.11442 7.13425 9.09291C7.21146 9.05751 7.28389 9.01248 7.3498 8.9589C7.44503 8.88709 7.5226 8.82501 7.51287 8.81912C7.48958 8.80939 6.9265 8.34334 6.9265 8.34334L6.71479 8.10706L6.63902 8.13266L6.63914 8.1324Z" fill="#585136"/>
<path fill-rule="evenodd" clip-rule="evenodd" d="M7.17136 8.90521C7.17136 8.90521 7.28592 8.89561 7.35389 8.85285C7.42186 8.8101 6.95581 8.34802 6.95581 8.34802L6.98883 8.84722L7.17136 8.90521Z" fill="#453A25"/>
<path fill-rule="evenodd" clip-rule="evenodd" d="M6.67601 8.09739C6.67601 8.09739 6.61777 8.20811 6.61777 8.23729C6.60804 8.3324 6.63722 8.6314 6.66052 8.72651C6.68382 8.8275 6.81002 8.98084 6.97322 8.98084C7.07409 8.98084 7.21399 8.91876 7.21399 8.90328C7.21399 8.88382 7.07025 8.86488 7.03146 8.79256C7.00817 8.75416 6.99844 8.65867 6.99306 8.56216C6.98922 8.50008 6.98922 8.43211 7.01252 8.40856C7.065 8.35032 7.0746 8.18328 7.0746 8.18328L7.26097 7.83704H7.01585L6.7226 8.01956L6.67601 8.09739Z" fill="#84754B"/>
<path fill-rule="evenodd" clip-rule="evenodd" d="M6.60425 8.20428C6.60425 8.20428 6.79625 7.94994 6.9693 7.89157C7.14236 7.83321 7.2198 7.86828 7.2198 7.86828L7.11881 8.12658L6.97506 8.28581L6.98479 8.36735C6.98479 8.36735 6.96137 8.5829 7.10511 8.73241C7.24886 8.88191 7.35561 8.87615 7.41782 8.87615C7.48002 8.87615 7.65858 8.82367 7.74985 8.60812C7.83138 8.40626 7.89935 8.14732 7.73628 7.88773C7.57692 7.62943 7.29545 7.61945 7.24105 7.61945C7.18665 7.61945 6.75951 7.64082 6.60425 8.20389V8.20428Z" fill="#252211"/>
<path fill-rule="evenodd" clip-rule="evenodd" d="M11.5343 9.06824C11.4625 9.03522 11.5305 8.83336 11.6023 8.77116C11.6741 8.70895 11.7654 8.63727 11.9247 8.62741C11.9829 8.62357 12.0392 8.66044 12.0296 8.69935C12.016 8.77116 11.915 8.87215 11.8238 8.94396C11.6975 9.04303 11.6159 9.10511 11.5343 9.06824Z" fill="#F7F7E7"/>
<path fill-rule="evenodd" clip-rule="evenodd" d="M7.65078 7.96728C7.70326 7.96344 7.77123 8.00568 7.78479 8.06252C7.79836 8.1246 7.75177 8.24888 7.65078 8.24888C7.56924 8.24888 7.52649 8.14789 7.52649 8.11884C7.52741 8.09494 7.53408 8.07163 7.54595 8.05087C7.54979 8.04498 7.55951 7.97701 7.65078 7.96728Z" fill="#F8F6DE"/>
<path fill-rule="evenodd" clip-rule="evenodd" d="M6.89352 8.01202C6.89352 8.01202 6.75951 8.0741 6.69743 8.20402C6.65307 8.29996 6.63965 8.40732 6.65903 8.51122C6.66875 8.55974 6.71727 8.68006 6.75029 8.72281C6.78331 8.76556 6.82799 8.79474 6.86101 8.79078C6.89403 8.78681 6.96187 8.69951 6.96187 8.64716C6.96187 8.59481 6.96584 8.37337 7.02984 8.25292C7.08616 8.1326 6.89391 8.01215 6.89391 8.01215L6.89352 8.01202Z" fill="#D4C38B"/>
<path fill-rule="evenodd" clip-rule="evenodd" d="M6.91299 8.00229C6.88969 8.01586 6.85091 8.03531 6.86051 8.06053C6.87023 8.08383 6.95177 8.09893 6.98095 8.15576C7.01398 8.214 7.01398 8.27608 7.00425 8.30527C7.02961 8.29322 7.05263 8.27675 7.07222 8.25663C7.11497 8.20811 7.16732 8.14219 7.21199 8.14219C7.24118 8.14219 7.27023 8.15576 7.2975 8.15576C7.34025 8.15576 7.38287 8.14219 7.38876 8.09752C7.39836 8.03928 7.30723 7.9868 7.25475 7.99653C7.26447 7.95813 7.27804 7.90143 7.23529 7.86251C7.19254 7.8236 7.05865 7.8917 7.02947 7.91115C7.00028 7.93061 6.91299 8.00242 6.91299 8.00242V8.00229Z" fill="#E2D59D"/>
<path fill-rule="evenodd" clip-rule="evenodd" d="M9.9984 12.0819L10.2858 11.997L10.3673 12.0552C10.3673 12.0552 10.4254 12.1795 10.5168 12.195C10.4876 12.2571 10.4118 12.3102 10.4158 12.3543C10.4198 12.3983 10.4586 12.432 10.4586 12.432C10.4586 12.432 10.2003 12.8591 10.7091 13.2896C10.5886 13.3381 10.4353 13.4048 10.3537 13.4432C10.4118 13.4567 10.5361 13.4816 10.5886 13.5287C10.6411 13.5758 10.6411 13.5907 10.6896 13.6199C10.7381 13.6491 10.7672 13.6879 10.7576 13.7053C10.7245 13.6858 10.6138 13.6277 10.5945 13.682C10.5752 13.7363 10.1149 13.715 10.1149 13.715L9.33818 13.8645C9.33818 13.8645 9.36724 13.7868 9.2857 13.715C9.1906 13.6296 9.07412 13.7189 8.94983 13.6238C8.78676 13.4995 8.78087 13.3557 8.72852 13.3015C8.78087 13.2684 8.88775 13.2199 9.14208 13.1863C9.13236 13.1668 9.09933 13.1086 9.11879 13.0562C9.14208 12.9882 9.23911 12.9455 9.21005 12.8642C9.2528 12.8545 9.27213 12.8545 9.37901 12.7205C9.48 12.5864 9.54208 12.5574 9.61978 12.5477C9.69748 12.5379 9.74407 12.5477 9.88781 12.4136C9.98867 12.3185 9.95578 12.237 9.95578 12.237C9.95578 12.237 10.0217 12.2156 9.99853 12.0816L9.9984 12.0819Z" fill="#CBAC5A"/>
<path fill-rule="evenodd" clip-rule="evenodd" d="M9.14986 12.125C9.1537 12.1056 9.16932 12.0958 9.27415 12.1056C9.37898 12.1153 10.043 12.0435 10.2237 12.0338C10.4062 12.0202 11.0489 12.0298 11.3616 12.0958C11.6743 12.1619 11.9907 12.2396 12.144 12.2784C12.2976 12.3211 12.346 12.3365 12.3401 12.3559C12.3363 12.3754 12.3017 12.3943 12.2819 12.389C12.2626 12.3851 11.7538 12.2297 11.5966 12.197C11.4394 12.1642 10.8955 12.0765 10.5982 12.0818C10.3206 12.0857 10.2098 12.0779 9.97495 12.1051C9.73994 12.1342 9.35159 12.173 9.23511 12.1575C9.11991 12.144 9.14372 12.144 9.14961 12.1245L9.14986 12.125Z" fill="#D6BC6F"/>
<path fill-rule="evenodd" clip-rule="evenodd" d="M10.7129 13.6469C10.7129 13.6469 11.111 13.8625 11.2547 14.1265C11.3596 14.3226 11.1927 14.4198 11.1927 14.4198C11.1927 14.4198 11.4179 14.4198 11.3888 14.5441C11.3752 14.6216 11.0004 14.8313 10.7499 14.942C10.4956 15.0527 10.5053 15.047 10.381 15.0663C10.2606 15.0858 9.93046 15.0279 9.86249 15.1245C9.79452 15.2212 9.82409 15.3208 9.84304 15.3363C9.86249 15.3498 10.0198 15.3693 10.0198 15.3693C10.0198 15.3693 9.98678 15.4605 9.66064 15.4703C9.33449 15.48 9.25283 15.5032 9.23337 15.5382C9.21392 15.5711 9.29545 15.5518 9.44508 15.5766C9.59459 15.5999 9.80425 15.615 9.80425 15.615C9.80425 15.615 9.73628 15.6733 9.55964 15.7199C9.35766 15.7722 9.04112 15.8209 8.94601 15.8791C8.99452 15.9121 9.06646 15.9606 9.09961 15.9645C9.01808 15.9839 8.90339 16.0267 8.88406 16.0422C8.91312 16.0616 8.95203 16.0849 8.95203 16.0849C8.95203 16.0849 8.78883 16.281 8.69372 16.3297C8.59862 16.3783 8.05104 16.6325 7.86262 16.584C7.39273 16.4597 7.33449 15.9452 7.21993 15.9064C7.04713 15.8481 6.9656 15.9645 6.81212 15.8829C6.88009 15.8344 6.91708 15.8054 6.98889 15.7723C6.9112 15.7339 6.50928 15.4791 6.50928 15.4791C6.46725 15.3875 6.42059 15.2981 6.3695 15.2112C6.2918 15.0772 6.1775 14.8985 6.09174 14.7412C5.90537 14.3956 5.89564 14.2364 5.72668 14.0403C5.75587 14.0019 5.85673 14.0072 5.85673 14.0072L7.27241 14.4733L9.78262 14.546L10.4354 13.614L10.7131 13.647L10.7129 13.6469Z" fill="#DFC677"/>
<path fill-rule="evenodd" clip-rule="evenodd" d="M6.99451 15.0683C7.00965 15.0851 7.02731 15.0995 7.04686 15.111C7.0955 15.144 7.16731 15.183 7.21582 15.2411C7.23527 15.212 7.28379 15.1595 7.36942 15.2411C7.45505 15.3226 7.56142 15.2645 7.6276 15.2838C7.69556 15.3072 7.6994 15.3168 7.6994 15.3168C7.6994 15.3168 7.7378 15.2838 7.82369 15.2489C7.87617 15.2294 7.93825 15.2158 8.00622 15.1965C8.0683 15.183 8.13627 15.1635 8.18299 15.1635C8.22574 15.1926 8.37908 15.3555 8.99464 15.115C9.57524 14.8897 9.70913 14.8645 9.80628 14.8993C9.81601 14.876 9.82574 14.8313 9.97524 14.8372C9.97524 14.7751 9.85096 14.5634 9.85096 14.5634L9.16551 14.3286H8.7906L7.66638 14.5344L7.0434 14.8898L6.99489 15.069L6.99451 15.0683Z" fill="#C4A859"/>
<path fill-rule="evenodd" clip-rule="evenodd" d="M6.61975 14.6742C6.61975 14.6742 6.63332 14.779 6.78871 14.8897C6.94231 15.0003 6.99057 15.0664 6.99057 15.0664C6.99057 15.0664 7.01975 15.028 7.04305 14.9888C7.06634 14.946 7.0858 14.8975 7.12458 14.884C7.20228 14.8509 7.37892 14.913 7.41783 14.9033C7.45085 14.8937 7.44113 14.8257 7.47607 14.8257C7.55761 14.8218 7.60996 14.8781 7.63914 14.8781C7.66833 14.8781 7.74001 14.8742 7.74973 14.8587C7.75946 14.8433 7.7633 14.682 7.87402 14.6043C7.99447 14.5189 8.14205 14.5558 8.18122 14.5752C8.18122 14.6043 8.18506 14.6762 8.26276 14.6801C8.34045 14.6839 8.34813 14.6703 8.41636 14.6936C8.48458 14.7169 8.56586 14.6898 8.60273 14.8042C8.63575 14.7946 8.71345 14.7849 8.69399 14.6742C8.73239 14.6451 8.76593 14.6257 8.84759 14.5111C8.86705 14.482 8.89994 14.449 8.92529 14.4063C8.99326 14.4063 9.07479 14.3927 9.18346 14.4878C9.15044 14.5111 9.13098 14.5262 9.12138 14.5499C9.14981 14.578 9.17576 14.6086 9.19895 14.6411C9.22814 14.6795 9.24759 14.7266 9.28446 14.7364C9.36599 14.7597 9.50001 14.7266 9.64951 14.7364C9.79325 14.7461 9.91357 14.7985 9.96606 14.8315C9.98551 14.8219 9.98551 14.8179 10.034 14.8276C10.0825 14.8374 10.1194 14.8412 10.067 14.7791C10.0961 14.7927 10.1291 14.8219 10.1583 14.7927C10.1875 14.7635 10.2107 14.7209 10.2922 14.7112C10.3737 14.7014 10.4029 14.715 10.4359 14.6296C10.4787 14.5248 10.3311 14.5248 10.3311 14.5248C10.3311 14.5248 10.3991 14.4626 10.4749 14.381C10.5661 14.2957 10.671 14.185 10.6962 14.049C10.7389 13.7985 10.4943 13.7656 10.4943 13.7656L9.30788 14.1307L7.85738 14.0587L6.62052 14.6743L6.61975 14.6742Z" fill="#927D49"/>
<path fill-rule="evenodd" clip-rule="evenodd" d="M5.55374 11.2469C5.55374 11.2469 5.51534 11.2955 5.49166 11.41C5.46798 11.5246 5.47809 11.511 5.45863 11.5925C5.43918 11.6741 5.2002 12.4857 5.2898 12.7595C5.3794 13.0333 5.53454 13.1343 5.63156 13.3556C5.65102 13.4041 5.66996 13.4333 5.68007 13.4761C5.7131 13.6197 5.68404 13.7304 5.72282 13.8741C5.73639 13.9227 5.77146 13.979 5.82382 14.0372C5.93902 14.1575 6.12679 14.2721 6.20782 14.3536C6.32225 14.4741 6.48545 14.7188 6.69319 14.742C6.80391 14.7555 6.96122 14.709 7.09127 14.6314C7.20647 14.5595 7.27764 14.4586 7.39847 14.401C7.48385 14.3582 7.57511 14.3427 7.65665 14.3233C7.82561 14.2903 7.97908 14.2849 8.07034 14.3038C8.21012 14.333 8.54023 14.434 8.72314 14.434C8.86607 14.4317 9.0082 14.4122 9.14644 14.3758C9.42407 14.2942 9.75995 14.1543 9.98139 14.0923C10.1114 14.0539 10.2163 14.0437 10.3231 14.0204C10.5057 13.9777 10.659 13.9195 10.7464 13.8087C10.6882 13.7408 10.6164 13.6359 10.2279 13.6398C9.78721 13.6495 9.27841 13.8941 9.02791 13.933C8.77742 13.9719 8.66875 14.0048 8.38907 13.9038C8.11489 13.8018 8.1058 13.7344 8.1058 13.7344C8.1058 13.7344 7.81793 13.533 7.69748 13.0197C7.57703 12.5065 7.69748 12.1324 8.01019 11.777C8.09172 11.6857 8.07226 11.6042 8.07226 11.6042C8.07226 11.6042 8.27809 11.3266 8.22177 11.0666C8.15969 10.8083 7.76161 10.8608 7.76161 10.8608L5.55386 11.2469H5.55374Z" fill="#6E6342"/>
<path fill-rule="evenodd" clip-rule="evenodd" d="M5.88575 12.1111C5.86863 12.1433 5.86057 12.1795 5.86245 12.2159C5.86629 12.2683 5.88191 12.3362 6.03909 12.4897C6.17311 12.6236 6.14392 12.7731 6.14392 12.7731C6.14392 12.7731 6.21138 12.7867 6.39442 12.701C6.53816 12.6331 6.58642 12.7535 6.58642 12.7535C6.62826 12.7316 6.67361 12.7171 6.72043 12.7108C6.76285 12.7069 6.80391 12.6938 6.84075 12.6724C6.84075 12.6724 7.00971 12.8452 7.1573 12.9267C7.29131 12.9986 7.36901 13.0471 7.43506 12.9986C7.49714 12.9559 7.49714 12.8685 7.49317 12.8297C7.47777 12.7939 7.45827 12.76 7.43506 12.7287C7.3923 12.6666 7.32434 12.5947 7.31986 12.5367C7.31013 12.4028 7.42085 12.2434 7.39742 12.2047C7.374 12.1659 7.28683 12.1561 7.07128 12.2338C6.84805 12.3076 5.88485 12.1115 5.88485 12.1115L5.88575 12.1111Z" fill="#39331F"/>
<path fill-rule="evenodd" clip-rule="evenodd" d="M6.39451 12.9791C6.39451 12.9791 6.28392 12.8742 6.3227 12.3654C6.36965 12.3647 6.41653 12.3693 6.46248 12.379C6.46248 12.379 6.52276 12.7732 6.39451 12.9791Z" fill="#292311"/>
<path fill-rule="evenodd" clip-rule="evenodd" d="M5.60625 10.8586C5.62168 10.8472 5.63599 10.8343 5.649 10.8202C5.6106 10.892 5.43332 11.1794 5.57706 11.6319C5.72081 12.0823 6.0819 12.4182 6.52657 12.4338C6.97124 12.4494 7.20497 12.2318 7.47223 11.9057C7.57706 11.7756 7.69751 11.6124 7.80426 11.5018C7.9635 11.3289 8.08778 11.2804 8.08778 11.1135C8.08778 10.7717 7.73822 10.6182 7.22366 10.4649C6.7091 10.3116 6.24497 10.3305 6.0042 10.4355C5.76932 10.5499 5.66833 10.6703 5.60612 10.8588L5.60625 10.8586Z" fill="#252211"/>
<path fill-rule="evenodd" clip-rule="evenodd" d="M7.25856 13.1324L7.29696 13.1129C7.29696 13.1129 7.30656 12.9593 7.36877 12.9634C7.43085 12.9731 7.46003 13.0548 7.45415 13.0838C7.45031 13.1129 7.43482 13.1615 7.37261 13.1557C7.29107 13.1576 7.25818 13.1324 7.25818 13.1324H7.25856Z" fill="#3F3824"/>
<path fill-rule="evenodd" clip-rule="evenodd" d="M7.08582 12.48C7.08582 12.48 7.12422 12.4664 7.17119 12.513C7.20959 12.513 7.37702 12.4936 7.4295 12.5266C7.48198 12.5596 7.49746 12.5887 7.49746 12.5887C7.49746 12.5887 7.30137 12.6314 7.19449 12.5887C7.08582 12.5518 7.08582 12.48 7.08582 12.48Z" fill="#2D2815"/>
<path fill-rule="evenodd" clip-rule="evenodd" d="M7.95 12.509C7.95 12.4993 7.84516 12.4275 7.73444 12.404C7.71499 12.4002 7.71102 12.4138 7.69604 12.4138C7.68632 12.4099 7.68248 12.3807 7.68248 12.3807L7.6195 12.4139C7.6195 12.4139 7.60977 12.4275 7.6428 12.4523C7.67185 12.4756 7.72049 12.495 7.73406 12.5338C7.74763 12.5726 7.74763 12.5862 7.75352 12.5921C7.75736 12.5959 7.82532 12.5921 7.85835 12.5726C7.89137 12.5532 7.95358 12.5214 7.94961 12.5086L7.95 12.509Z" fill="#82764F"/>
<path fill-rule="evenodd" clip-rule="evenodd" d="M6.96936 12.9032C6.96936 12.9032 6.98869 12.7693 7.11886 12.7635C7.25275 12.7537 7.2781 12.8838 7.2781 12.8838L7.2004 12.9615C7.2004 12.9596 7.14216 12.878 6.97 12.9032H6.96936Z" fill="#2D2816"/>
<path fill-rule="evenodd" clip-rule="evenodd" d="M7.81398 12.3265C7.81398 12.3265 7.74204 12.4042 7.58294 12.4275C7.56937 12.408 7.54018 12.3692 7.58294 12.3072C7.62569 12.2451 7.6742 12.2256 7.72271 12.245C7.74412 12.2484 7.76408 12.2579 7.78025 12.2724C7.79642 12.2868 7.80813 12.3056 7.81398 12.3265Z" fill="#574F35"/>
<path fill-rule="evenodd" clip-rule="evenodd" d="M8.10711 12.4217C8.11108 12.4023 8.09751 12.3984 8.10711 12.3887C8.11671 12.379 8.16932 12.3596 8.17905 12.3692C8.18289 12.3732 8.17905 12.3887 8.17905 12.4076C8.17905 12.4266 8.17905 12.446 8.16932 12.46C8.15575 12.4794 8.11697 12.4892 8.09751 12.4834C8.07806 12.4776 8.07422 12.4504 8.07422 12.445C8.08382 12.4412 8.10711 12.4314 8.10711 12.4217ZM8.43863 12.212C8.43863 12.2023 8.47166 12.1829 8.49111 12.1829C8.52017 12.1829 8.52017 12.2062 8.52414 12.212C8.53374 12.2159 8.53374 12.2081 8.54347 12.2256C8.55319 12.2431 8.56689 12.2741 8.55703 12.2936C8.54718 12.313 8.50852 12.3265 8.49892 12.3226C8.48535 12.3129 8.4426 12.2256 8.43863 12.212Z" fill="#82764F"/>
<path fill-rule="evenodd" clip-rule="evenodd" d="M7.77124 12.4664C7.77124 12.4664 7.81399 12.476 7.87223 12.5247C7.85278 12.5382 7.82359 12.5537 7.82359 12.5537C7.82359 12.5537 7.81975 12.5091 7.77124 12.4663V12.4664Z" fill="#6E6342"/>
<path fill-rule="evenodd" clip-rule="evenodd" d="M7.6761 12.0391C7.66637 12.0295 7.70515 12.0062 7.72845 12.0101C7.75174 12.0139 7.76147 12.0295 7.78669 12.0334C7.8119 12.0372 7.81587 12.0236 7.82509 12.0139C7.8343 12.0042 7.86784 12.0101 7.8736 12.0139C7.87719 12.0182 7.88044 12.0227 7.88333 12.0275C7.88373 12.0201 7.88566 12.0129 7.88899 12.0062C7.89231 11.9996 7.89697 11.9938 7.90266 11.9891C7.9101 11.9836 7.91869 11.9799 7.92778 11.9782C7.93687 11.9765 7.94622 11.9769 7.95514 11.9793C7.95898 11.9929 7.97843 12.0414 7.97459 12.0511C7.97075 12.0609 7.91251 12.0746 7.90266 12.0647C7.91238 12.0881 7.95514 12.1366 7.9609 12.1462C7.96666 12.1558 7.91814 12.1793 7.89882 12.1754C7.87168 12.1735 7.70464 12.0764 7.67558 12.0395L7.6761 12.0391ZM7.93043 11.7168C7.92684 11.707 7.91996 11.6988 7.91098 11.6935C7.89741 11.6897 7.85274 11.6935 7.85274 11.7168C7.85274 11.7401 7.89114 11.8704 7.93427 11.9382C7.98291 12.0062 8.01581 12.0624 8.04883 12.078C8.0592 12.0827 8.07097 12.0834 8.08178 12.0798C8.09259 12.0761 8.10162 12.0686 8.10707 12.0586C8.11091 12.0488 8.12064 11.977 8.1168 11.8081C8.11296 11.6391 8.10707 11.476 8.09734 11.4663C8.08762 11.4566 8.04883 11.4567 8.03526 11.476C8.0217 11.4954 7.93427 11.6878 7.9303 11.7168H7.93043Z" fill="#585136"/>
<path fill-rule="evenodd" clip-rule="evenodd" d="M7.75773 12.711C7.75773 12.711 7.68976 12.6683 7.62372 12.6975C7.56164 12.7266 7.56548 12.8412 7.56548 12.8412C7.57944 12.8467 7.59453 12.8486 7.60943 12.8469C7.62434 12.8452 7.6386 12.8399 7.65098 12.8315C7.69373 12.8024 7.748 12.7539 7.75773 12.7111V12.711Z" fill="#574F35"/>
<path fill-rule="evenodd" clip-rule="evenodd" d="M7.88581 12.8645C7.88197 12.8261 7.84741 12.8261 7.84741 12.8063C7.84979 12.7968 7.85529 12.7884 7.86302 12.7824C7.87074 12.7764 7.88026 12.7732 7.89004 12.7732C7.90949 12.7732 7.92844 12.7965 7.95224 12.8116C7.97554 12.8252 8.01048 12.85 8.01432 12.8796C8.01816 12.9092 7.97592 12.9902 7.92895 12.9902C7.88197 12.9902 7.89592 12.9028 7.8862 12.864L7.88581 12.8645ZM8.2606 12.812C8.2606 12.812 8.1829 12.8353 8.18866 12.812C8.19442 12.7887 8.21208 12.783 8.2373 12.783C8.25011 12.7696 8.26734 12.7612 8.28581 12.7595C8.29638 12.759 8.30675 12.7625 8.31487 12.7693C8.31487 12.7693 8.36735 12.746 8.38284 12.7595C8.39832 12.7731 8.3868 12.7731 8.3964 12.7887C8.40863 12.8061 8.41665 12.826 8.41983 12.847C8.41983 12.8624 8.36159 12.8955 8.31487 12.8897C8.2606 12.8781 8.2702 12.8217 8.2606 12.812ZM8.71295 12.7246C8.71295 12.7246 8.73624 12.7382 8.71692 12.7538C8.70335 12.7673 8.63538 12.7922 8.57701 12.7965C8.51877 12.7965 8.46642 12.8061 8.46642 12.7868C8.46642 12.7675 8.51493 12.7286 8.54399 12.7188C8.54982 12.7115 8.55722 12.7056 8.56564 12.7016C8.57406 12.6976 8.58329 12.6955 8.59263 12.6955C8.61592 12.6955 8.70706 12.6858 8.7324 12.682C8.7557 12.678 8.77516 12.6916 8.76146 12.711C8.7557 12.7246 8.71295 12.7246 8.71295 12.7246ZM8.84696 12.125C8.84696 12.125 8.81778 12.1871 8.78488 12.1871C8.75186 12.1833 8.75186 12.1736 8.75186 12.1638C8.75186 12.1503 8.78488 12.1153 8.78092 12.1056C8.77132 12.1056 8.74789 12.1056 8.75186 12.0823C8.75186 12.0628 8.78488 12.0395 8.81394 12.0439C8.8359 12.0258 8.86323 12.0156 8.89164 12.0148C8.92466 12.0148 8.95372 12.0244 8.95372 12.0439C8.95372 12.0633 8.91532 12.106 8.90124 12.1158C8.88575 12.1313 8.86629 12.1414 8.84696 12.1254V12.125ZM8.40421 13.2726C8.40421 13.2726 8.36581 13.2765 8.36581 13.2959C8.36581 13.3056 8.37541 13.3056 8.38911 13.2998C8.397 13.2994 8.40481 13.298 8.4124 13.2959C8.41624 13.2998 8.41624 13.3192 8.44543 13.3192C8.46939 13.3159 8.49249 13.308 8.5134 13.2959C8.53669 13.2863 8.55615 13.2764 8.55615 13.2575C8.54642 13.2244 8.52696 13.2088 8.49791 13.2088C8.48302 13.2079 8.46817 13.2113 8.45516 13.2185C8.45516 13.2185 8.44543 13.1991 8.4124 13.2185C8.37938 13.238 8.38322 13.238 8.39295 13.2477C8.41036 13.2632 8.4046 13.2733 8.4046 13.2733L8.40421 13.2726ZM8.18482 13.4745C8.18482 13.4648 8.23333 13.4454 8.2469 13.4512C8.26047 13.4551 8.29925 13.5288 8.29925 13.5366C8.29925 13.5464 8.25074 13.5696 8.23128 13.5696C8.21183 13.5696 8.17893 13.5366 8.17893 13.5312C8.17893 13.5274 8.20223 13.5216 8.20223 13.5177C8.20799 13.5081 8.18482 13.4847 8.18482 13.4749V13.4745ZM8.03122 13.191C8.04095 13.1872 8.04095 13.1775 8.05452 13.1677C8.05876 13.1649 8.0636 13.1631 8.06866 13.1624C8.07372 13.1618 8.07887 13.1623 8.0837 13.1639C8.08712 13.1578 8.09186 13.1525 8.09757 13.1485C8.10329 13.1444 8.10983 13.1417 8.11672 13.1405C8.14002 13.1366 8.15948 13.1405 8.15512 13.1502C8.15512 13.1794 8.17458 13.1987 8.17458 13.222C8.17458 13.2453 8.16101 13.2745 8.1125 13.2939C8.06399 13.3075 7.99794 13.3075 7.98821 13.3037C7.97848 13.2998 7.96876 13.2609 7.97848 13.2415C7.98821 13.222 8.01535 13.2008 8.03096 13.191H8.03122Z" fill="#82764F"/>
<path fill-rule="evenodd" clip-rule="evenodd" d="M8.09308 13.2042C8.09308 13.2042 8.06006 13.2237 8.06006 13.2334C8.05713 13.2428 8.05583 13.2526 8.05622 13.2625C8.05622 13.2682 8.09897 13.2586 8.10473 13.2527C8.10665 13.2489 8.09308 13.2143 8.09308 13.2042Z" fill="#6E6342"/>
<path fill-rule="evenodd" clip-rule="evenodd" d="M7.80421 13.1129C7.82354 13.1169 7.85657 13.1129 7.88178 13.1227C7.90124 13.1324 7.91481 13.1518 7.89535 13.1751C7.87589 13.1984 7.85695 13.2334 7.81381 13.2275C7.7653 13.2237 7.71871 13.1984 7.71871 13.179C7.71789 13.1667 7.71953 13.1543 7.72353 13.1427C7.72753 13.131 7.73381 13.1202 7.74201 13.111C7.76146 13.0955 7.77106 13.1053 7.80409 13.1129H7.80421Z" fill="#585136"/>
<path fill-rule="evenodd" clip-rule="evenodd" d="M7.78087 13.1324C7.78087 13.1324 7.71879 13.1809 7.70317 13.2043C7.68372 13.2276 7.58861 13.3479 7.55956 13.3732C7.56921 13.3561 7.58021 13.3399 7.59245 13.3246C7.55405 13.3492 7.52527 13.3862 7.51092 13.4295C7.48762 13.5014 7.64109 13.5402 7.74196 13.5694C7.84282 13.5986 7.88186 13.6078 7.88186 13.6078C7.84473 13.552 7.81285 13.4928 7.78663 13.4311C7.74823 13.3399 7.72839 13.3301 7.75361 13.2874C7.77306 13.2446 7.80225 13.2156 7.80225 13.1826C7.7906 13.1518 7.78087 13.1324 7.78087 13.1324Z" fill="#574F35"/>
<path fill-rule="evenodd" clip-rule="evenodd" d="M5.56727 13.2859C5.5814 13.2885 5.59589 13.2885 5.61002 13.2859C5.63908 13.2819 5.94206 13.1707 6.2586 13.1906C6.49557 13.2049 6.73044 13.2436 6.95953 13.3058C7.35761 13.4107 7.85271 13.6184 8.1731 13.7369C8.25847 13.7698 8.34206 13.8282 8.4035 13.8514C8.64823 13.9466 8.65783 13.9466 8.80158 13.9718C8.97054 13.9951 9.14334 13.9388 9.32394 13.9C9.54526 13.8514 9.92388 13.8281 10.2559 13.7796C10.3633 13.7647 10.4692 13.7407 10.5725 13.7077C10.5725 13.7077 10.3084 13.9718 9.6753 14.0669C9.41941 14.1058 9.15936 14.109 8.90257 14.0766C8.70058 14.0572 8.5667 14.028 8.4657 13.9989C8.35114 13.9659 8.11614 13.8785 7.82686 13.8069C7.62487 13.7545 7.39959 13.7157 7.14142 13.6672C6.50449 13.5506 5.81329 13.4167 5.56702 13.2866L5.56727 13.2859Z" fill="#252211"/>
<path fill-rule="evenodd" clip-rule="evenodd" d="M4.85269 12.0859C4.69909 12.2159 4.53614 12.3402 4.37704 12.4605L3.89742 12.829C3.73435 12.9494 3.57512 13.0737 3.41192 13.1941C3.24872 13.3145 3.08578 13.429 2.91272 13.5397C3.06632 13.4097 3.22926 13.2892 3.39234 13.1708C3.55541 13.0524 3.7245 12.9363 3.88181 12.8162L4.36142 12.4472C4.52642 12.3269 4.68565 12.2026 4.85269 12.0861V12.0859ZM4.00418 13.4451C4.00418 13.4451 4.17698 13.3014 4.39253 13.0995C4.66043 12.8491 4.98862 12.5286 5.09346 12.4705L4.00405 13.4452L4.00418 13.4451Z" fill="#CFB66C"/>
<path fill-rule="evenodd" clip-rule="evenodd" d="M4.00415 13.445C4.08965 13.3596 4.18092 13.2762 4.27218 13.1945L4.41196 13.0742C4.45471 13.0358 4.50335 12.9926 4.54597 12.9499C4.63135 12.8645 4.71493 12.7731 4.80031 12.6858C4.84263 12.6419 4.88737 12.6004 4.93433 12.5615C4.9578 12.5408 4.98388 12.5231 5.01189 12.5091C5.03532 12.4955 5.06053 12.4707 5.09343 12.4663C5.0741 12.4955 5.05081 12.5091 5.03135 12.5343C5.00805 12.5537 4.9886 12.577 4.96927 12.5964C4.92652 12.6391 4.87801 12.6779 4.83525 12.7168C4.74399 12.7945 4.64889 12.8704 4.55762 12.9517C4.46636 13.033 4.38098 13.1206 4.28959 13.2022C4.19065 13.2858 4.09938 13.3673 4.00415 13.4454V13.445ZM5.16537 12.6683C5.16537 12.6683 4.53241 13.2878 4.40223 13.3887L5.16537 12.6683Z" fill="#CFB66C"/>
<path fill-rule="evenodd" clip-rule="evenodd" d="M5.16536 12.6682C5.10842 12.7341 5.04737 12.7964 4.98257 12.8546L4.79057 13.0371C4.72849 13.0992 4.67013 13.1614 4.60421 13.2235C4.53624 13.2817 4.47416 13.3387 4.40222 13.3924L4.58859 13.2099C4.6508 13.1478 4.71877 13.0955 4.78481 13.0333L4.97118 12.8507C5.03518 12.7867 5.09739 12.7245 5.16536 12.6682ZM5.19441 13.0041C5.13607 13.1669 5.06732 13.3258 4.98859 13.4799C4.82552 13.8061 4.58091 14.2138 4.47403 14.4217L5.19441 13.0041Z" fill="#CFB66C"/>
<path fill-rule="evenodd" clip-rule="evenodd" d="M5.19454 13.0043C5.19454 13.0761 5.17508 13.1383 5.15179 13.2004C5.12908 13.2625 5.10319 13.3234 5.07422 13.3829C5.04503 13.4411 5.01201 13.5033 4.97899 13.5597C4.94596 13.616 4.90718 13.6741 4.87799 13.7325L4.6819 14.0781C4.61393 14.1933 4.54788 14.3091 4.47607 14.4198C4.52459 14.2955 4.59063 14.1791 4.65284 14.0645C4.72081 13.9493 4.78289 13.8341 4.84484 13.7149C4.87509 13.6555 4.9023 13.5947 4.92638 13.5325C4.95543 13.4703 4.98449 13.4121 5.00791 13.3558C5.03697 13.2937 5.06027 13.2353 5.08945 13.1791C5.12235 13.1188 5.14961 13.0606 5.19428 13.0043H5.19454Z" fill="#CFB66C"/>
<path fill-rule="evenodd" clip-rule="evenodd" d="M5.88582 14.5964C5.88582 14.5964 5.69382 14.8508 5.71302 15.1731C5.76537 15.0042 5.83142 14.7459 5.88582 14.5964ZM6.06835 14.8514C6.06835 14.8514 6.00038 15.5426 5.94406 15.8825C6.02368 15.4896 6.03916 15.5226 6.06835 14.8514ZM7.34016 15.9233C7.34016 15.9233 7.0528 16.7681 7.04691 17.0028C7.10912 16.7614 7.22944 16.2682 7.34016 15.9226V15.9233Z" fill="#DEC270"/>
<path fill-rule="evenodd" clip-rule="evenodd" d="M8.01196 14.5442C8.01196 14.5442 8.47801 15.3131 8.82758 15.9693C8.73299 15.6391 8.51539 15.0334 8.01196 14.5442Z" fill="#CBAF59"/>
<path fill-rule="evenodd" clip-rule="evenodd" d="M9.26453 15.6761C9.52041 16.1285 9.75116 16.5945 9.95573 17.0722C9.91694 16.7421 9.81198 16.1771 9.26453 15.6761Z" fill="#E3C677"/>
<path fill-rule="evenodd" clip-rule="evenodd" d="M12.946 16.8098C13.0235 16.7613 13.177 16.4971 13.311 16.4311C13.4449 16.3632 13.5459 16.3496 13.6664 16.2156C13.7867 16.0757 13.82 15.9903 14.0838 15.8797C14.4528 15.7204 14.199 15.5145 14.199 15.5145C14.2396 15.4746 14.2831 15.4377 14.329 15.4039C14.4242 15.3321 14.5348 15.2447 14.5252 15.0912C14.5117 14.8331 14.4632 14.4583 14.2514 14.2408C14.4573 14.1981 14.8514 14.169 15.0962 14.1069C15.3796 14.035 15.5098 13.934 15.5098 13.934C15.5098 13.934 15.3467 13.6564 15.6108 13.3768C15.8749 13.0973 16.0904 12.9302 16.2496 12.6175C16.0671 12.5942 15.7888 12.4972 15.0787 12.767C15.117 12.7851 15.154 12.8058 15.1894 12.8291C15.1894 12.8291 14.7526 12.9495 14.5933 13.0836C14.3156 13.3184 14.2806 13.5107 13.9797 13.6544C13.6788 13.7982 13.3758 13.7593 13.1254 13.8758C12.8751 13.9922 12.8381 14.0913 12.7467 14.1341C12.7661 14.1574 12.7428 14.1961 12.7797 14.2292C12.7564 14.2622 12.6205 14.4835 12.4826 14.4835C12.4962 14.536 12.6127 14.5748 12.6127 14.5748C12.6127 14.5748 12.5273 14.637 12.3098 14.6525C12.4204 14.7677 12.5254 14.8932 12.8146 15.0758C12.7913 15.1243 12.6942 15.1962 12.7331 15.2875C12.7759 15.3787 12.8867 15.503 13.3292 15.604C13.1039 15.6136 12.84 15.6661 12.4844 15.6176C12.1291 15.5748 12.0708 15.5496 11.8514 15.604C11.8747 15.6273 11.9368 15.6273 11.9912 15.6894C11.933 15.6932 11.5679 15.6466 11.4436 15.8098C11.3136 15.9787 11.2573 16.2564 11.267 16.4428C11.199 16.4758 11.133 16.5341 11.166 16.6545C11.199 16.775 11.3718 16.8137 11.4825 16.8894C11.5931 16.9709 11.6029 17 11.7078 16.9806C11.8184 16.9574 11.9815 16.8468 12.0767 16.8468C12.172 16.8468 12.2398 16.9186 12.2398 16.9186C12.2398 16.9186 12.4981 16.7943 12.5233 16.8176C12.5466 16.8409 12.5272 16.9904 12.5524 17.0137C12.578 17.0312 12.8689 16.8584 12.9466 16.8098H12.946Z" fill="#ECD592"/>
<path fill-rule="evenodd" clip-rule="evenodd" d="M18.5906 9.03914C17.3771 5.90519 14.377 5.32458 14.377 5.32458H5.81776L5.85078 8.51678H7.55536V15.645H5.81763V18.8314H14.1401C16.1458 18.8314 17.7536 16.8158 17.7536 16.8158C20.3283 13.1615 18.5905 9.03914 18.5905 9.03914H18.5906ZM14.1847 14.6682C14.1847 14.6682 13.5319 15.61 12.8217 15.61H11.4009L11.3672 8.52458H13.1906C13.1906 8.52458 14.0354 8.70122 14.6256 10.373C14.6256 10.373 15.408 12.7666 14.1847 14.6682Z" fill="white" fill-opacity="0.8"/>
</g>
<defs>
<clipPath id="clip0_200_4579">
<rect width="24" height="24" rx="12" fill="white"/>
</clipPath>
</defs>
</svg>
