<svg width="24" height="24" viewBox="0 0 24 24" fill="none" xmlns="http://www.w3.org/2000/svg">
<rect width="24" height="24" rx="12" fill="#E6007A"/>
<path d="M11.9994 6.24488C13.9852 6.24488 15.595 5.30862 15.595 4.15369C15.595 2.99876 13.9852 2.0625 11.9994 2.0625C10.0136 2.0625 8.40376 2.99876 8.40376 4.15369C8.40376 5.30862 10.0136 6.24488 11.9994 6.24488Z" fill="white"/>
<path d="M11.9994 22.0016C13.9852 22.0016 15.595 21.0653 15.595 19.9104C15.595 18.7555 13.9852 17.8192 11.9994 17.8192C10.0136 17.8192 8.40376 18.7555 8.40376 19.9104C8.40376 21.0653 10.0136 22.0016 11.9994 22.0016Z" fill="white"/>
<path d="M6.98865 9.13956C7.98154 7.41987 7.9751 5.55733 6.97425 4.97947C5.9734 4.40162 4.35715 5.32726 3.36426 7.04696C2.37136 8.76666 2.3778 10.6292 3.37865 11.2071C4.3795 11.7849 5.99575 10.8593 6.98865 9.13956Z" fill="white"/>
<path d="M20.6329 17.017C21.6258 15.2973 21.6199 13.4351 20.6197 12.8576C19.6196 12.2801 18.0039 13.2061 17.011 14.9258C16.0181 16.6455 16.024 18.5077 17.0241 19.0852C18.0243 19.6627 19.64 18.7367 20.6329 17.017Z" fill="white"/>
<path d="M6.97475 19.0847C7.9756 18.5068 7.98205 16.6443 6.98915 14.9246C5.99625 13.2049 4.38 12.2793 3.37915 12.8571C2.37831 13.435 2.37186 15.2975 3.36476 17.0172C4.35766 18.7369 5.97391 19.6626 6.97475 19.0847Z" fill="white"/>
<path d="M20.6206 11.2075C21.6208 10.6301 21.6266 8.76784 20.6338 7.04814C19.6409 5.32845 18.0252 4.40248 17.025 4.97995C16.0248 5.55742 16.0189 7.41963 17.0118 9.13933C18.0047 10.859 19.6204 11.785 20.6206 11.2075Z" fill="white"/>
</svg>
