<svg width="24" height="24" viewBox="0 0 24 24" fill="none" xmlns="http://www.w3.org/2000/svg">
<rect width="24" height="24" rx="12" fill="#345D9D"/>
<path d="M11.9471 12.2794L10.6977 16.4925H17.3805C17.4248 16.4909 17.4689 16.4981 17.5104 16.5136C17.5519 16.5291 17.5899 16.5527 17.6223 16.5829C17.6547 16.6131 17.6808 16.6494 17.6991 16.6898C17.7175 16.7301 17.7277 16.7736 17.7292 16.8179V16.9283L17.1481 18.9331C17.1225 19.028 17.0654 19.1112 16.9862 19.1693C16.907 19.2274 16.8104 19.2568 16.7122 19.2528H6.48464L8.19893 13.4126L6.28125 13.9937L6.71709 12.6571L8.63476 12.076L11.0464 3.88232C11.0729 3.78804 11.1303 3.70536 11.2092 3.64744C11.2882 3.58952 11.3843 3.55969 11.4822 3.56271H14.0682C14.1124 3.56116 14.1566 3.56834 14.1981 3.58386C14.2396 3.59938 14.2776 3.62292 14.31 3.65315C14.3423 3.68337 14.3685 3.71968 14.3868 3.76C14.4051 3.80032 14.4153 3.84386 14.4168 3.88813V3.99854L12.3829 10.9138L14.3006 10.3327L13.8938 11.7273L11.9471 12.2794Z" fill="white"/>
</svg>
