<svg width="24" height="24" viewBox="0 0 24 24" fill="none" xmlns="http://www.w3.org/2000/svg">
<rect width="24" height="24" rx="12" fill="#8247E5"/>
<path d="M12.3534 17.1644C12.6594 16.9859 12.8572 16.6434 12.8807 16.251L12.8553 13.3947L12.891 11.4871L12.8436 8.66879C12.8452 8.3145 13.0429 7.97198 13.371 7.75541L15.3053 6.69021C15.6113 6.5117 16.0257 6.49719 16.3682 6.69495L18.2711 7.79358C18.5755 7.96936 18.7921 8.29737 18.8066 8.7117L18.8132 10.8975C18.8116 11.2518 18.6139 11.5943 18.2859 11.8109L16.3515 12.8761C16.0455 13.0546 15.6312 13.0691 15.2887 12.8713L14.0328 12.1462L14.0351 14.0758L15.329 14.8229C15.6335 14.9987 16.0258 15.0222 16.3919 14.8276L19.9384 12.8157C20.2445 12.6372 20.4422 12.2947 20.4658 11.9023L20.4408 7.72693C20.4643 7.33457 20.2477 7.00656 19.9433 6.83078L16.3659 4.76535C16.0614 4.58957 15.669 4.56602 15.303 4.76062L11.7345 6.81058C11.4284 6.9891 11.2307 7.33162 11.2071 7.72397L11.2165 10.5203L11.2188 12.4499L11.2281 15.2462C11.2266 15.6005 11.0288 15.943 10.7008 16.1595L8.80454 17.2467C8.4985 17.4252 8.08417 17.4397 7.74165 17.242L5.83877 16.1434C5.5343 15.9676 5.31773 15.6396 5.30323 15.2252L5.27463 13.0775C5.27621 12.7232 5.47396 12.3807 5.80198 12.1641L7.69824 11.0769C8.00428 10.8984 8.41861 10.8839 8.76113 11.0817L9.97898 11.7848L9.97667 9.8552L8.72076 9.13011C8.4163 8.95433 8.02395 8.93078 7.65788 9.12537L4.08938 11.1753C3.78334 11.3539 3.58559 11.6964 3.56204 12.0887L3.57096 16.2041C3.56939 16.5584 3.76398 16.9245 4.1065 17.1222L7.72199 19.2096C8.02645 19.3854 8.4188 19.409 8.78487 19.2144L12.3534 17.1644Z" fill="white"/>
</svg>
