<svg width="24" height="24" viewBox="0 0 24 24" fill="none" xmlns="http://www.w3.org/2000/svg">
<rect width="24" height="24" rx="12" fill="#F0B90B"/>
<path d="M6.63269 12.0466L6.64135 15.2197L9.3375 16.8063V18.6639L5.06346 16.1572V11.1188L6.63269 12.0466ZM6.63269 8.87356V10.7226L5.0625 9.79375V7.94472L6.63269 7.01587L8.21058 7.94472L6.63269 8.87356ZM10.4635 7.94472L12.0337 7.01587L13.6115 7.94472L12.0337 8.87356L10.4635 7.94472Z" fill="white"/>
<path d="M7.76731 14.562V12.7043L9.3375 13.6332V15.4822L7.76731 14.562ZM10.4635 17.4716L12.0337 18.4005L13.6115 17.4716V19.3207L12.0337 20.2495L10.4635 19.3207V17.4716ZM15.8635 7.94472L17.4337 7.01587L19.0115 7.94472V9.79375L17.4337 10.7226V8.87356L15.8635 7.94472ZM17.4337 15.2197L17.4423 12.0466L19.0125 11.1178V16.1563L14.7385 18.663V16.8053L17.4337 15.2197Z" fill="white"/>
<path d="M16.3077 14.562L14.7375 15.4822V13.6332L16.3077 12.7043V14.562Z" fill="white"/>
<path d="M16.3077 9.53125L16.3163 11.3889L13.6125 12.9755V16.1562L12.0423 17.0764L10.4721 16.1562V12.9755L7.76827 11.3889V9.53125L9.3452 8.6024L12.0327 10.1966L14.7365 8.6024L16.3144 9.53125H16.3077ZM7.76731 6.35913L12.0337 3.84375L16.3077 6.35913L14.7375 7.28798L12.0337 5.69375L9.3375 7.28798L7.76731 6.35913Z" fill="white"/>
</svg>
