<svg width="24" height="24" viewBox="0 0 24 24" fill="none" xmlns="http://www.w3.org/2000/svg">
<rect width="24" height="24" rx="12" fill="#FF060A"/>
<path d="M20.2603 9.95857C19.4692 9.2282 18.375 8.11287 17.4838 7.32185L17.4311 7.28494C17.3433 7.21448 17.2444 7.15922 17.1384 7.12146C14.9895 6.72068 4.98838 4.85125 4.79326 4.87498C4.73859 4.88264 4.68633 4.90246 4.64033 4.93299L4.59023 4.97254C4.52855 5.03519 4.48169 5.11087 4.45313 5.19402L4.43994 5.2283V5.41551V5.44451C5.56582 8.57957 10.0113 18.8496 10.8867 21.2596C10.9395 21.423 11.0396 21.7342 11.2269 21.75H11.269C11.3692 21.75 11.7964 21.1857 11.7964 21.1857C11.7964 21.1857 19.4323 11.9256 20.2049 10.9394C20.3049 10.818 20.3932 10.6873 20.4686 10.5492C20.4878 10.4411 20.4787 10.3299 20.4422 10.2264C20.4057 10.1229 20.343 10.0307 20.2603 9.95857ZM13.7555 11.037L17.0145 8.33435L18.9261 10.0957L13.7555 11.037ZM12.4898 10.8603L6.87891 6.26189L15.9571 7.93621L12.4898 10.8603ZM12.9961 12.0653L18.7389 11.1398L12.1734 19.05L12.9961 12.0653ZM6.11689 6.72068L12.0205 11.7304L11.1662 19.0553L6.11689 6.72068Z" fill="white"/>
</svg>
