<svg width="24" height="24" viewBox="0 0 24 24" fill="none" xmlns="http://www.w3.org/2000/svg">
<rect width="24" height="24" rx="12" fill="#8247E5"/>
<path d="M12.3535 17.1644C12.6595 16.9859 12.8573 16.6434 12.8808 16.251L12.8554 13.3947L12.8911 11.4871L12.8437 8.66879C12.8453 8.3145 13.0431 7.97198 13.3711 7.75541L15.3054 6.69021C15.6114 6.5117 16.0258 6.49719 16.3683 6.69495L18.2712 7.79358C18.5756 7.96936 18.7922 8.29737 18.8067 8.7117L18.8133 10.8975C18.8118 11.2518 18.614 11.5943 18.286 11.8109L16.3517 12.8761C16.0456 13.0546 15.6313 13.0691 15.2888 12.8713L14.0329 12.1462L14.0352 14.0758L15.3292 14.8229C15.6336 14.9987 16.026 15.0222 16.392 14.8276L19.9386 12.8157C20.2446 12.6372 20.4424 12.2947 20.4659 11.9023L20.4409 7.72693C20.4644 7.33457 20.2479 7.00656 19.9434 6.83078L16.366 4.76535C16.0615 4.58957 15.6692 4.56602 15.3031 4.76062L11.7346 6.81058C11.4286 6.9891 11.2308 7.33162 11.2073 7.72397L11.2166 10.5203L11.2189 12.4499L11.2283 15.2462C11.2267 15.6005 11.0289 15.943 10.7009 16.1595L8.80466 17.2467C8.49862 17.4252 8.08429 17.4397 7.74177 17.242L5.83889 16.1434C5.53443 15.9676 5.31785 15.6396 5.30335 15.2252L5.27476 13.0775C5.27633 12.7232 5.47409 12.3807 5.8021 12.1641L7.69837 11.0769C8.00441 10.8984 8.41873 10.8839 8.76125 11.0817L9.9791 11.7848L9.97679 9.8552L8.72088 9.13011C8.41642 8.95433 8.02407 8.93078 7.658 9.12537L4.0895 11.1753C3.78346 11.3539 3.58571 11.6964 3.56216 12.0887L3.57109 16.2041C3.56951 16.5584 3.76411 16.9245 4.10663 17.1222L7.72211 19.2096C8.02657 19.3854 8.41892 19.409 8.78499 19.2144L12.3535 17.1644Z" fill="white"/>
</svg>
