<svg width="24" height="24" viewBox="0 0 24 24" fill="none" xmlns="http://www.w3.org/2000/svg">
<rect width="24" height="24" rx="12" fill="#F00500"/>
<path d="M15.0213 7.09287C15.4187 6.52894 15.8657 6.00007 16.3537 5.51211L16.2368 5.45367C15.9768 5.32511 15.7109 5.20531 15.4391 5.10304C12.9 4.1242 10.0628 4.27322 7.6376 5.51504C8.14309 5.99715 8.60183 6.5231 9.01382 7.08411C9.04011 7.07534 9.06643 7.06657 9.09564 7.05489C9.82612 6.80068 10.4689 6.67504 11.3075 6.61952C11.5851 6.60199 12.4354 6.60199 12.6633 6.61952C13.4201 6.6692 14.171 6.81529 14.8957 7.05197L15.0213 7.09287Z" fill="#F00500"/>
<path d="M19.2406 19.4643C19.9564 18.6169 20.5087 17.6439 20.8769 16.595C21.4963 14.8068 21.5401 12.8724 21.0113 11.0579C20.7833 10.3041 20.4619 9.58235 20.0499 8.91031C19.9594 8.76421 19.7578 8.46034 19.6818 8.35807L19.638 8.29963L19.6321 8.29378C19.337 9.59404 18.9659 10.7307 18.8753 11.0024C18.8762 11.0042 18.8771 11.0062 18.8781 11.0084C18.8803 11.0136 18.8829 11.0197 18.887 11.0258C18.9016 11.0608 18.925 11.1047 18.9513 11.1485C19.5941 12.2968 19.9331 13.3809 20.0587 14.7074C20.0675 14.798 20.0792 14.9821 20.085 15.1136C20.0873 15.1481 20.0892 15.1827 20.0909 15.2155C20.0936 15.2658 20.0961 15.3119 20.0996 15.3473C20.1007 15.3596 20.1014 15.3702 20.102 15.3792C20.103 15.3938 20.1037 15.4044 20.1055 15.4116C20.1171 15.4817 20.1025 15.7768 20.0792 15.9375C20.0295 16.2736 19.9243 16.6096 19.7578 16.9865C19.7344 17.0391 19.5591 17.3518 19.5152 17.419C19.5006 17.4394 19.486 17.4628 19.4772 17.4862C19.4772 17.492 19.4714 17.4978 19.4656 17.4978C19.4597 17.4978 19.4539 17.5066 19.4539 17.5125C19.4539 17.5183 19.448 17.5271 19.4422 17.5271C19.4363 17.5271 19.4334 17.5329 19.4363 17.5388C19.4393 17.5446 19.4363 17.5534 19.4276 17.5563C19.4159 17.5592 19.413 17.5651 19.4159 17.5709C19.4188 17.5767 19.413 17.5826 19.4042 17.5855C19.3954 17.5884 19.3896 17.5972 19.3925 17.6001C19.3984 17.606 19.3896 17.6147 19.3808 17.6206C19.3691 17.6264 19.3633 17.6323 19.3691 17.6323C19.3896 17.6323 19.1208 17.9946 18.9396 18.205C18.6883 18.4913 18.4195 18.7601 18.1332 19.0143C16.3099 20.598 13.572 21.682 11.7166 21.5564C9.93716 21.4337 7.58793 20.3701 5.85523 18.8975C4.79749 17.9975 4.12253 17.08 3.90338 16.2473C3.83326 15.9814 3.82157 15.7798 3.84494 15.3561C3.84494 15.3473 3.84567 15.3378 3.84641 15.3283C3.84714 15.3188 3.84787 15.3093 3.84787 15.3006C3.93552 13.8863 4.30369 12.5569 4.98449 11.1777C4.99618 11.1573 5.00787 11.1339 5.01664 11.1134C4.88807 10.7307 4.54329 9.67001 4.26278 8.46326C4.18097 8.57137 4.01149 8.83434 3.87416 9.06809C3.57613 9.57943 3.32776 10.1171 3.12907 10.6752C2.0801 13.6877 2.70539 17.0303 4.76535 19.4643C5.15397 19.9201 5.58349 20.338 6.04516 20.7178C7.12627 21.5885 8.38562 22.2109 9.73555 22.5382C11.2257 22.8976 12.7802 22.8976 14.2704 22.5382C15.6174 22.2109 16.8797 21.5885 17.9608 20.7178C18.4224 20.338 18.852 19.9201 19.2406 19.4643Z" fill="#F00500"/>
<path d="M17.0842 13.1032C17.0755 13.15 16.9381 13.2902 16.8008 13.3925C16.3976 13.6876 15.6759 13.9623 14.9425 14.0938C14.5246 14.1697 14.1068 14.1814 13.9811 14.1201C13.8993 14.0792 13.8876 14.047 13.9169 13.9418C13.9782 13.7227 14.1769 13.4831 14.4866 13.2581C14.6444 13.1441 15.2843 12.7555 15.5824 12.5919C16.0732 12.3231 16.4706 12.1624 16.7394 12.1244C16.8242 12.1127 16.9264 12.1098 16.9586 12.1244C17.0112 12.1448 17.0696 12.2997 17.093 12.4867C17.1047 12.5861 17.0988 13.0243 17.0842 13.1032Z" fill="black"/>
<path d="M10.2002 14.0704C10.1826 14.1055 10.095 14.1434 9.99564 14.1581C9.89629 14.1727 9.59241 14.1639 9.42002 14.1434C8.80057 14.0616 8.14314 13.8717 7.66394 13.638C7.39513 13.5065 7.20228 13.375 7.0591 13.2318L6.97729 13.1471L6.96852 13.036C6.95391 12.8432 6.95684 12.5393 6.98021 12.4312C6.99482 12.3406 7.02696 12.253 7.07079 12.1741C7.09417 12.1449 7.09417 12.1449 7.19936 12.1449C7.32792 12.1449 7.43603 12.1653 7.61135 12.2208C7.97075 12.3319 8.50546 12.6007 9.15705 12.9922C9.69468 13.3136 9.89629 13.4714 10.0512 13.6876C10.1563 13.822 10.2265 14.012 10.2002 14.0704Z" fill="black"/>
<path d="M14.3376 18.1377C14.3376 18.1465 14.3026 18.2867 14.2587 18.4533C14.2149 18.6198 14.1798 18.7542 14.1798 18.7601L14.1758 18.7605C14.1453 18.7632 14.1171 18.7658 14.0863 18.763H13.9928L13.8643 19.0669C13.7941 19.2334 13.7299 19.3883 13.7211 19.4117L13.7036 19.4526L13.5808 19.2539V18.4445L13.5575 18.4504C13.5078 18.4621 13.1542 18.5088 12.9994 18.5234C12.3595 18.5877 11.7167 18.5731 11.0797 18.4825C10.9774 18.4679 10.8897 18.4562 10.8868 18.4591C10.8839 18.4621 10.8868 18.6491 10.8927 18.8799L10.9014 19.2948L10.8518 19.3708C10.8386 19.3912 10.8255 19.4102 10.8156 19.4245C10.8057 19.4387 10.7992 19.4482 10.7992 19.4497C10.7904 19.4584 10.7612 19.4117 10.694 19.2773C10.6209 19.137 10.5683 18.988 10.5304 18.8331L10.5099 18.7484L10.4193 18.7542L10.3287 18.763L10.3054 18.6549C10.2937 18.5965 10.2791 18.5059 10.2732 18.4562L10.2645 18.3627L10.1885 18.2955L10.1884 18.2954C10.1446 18.2575 10.1008 18.2195 10.0921 18.2137C10.0775 18.202 10.0716 18.1816 10.0716 18.164V18.129L10.8021 18.1348L10.8255 18.2108L10.9511 18.2166C10.9985 18.2186 11.1154 18.2219 11.2476 18.2256L11.2509 18.2257C11.3132 18.2275 11.3788 18.2294 11.442 18.2312L11.8072 18.24L11.9007 18.0939L11.9972 17.9478H12.1199L12.114 17.34L11.9533 17.2699C11.4361 17.042 11.1323 16.7819 11.0183 16.4664C10.9954 16.4034 10.9949 16.3797 10.9895 16.1043L10.9891 16.0865C10.9862 15.7973 10.9862 15.771 11.0066 15.7067C11.0475 15.5606 11.1615 15.4466 11.3076 15.4086C11.3573 15.394 11.4887 15.394 12.1783 15.394L12.9906 15.397L13.0812 15.4408C13.1893 15.4934 13.239 15.5314 13.3003 15.6132C13.3705 15.7067 13.3909 15.7797 13.3909 15.958C13.3909 16.2122 13.3734 16.4313 13.3471 16.519C13.3091 16.6388 13.2507 16.7527 13.1776 16.855C13.0315 17.042 12.7656 17.229 12.5231 17.3137L12.453 17.34L12.4588 17.9536L12.5874 17.9653L12.675 18.0968L12.7598 18.2283H13.1513C13.3675 18.2283 13.5575 18.2312 13.575 18.2341C13.6042 18.24 13.6101 18.2371 13.6393 18.1874L13.6743 18.1348H14.0104C14.2617 18.1231 14.3376 18.129 14.3376 18.1377Z" fill="black"/>
<path d="M12.7949 18.9763C12.7393 19.0085 12.7014 19.0231 12.6926 19.0172C12.6876 19.0156 12.6721 19.0034 12.6516 18.9873C12.6362 18.9752 12.6179 18.9609 12.5991 18.9471L12.5202 18.8828L12.4384 18.9705L12.4162 18.9945C12.2595 19.1641 12.252 19.1722 12.2017 19.175C12.1199 19.1838 12.1024 19.1692 12.003 19.0201C11.9504 18.9442 11.9095 18.8799 11.9095 18.8799C11.9095 18.8799 11.8715 18.874 11.8277 18.8711L11.7459 18.8624L11.6699 19.0201L11.6027 18.9997C11.5501 18.9822 11.4975 18.9617 11.4478 18.9383L11.3602 18.8945V18.728L12.9147 18.7338L12.9176 18.8127L12.9178 18.8189C12.9189 18.8539 12.9196 18.8746 12.9118 18.8916C12.9006 18.9163 12.8714 18.9328 12.7998 18.9735L12.7949 18.9763Z" fill="black"/>
<path d="M20.0763 15.1135C20.0704 14.982 20.0587 14.7979 20.05 14.7073C19.9243 13.3808 19.5854 12.2968 18.9426 11.1484C18.9163 11.1046 18.8929 11.0608 18.8783 11.0257C18.8724 11.0169 18.8695 11.0082 18.8666 11.0023C18.9572 10.7306 19.3282 9.59397 19.6234 8.29371C20.0237 6.52887 20.2779 4.46599 19.5006 3.84654C19.5006 3.84654 18.1566 3.7472 16.3567 5.51204C15.8687 6 15.4216 6.52887 15.0243 7.0928L14.8986 7.0519C14.174 6.81522 13.423 6.66912 12.6663 6.61945C12.4383 6.60192 11.5881 6.60192 11.3105 6.61945C10.4719 6.67497 9.82907 6.80061 9.09859 7.05482C9.06937 7.06651 9.04307 7.07527 9.01677 7.08404C8.60478 6.52303 8.14604 5.99708 7.64055 5.51496C5.76759 3.74136 4.37383 3.84362 4.37383 3.84362C3.54985 4.48352 3.83035 6.6399 4.25695 8.46319C4.53746 9.66994 4.88225 10.7306 5.01081 11.1134C5.00205 11.1338 4.99036 11.1572 4.97867 11.1777C4.29786 12.5568 3.9297 13.8863 3.84204 15.3005C4.60466 15.1895 6.70553 15.0638 8.28045 16.7585C8.28045 16.7585 9.32065 14.0119 12.1257 14.0119C14.9308 14.0119 15.5297 16.7585 15.5297 16.7585C17.3881 15.2245 19.3896 15.2742 20.0909 15.3472C20.0879 15.2888 20.0821 15.2011 20.0763 15.1135ZM5.56306 10.0118C5.56306 10.0118 4.47025 7.27981 4.75076 5.7195C4.79751 5.45653 4.88517 5.22569 5.0225 5.05038C5.0225 5.05038 6.26139 5.1731 8.25999 7.39376C8.25999 7.39376 7.88014 7.57784 7.37173 7.96938C7.37173 7.96938 7.36881 7.9723 7.36588 7.9723C6.81364 8.39598 6.10653 9.06802 5.56306 10.0118ZM10.2002 14.0704C10.1826 14.1054 10.095 14.1434 9.99562 14.158C9.89627 14.1726 9.59239 14.1639 9.42 14.1434C8.80055 14.0616 8.14312 13.8717 7.66392 13.6379C7.3951 13.5064 7.20226 13.3749 7.05908 13.2318L6.97727 13.147L6.9685 13.036C6.95389 12.8432 6.95682 12.5393 6.98019 12.4312C6.9948 12.3406 7.02694 12.2529 7.07077 12.174C7.09414 12.1448 7.09415 12.1448 7.19933 12.1448C7.3279 12.1448 7.43601 12.1653 7.61133 12.2208C7.97072 12.3318 8.50544 12.6006 9.15703 12.9922C9.69466 13.3136 9.89627 13.4714 10.0511 13.6876C10.1563 13.822 10.2264 14.0119 10.2002 14.0704ZM17.0842 13.1032C17.0754 13.15 16.9381 13.2902 16.8008 13.3925C16.3976 13.6876 15.6758 13.9622 14.9424 14.0937C14.5246 14.1697 14.1068 14.1814 13.9811 14.12C13.8993 14.0791 13.8876 14.047 13.9168 13.9418C13.9782 13.7226 14.1769 13.4831 14.4866 13.2581C14.6444 13.1441 15.2843 12.7555 15.5823 12.5919C16.0732 12.323 16.4706 12.1623 16.7394 12.1244C16.8242 12.1127 16.9264 12.1097 16.9586 12.1244C17.0112 12.1448 17.0696 12.2997 17.093 12.4867C17.1047 12.586 17.0988 13.0243 17.0842 13.1032ZM16.5992 7.96938L16.5933 7.96646C16.1024 7.57492 15.7343 7.39084 15.7343 7.39084C17.6657 5.17018 18.8607 5.04746 18.8607 5.04746C18.9922 5.22569 19.077 5.4536 19.1237 5.71658C19.3955 7.27688 18.3406 10.0118 18.3406 10.0118C17.8994 9.22581 17.3063 8.53039 16.5992 7.96938Z" fill="#FFA409"/>
<path d="M7.37169 7.96649C7.88011 7.57495 8.25996 7.39087 8.25996 7.39087C6.26136 5.17021 5.02247 5.04749 5.01954 5.04749C4.88221 5.2228 4.79455 5.45363 4.7478 5.71661C4.9874 5.68739 6.10065 5.67862 7.36585 7.96941C7.36877 7.96941 7.37169 7.96649 7.37169 7.96649Z" fill="#FF9300"/>
<path d="M16.5991 7.96941C17.8205 5.68154 18.8987 5.68739 19.1266 5.71661C19.0798 5.45363 18.9951 5.22572 18.8607 5.04749C18.8607 5.04749 17.6656 5.17021 15.7342 7.39087C15.7342 7.39087 16.1024 7.57495 16.5933 7.96649L16.5991 7.96941Z" fill="#FF9300"/>
<path d="M5.56305 10.0119C6.10653 9.06521 6.81364 8.39609 7.3688 7.96948C6.10361 5.68162 4.98743 5.68746 4.75076 5.71668C4.47025 7.27991 5.56305 10.0119 5.56305 10.0119Z" fill="#FF8300"/>
<path d="M16.5992 7.96948C17.3092 8.53049 17.8994 9.22299 18.3436 10.0119C18.3436 10.0119 19.3984 7.27991 19.1266 5.71668C18.8958 5.68746 17.8205 5.68162 16.5992 7.96948Z" fill="#FF8300"/>
<path d="M8.49081 11.5283C8.49081 11.5283 7.55579 11.5868 7.67267 10.8563C7.78955 10.1258 8.52003 10.0381 8.72456 10.0674C8.9291 10.0966 9.74724 10.3888 9.60114 11.0024C9.47975 11.5122 9.31802 11.5177 9.19975 11.5218C9.17567 11.5226 9.1534 11.5234 9.13363 11.5283C9.01676 11.5575 8.49081 11.5283 8.49081 11.5283Z" fill="white"/>
<path d="M15.3865 11.5283C15.3865 11.5283 14.4515 11.5868 14.5684 10.8563C14.6853 10.1258 15.4158 10.0381 15.6203 10.0674C15.8248 10.0966 16.643 10.3888 16.4969 11.0024C16.3755 11.5122 16.2138 11.5177 16.0955 11.5218C16.0714 11.5226 16.0491 11.5234 16.0294 11.5283C15.9125 11.5575 15.3865 11.5283 15.3865 11.5283Z" fill="white"/>
<path fill-rule="evenodd" clip-rule="evenodd" d="M20.0961 15.3791C20.0971 15.3938 20.0978 15.4043 20.0996 15.4116C20.1113 15.4817 20.0967 15.7768 20.0791 15.9375C20.0295 16.2735 19.9243 16.6095 19.7577 16.9865C19.7344 17.0391 19.559 17.3517 19.5152 17.4189C19.5006 17.4394 19.486 17.4627 19.4772 17.4861C19.4772 17.492 19.4714 17.4978 19.4655 17.4978C19.4597 17.4978 19.4539 17.5066 19.4539 17.5124C19.4539 17.5183 19.448 17.527 19.4422 17.527C19.4363 17.527 19.4334 17.5329 19.4363 17.5387C19.4392 17.5446 19.4363 17.5533 19.4276 17.5562C19.4159 17.5592 19.4129 17.565 19.4159 17.5709C19.4188 17.5767 19.4129 17.5825 19.4042 17.5855C19.3954 17.5884 19.3896 17.5972 19.3925 17.6001C19.3983 17.6059 19.3896 17.6147 19.3808 17.6205C19.3691 17.6264 19.3633 17.6322 19.3691 17.6322C19.3896 17.6322 19.1208 17.9945 18.9396 18.2049C18.6883 18.4913 18.4195 18.7601 18.1331 19.0143C16.3099 20.598 13.572 21.682 11.7166 21.5564C9.93714 21.4336 7.58791 20.3701 5.85521 18.8974C4.79747 17.9975 4.12251 17.08 3.90336 16.2472C3.83324 15.9813 3.82155 15.7797 3.84493 15.356C3.84493 15.3473 3.84566 15.3378 3.84639 15.3283C3.84712 15.3188 3.84785 15.3093 3.84785 15.3005C4.60755 15.1895 6.71134 15.0668 8.28333 16.7586C8.28333 16.7586 9.32354 14.012 12.1286 14.012C14.9336 14.012 15.5326 16.7586 15.5326 16.7586C17.391 15.2246 19.3925 15.2713 20.0938 15.3473C20.0949 15.3595 20.0956 15.3701 20.0961 15.3791ZM12.6925 19.0172C12.7013 19.0231 12.7393 19.0084 12.7948 18.9763C12.87 18.9336 12.9002 18.9168 12.9118 18.8916C12.9199 18.8737 12.9187 18.8515 12.9175 18.8127L12.9146 18.7338L11.3601 18.7279V18.8945L11.4478 18.9383C11.4975 18.9617 11.55 18.9821 11.6026 18.9997L11.6698 19.0201L11.7458 18.8624L11.8276 18.8711C11.8715 18.874 11.9094 18.8799 11.9094 18.8799C11.9094 18.8799 11.9503 18.9442 12.0029 19.0201C12.1023 19.1692 12.1198 19.1838 12.2016 19.175C12.252 19.1722 12.2595 19.1641 12.4161 18.9945C12.4232 18.9868 12.4306 18.9788 12.4383 18.9705L12.5201 18.8828L12.599 18.9471C12.6178 18.9609 12.6361 18.9752 12.6515 18.9873C12.672 19.0034 12.6875 19.0155 12.6925 19.0172ZM14.1769 18.7572C14.1769 18.7513 14.2119 18.6169 14.2557 18.4504L14.2604 18.4329C14.3023 18.2767 14.3379 18.1437 14.3463 18.1465C14.3463 18.1377 14.2704 18.1348 14.0103 18.1348H13.6743L13.6392 18.1874C13.61 18.2371 13.6042 18.24 13.5749 18.2341C13.5574 18.2312 13.3675 18.2283 13.1513 18.2283H12.7597L12.675 18.0968L12.5873 17.9653L12.4588 17.9536L12.4529 17.34L12.523 17.3137C12.7656 17.229 13.0315 17.042 13.1776 16.855C13.2506 16.7527 13.309 16.6388 13.347 16.519C13.3733 16.4313 13.3909 16.2122 13.3909 15.958C13.3909 15.7797 13.3704 15.7067 13.3003 15.6132C13.2389 15.5314 13.1892 15.4934 13.0811 15.4408L12.9906 15.3969L12.1783 15.394C11.4887 15.394 11.3572 15.394 11.3075 15.4086C11.1614 15.4466 11.0475 15.5606 11.0066 15.7067C10.9861 15.771 10.9861 15.7973 10.989 16.0865L10.9894 16.1043C10.9949 16.3797 10.9954 16.4034 11.0183 16.4664C11.1322 16.7819 11.4361 17.042 11.9533 17.2699L12.114 17.34L12.1198 17.9478H11.9971L11.9007 18.0939L11.8072 18.24L11.4419 18.2312C11.3776 18.2293 11.3109 18.2274 11.2476 18.2256C11.1154 18.2219 10.9985 18.2186 10.9511 18.2166L10.8254 18.2108L10.802 18.1348L10.0715 18.1289V18.164C10.0715 18.1815 10.0774 18.202 10.092 18.2137C10.1008 18.2195 10.1445 18.2575 10.1883 18.2954L10.1884 18.2955L10.2644 18.3627L10.2732 18.4562C10.279 18.5059 10.2936 18.5965 10.3053 18.6549L10.3287 18.763L10.4193 18.7542L10.5098 18.7484L10.5303 18.8331C10.5683 18.988 10.6209 19.137 10.6939 19.2773C10.7611 19.4117 10.7903 19.4584 10.7991 19.4497C10.7991 19.4482 10.8057 19.4387 10.8155 19.4245C10.8254 19.4102 10.8386 19.3912 10.8517 19.3708L10.9014 19.2948L10.8926 18.8799C10.8868 18.649 10.8838 18.462 10.8868 18.4591C10.8897 18.4562 10.9773 18.4679 11.0796 18.4825C11.7166 18.5731 12.3594 18.5877 12.9993 18.5234C13.1542 18.5088 13.5077 18.462 13.5574 18.4504L13.5808 18.4445V19.2539L13.7035 19.4526L13.721 19.4117C13.7298 19.3883 13.7941 19.2334 13.8642 19.0669L13.9899 18.7601H14.0834C14.1142 18.7629 14.1423 18.7603 14.1728 18.7575L14.1769 18.7572Z" fill="white"/>
</svg>
