<svg width="24" height="24" viewBox="0 0 24 24" fill="none" xmlns="http://www.w3.org/2000/svg">
<rect width="24" height="24" rx="12" fill="#FF060A"/>
<path d="M20.2603 9.95863C19.4692 9.22826 18.375 8.11293 17.4838 7.32192L17.4311 7.285C17.3433 7.21454 17.2444 7.15929 17.1384 7.12153C14.9895 6.72074 4.98838 4.85131 4.79326 4.87504C4.73859 4.8827 4.68633 4.90252 4.64033 4.93305L4.59023 4.9726C4.52855 5.03525 4.48169 5.11093 4.45313 5.19408L4.43994 5.22836V5.41557V5.44457C5.56582 8.57963 10.0113 18.8497 10.8867 21.2596C10.9395 21.4231 11.0396 21.7342 11.2269 21.75H11.269C11.3692 21.75 11.7964 21.1858 11.7964 21.1858C11.7964 21.1858 19.4323 11.9256 20.2049 10.9395C20.3049 10.818 20.3932 10.6874 20.4686 10.5493C20.4878 10.4412 20.4787 10.33 20.4422 10.2265C20.4057 10.123 20.343 10.0307 20.2603 9.95863ZM13.7555 11.0371L17.0145 8.33442L18.9261 10.0957L13.7555 11.0371ZM12.4898 10.8604L6.87891 6.26195L15.9571 7.93627L12.4898 10.8604ZM12.9961 12.0654L18.7389 11.1399L12.1734 19.05L12.9961 12.0654ZM6.11689 6.72074L12.0205 11.7305L11.1662 19.0553L6.11689 6.72074Z" fill="white"/>
</svg>
