<svg width="24" height="24" viewBox="0 0 24 24" fill="none" xmlns="http://www.w3.org/2000/svg">
<rect width="24" height="24" rx="12" fill="#ECEFF0"/>
<path fill-rule="evenodd" clip-rule="evenodd" d="M5.46375 3.9317L1.70296 11.8154C1.68865 11.8447 1.68412 11.8778 1.69002 11.9099C1.69592 11.942 1.71196 11.9713 1.73577 11.9937L11.8927 21.707C11.9216 21.7346 11.96 21.75 12 21.75C12.04 21.75 12.0784 21.7346 12.1073 21.707L22.2642 11.9943C22.288 11.9719 22.3041 11.9426 22.31 11.9105C22.3159 11.8784 22.3114 11.8453 22.297 11.816L18.5363 3.9323C18.5241 3.90582 18.5046 3.8834 18.48 3.86769C18.4555 3.85199 18.4269 3.84369 18.3977 3.84376H5.60351C5.57419 3.8434 5.5454 3.85151 5.5206 3.86711C5.4958 3.88271 5.47606 3.90514 5.46375 3.9317Z" fill="#50AF95"/>
<path fill-rule="evenodd" clip-rule="evenodd" d="M13.305 12.625C13.2321 12.6304 12.8553 12.6529 12.0149 12.6529C11.3465 12.6529 10.8719 12.6328 10.7054 12.625C8.12228 12.5116 6.19419 12.0628 6.19419 11.5255C6.19419 10.9882 8.12228 10.54 10.7054 10.4248V12.178C10.8744 12.1901 11.3581 12.2186 12.0265 12.2186C12.8286 12.2186 13.2302 12.1853 13.3026 12.1786V10.426C15.8802 10.5406 17.8041 10.9894 17.8041 11.5255C17.8041 12.0616 15.8808 12.5103 13.3026 12.6244L13.305 12.625ZM13.305 10.2447V8.67584H16.9023V6.28345H7.1081V8.67584H10.7048V10.2441C7.78139 10.3781 5.58289 10.956 5.58289 11.6486C5.58289 12.3411 7.78139 12.9185 10.7048 13.0531V18.0805H13.3044V13.0513C16.2211 12.9173 18.416 12.3399 18.416 11.648C18.416 10.956 16.2229 10.3787 13.3044 10.2441L13.305 10.2447Z" fill="white"/>
</svg>
