<svg width="24" height="24" viewBox="0 0 24 24" fill="none" xmlns="http://www.w3.org/2000/svg">
<path d="M20.9868 3.87197C22.6266 5.76359 23.601 7.97865 23.9074 10.5049C24.1971 12.9111 23.8045 15.1874 22.7631 17.3265C22.3753 18.1253 21.8989 18.8628 21.3435 19.5416C20.2829 20.8427 19.0069 21.8375 17.5227 22.5432C16.6728 22.9475 15.7726 23.1901 14.8701 23.4277C14.1423 23.6213 13.4146 23.8271 12.6652 23.9178C10.4149 24.1898 8.27226 23.7879 6.23497 22.6975C5.23188 22.1609 4.31738 21.4871 3.50821 20.6638C1.66005 18.7844 0.542054 16.5057 0.142257 13.852C-0.238389 11.3208 0.149433 8.92201 1.25067 6.66285C1.6792 5.78319 2.21306 4.97705 2.84507 4.24441C4.07798 2.81099 5.55747 1.75246 7.3003 1.13009C8.12862 0.833606 8.98567 0.617981 9.83554 0.390104C12.8304 -0.41114 15.6817 0.0274604 18.3869 1.65445C19.3588 2.26212 20.2279 2.99721 20.9868 3.87197Z" fill="url(#paint0_linear_352_6024)"/>
<path d="M7.54935 21.4185C2.45493 18.2527 0.692947 11.3797 3.60883 6.05762C6.4912 0.794401 12.9789 -1.03106 18.0973 2.12491C23.2228 5.28578 24.9896 12.1858 22.0617 17.5127C19.1267 22.8495 12.6007 24.5573 7.54935 21.4185Z" fill="url(#paint1_linear_352_6024)"/>
<path d="M21.049 16.7776C18.4802 21.4528 12.8161 22.9132 8.43504 20.284C3.86491 17.5397 2.32078 11.463 4.80096 6.82701C7.31705 2.12246 13.0746 0.478313 17.5993 3.2937C22.0712 6.05517 23.6178 12.1025 21.049 16.7776Z" fill="url(#paint2_linear_352_6024)"/>
<path d="M6.13441 6.64324C6.68024 5.8077 7.34577 5.08976 8.14537 4.5311C10.6184 2.80364 13.2446 2.54391 16.0072 3.80336C16.7829 4.1562 17.4796 4.65851 18.1044 5.26863C19.7419 6.86867 20.6779 8.83871 20.879 11.1616C21.0753 13.4379 20.4242 15.4545 19.117 17.2334C18.3749 18.2429 17.4508 19.0344 16.3711 19.62C15.7846 19.9361 15.1765 20.2105 14.5278 20.3355C12.8567 20.6614 11.2336 20.4482 9.66794 19.7106C8.71992 19.2647 7.87245 18.6595 7.1351 17.8876C4.43707 15.0551 3.86969 10.696 5.80643 7.16761C5.87346 7.05734 6.00035 6.84907 6.13441 6.64324Z" fill="url(#paint3_linear_352_6024)"/>
<path d="M20.915 12.7004C20.7977 13.3203 20.6277 13.9255 20.3619 14.4964C20.3021 14.5038 20.2422 14.5062 20.1824 14.516C19.1338 14.6704 18.0853 14.8223 17.0367 14.9816C16.9074 15.0012 16.8739 14.9669 16.8571 14.8395C16.6728 13.4943 16.4837 12.149 16.2946 10.8038C16.2874 10.7475 16.2778 10.6887 16.2706 10.6323C16.2562 10.6299 16.2419 10.625 16.2275 10.6225C16.1964 10.674 16.1677 10.7279 16.1318 10.7769C15.2029 12.0486 14.2716 13.3178 13.3451 14.592C13.2638 14.7047 13.2183 14.7071 13.1129 14.6238C11.8345 13.6388 10.5537 12.6563 9.27057 11.6761C9.22508 11.6418 9.18917 11.5879 9.11017 11.5855C9.11975 11.6516 9.12693 11.7104 9.1365 11.7717C9.32802 13.1439 9.51955 14.516 9.71585 15.8882C9.73261 15.9985 9.73022 16.0548 9.59615 16.0744C8.49731 16.2288 7.40086 16.3929 6.30201 16.5522C5.91179 16.0646 5.56227 15.55 5.29175 14.9816C6.03867 14.8713 6.78321 14.7586 7.53013 14.6557C7.66659 14.6361 7.69293 14.592 7.67378 14.4572C7.35059 12.1833 7.03218 9.90703 6.71378 7.63316C6.70899 7.59151 6.70181 7.54985 6.69463 7.50085C6.77363 7.5033 6.81194 7.5572 6.85742 7.59151C8.8205 9.09598 10.786 10.598 12.7467 12.1074C12.8711 12.203 12.9214 12.1833 13.0076 12.0657C14.4536 10.081 15.9067 8.09872 17.3551 6.11398C17.391 6.06498 17.4125 6.00617 17.4485 5.93756C17.5227 6.01597 17.5131 6.07968 17.5203 6.13603C17.8363 8.3707 18.1499 10.6078 18.4587 12.8449C18.4803 12.9993 18.5162 13.0459 18.679 13.0189C19.3637 12.9086 20.0507 12.8131 20.7378 12.7126C20.7977 12.7053 20.8575 12.7053 20.915 12.7004Z" fill="#9D3616"/>
<path d="M20.1417 12.4749C20.0292 13.0655 19.8664 13.6413 19.6126 14.1877C19.5551 14.1926 19.4977 14.1975 19.4426 14.2048C18.4419 14.3519 17.4413 14.4964 16.443 14.6483C16.3185 14.6679 16.2873 14.6336 16.2706 14.5136C16.0958 13.2321 15.9139 11.9481 15.7343 10.6666C15.7271 10.6127 15.72 10.5588 15.7104 10.5025C15.696 10.5 15.6841 10.4951 15.6697 10.4926C15.6386 10.5417 15.6122 10.5931 15.5787 10.6397C14.6929 11.8526 13.8048 13.063 12.9214 14.2783C12.8424 14.3862 12.8017 14.3886 12.6987 14.3102C11.4802 13.3693 10.2593 12.4357 9.03594 11.4997C8.99285 11.4679 8.95693 11.4164 8.88272 11.414C8.89229 11.4777 8.89948 11.534 8.90666 11.5904C9.091 12.8988 9.27294 14.2073 9.45967 15.5157C9.47404 15.6211 9.47404 15.675 9.34477 15.6922C8.29859 15.8392 7.25241 15.996 6.20384 16.1479C5.83038 15.6824 5.49761 15.1923 5.24146 14.6508C5.95247 14.5454 6.66349 14.4376 7.3769 14.3396C7.50857 14.3225 7.53251 14.2808 7.51335 14.1509C7.20453 11.9824 6.90289 9.81392 6.59885 7.64541C6.59407 7.60621 6.58688 7.56455 6.58209 7.518C6.6587 7.52045 6.69461 7.57191 6.7377 7.60376C8.60981 9.03718 10.4819 10.4706 12.3516 11.9089C12.4689 11.9996 12.5168 11.98 12.6006 11.8697C13.9795 9.97564 15.3633 8.08647 16.7446 6.19484C16.7781 6.14829 16.7997 6.09193 16.8332 6.02577C16.905 6.10173 16.8954 6.16054 16.9026 6.21444C17.2018 8.3462 17.5035 10.4779 17.798 12.6097C17.8195 12.7567 17.853 12.8008 18.0062 12.7763C18.6598 12.671 19.3157 12.5803 19.9693 12.4847C20.0268 12.4774 20.0842 12.4798 20.1417 12.4749Z" fill="white"/>
<defs>
<linearGradient id="paint0_linear_352_6024" x1="1.66333" y1="5.89257" x2="22.5813" y2="17.6921" gradientUnits="userSpaceOnUse">
<stop stop-color="#983A0D"/>
<stop offset="1" stop-color="#E3621B"/>
</linearGradient>
<linearGradient id="paint1_linear_352_6024" x1="3.49526" y1="6.25943" x2="22.3967" y2="16.9215" gradientUnits="userSpaceOnUse">
<stop stop-color="#EC6B1C"/>
<stop offset="1" stop-color="#983A0D"/>
</linearGradient>
<linearGradient id="paint2_linear_352_6024" x1="4.755" y1="6.90248" x2="21.3427" y2="16.2594" gradientUnits="userSpaceOnUse">
<stop stop-color="#983A0D"/>
<stop offset="1" stop-color="#E3621B"/>
</linearGradient>
<linearGradient id="paint3_linear_352_6024" x1="5.61994" y1="7.49453" x2="20.0911" y2="15.6575" gradientUnits="userSpaceOnUse">
<stop stop-color="#EB681C"/>
<stop offset="1" stop-color="#983A0D"/>
</linearGradient>
</defs>
</svg>
