<svg width="45" height="45" viewBox="0 0 45 45" fill="none" xmlns="http://www.w3.org/2000/svg">
<g clip-path="url(#clip0_200_4724)">
<rect width="45" height="45" rx="22.5" fill="white"/>
<path d="M22.5 0C10.0775 0 -0.0128661 10.0883 0.00294825 22.4995C0.00606319 24.9826 0.40202 27.3711 1.14517 29.6054H7.8768V10.6777L22.5 25.3008L37.1225 10.6777V29.6057H43.8556C44.5998 27.3716 44.9937 24.983 44.9981 22.4998C45.0194 10.0758 34.9238 0.00299514 22.5 0.00299514V0Z" fill="#F26822"/>
<path d="M19.137 28.6625L12.7553 22.2804V34.1908H7.87622L3.27222 34.1916C7.22136 40.6707 14.3584 45.0048 22.4999 45.0048C30.6414 45.0048 37.7788 40.6697 41.7287 34.1907H32.2431V22.2804L25.8611 28.6625L22.4992 32.0243L19.1372 28.6625H19.137Z" fill="#4D4D4D"/>
</g>
<defs>
<clipPath id="clip0_200_4724">
<rect width="45" height="45" rx="22.5" fill="white"/>
</clipPath>
</defs>
</svg>
