<svg width="25" height="24" viewBox="0 0 25 24" fill="none" xmlns="http://www.w3.org/2000/svg">
<path d="M21.4803 3.87197C23.1587 5.76359 24.156 7.97865 24.4696 10.5049C24.7661 12.9111 24.3643 15.1874 23.2984 17.3265C22.9014 18.1253 22.4138 18.8628 21.8454 19.5416C20.7599 20.8427 19.4539 21.8375 17.9347 22.5432C17.0648 22.9475 16.1435 23.1901 15.2198 23.4277C14.4749 23.6213 13.73 23.8271 12.9631 23.9178C10.6598 24.1898 8.46679 23.7879 6.38159 22.6975C5.35492 22.1609 4.41891 21.4871 3.59071 20.6638C1.69908 18.7844 0.554799 16.5057 0.145601 13.852C-0.243995 11.3208 0.152953 8.92201 1.28009 6.66285C1.71869 5.78319 2.2651 4.97705 2.91198 4.24441C4.17388 2.81099 5.68815 1.75246 7.47196 1.13009C8.31977 0.833606 9.19697 0.617981 10.0668 0.390104C13.1321 -0.41114 16.0504 0.0274604 18.8193 1.65445C19.8116 2.26212 20.7011 2.99721 21.4803 3.87197Z" fill="url(#paint0_linear_352_5954)"/>
<path d="M7.72673 21.4185C2.51251 18.2527 0.709101 11.3797 3.69355 6.05762C6.6437 0.794401 13.284 -1.03106 18.5227 2.12491C23.7688 5.28578 25.5771 12.1858 22.5804 17.5127C19.5739 22.8495 12.8968 24.5573 7.72673 21.4185Z" fill="url(#paint1_linear_352_5954)"/>
<path d="M21.544 16.7776C18.9148 21.4528 13.1174 22.9132 8.63339 20.284C3.95579 17.5397 2.37535 11.463 4.91385 6.82701C7.48911 2.12246 13.3821 0.478313 18.0131 3.2937C22.5902 6.05517 24.1731 12.1025 21.544 16.7776Z" fill="url(#paint2_linear_352_5954)"/>
<path d="M6.27624 6.64324C6.83491 5.8077 7.51609 5.08976 8.33449 4.5311C10.8656 2.80364 13.5536 2.54391 16.3812 3.80336C17.1751 4.1562 17.8882 4.65851 18.5277 5.26863C20.2037 6.86867 21.1618 8.83871 21.3676 11.1616C21.5685 13.4379 20.902 15.4545 19.5642 17.2334C18.8046 18.2429 17.8588 19.0344 16.7537 19.62C16.1534 19.9361 15.531 20.2105 14.867 20.3355C13.1567 20.6614 11.4954 20.4482 9.89287 19.7106C8.92256 19.2647 8.05516 18.6595 7.30047 17.8876C4.53899 15.0551 3.95827 10.696 5.94056 7.16761C6.01161 7.05734 6.13903 6.84907 6.27624 6.64324Z" fill="url(#paint3_linear_352_5954)"/>
<path d="M8.11877 17.7185C8.64559 16.9957 8.94452 16.5694 9.69431 15.6529C10.2187 15.011 10.6744 14.3151 11.1351 13.6266C12.2353 11.9873 14.4062 11.6051 15.972 12.7641C17.3515 13.7858 18.7163 14.8247 20.086 15.8588C20.1154 15.8808 20.1644 15.8906 20.1595 15.9617C19.6229 16.0401 19.0814 16.1185 18.5399 16.1994C18.4639 16.2116 18.4124 16.1749 18.3561 16.1332C17.3392 15.3663 16.3174 14.5993 15.3006 13.8324C14.3057 13.0826 13.0022 13.2468 12.2549 14.2367C11.5026 15.2339 10.7675 16.241 10.0324 17.2481C9.91974 17.4025 9.79967 17.4858 9.60609 17.5078C9.12829 17.5593 8.64804 17.6401 8.11877 17.7185Z" fill="#242930"/>
<path d="M6.65356 7.48859C7.23673 7.40283 7.77824 7.32687 8.31976 7.24356C8.41042 7.22886 8.45698 7.27787 8.51579 7.32197C9.52776 8.08401 10.5397 8.85095 11.5541 9.61054C12.5588 10.3603 13.8795 10.1496 14.6219 9.13519C15.3668 8.11832 16.119 7.1039 16.8664 6.08948C16.9129 6.02822 16.9546 5.98166 17.0403 5.96941C17.577 5.8959 18.1111 5.81504 18.6526 5.73663C18.6575 5.82239 18.5963 5.86405 18.5595 5.91551C17.5868 7.23866 16.6164 8.55937 15.6388 9.88007C14.4455 11.4924 12.3823 11.8011 10.7725 10.6029C9.42239 9.59829 8.08453 8.58142 6.74177 7.56945C6.72462 7.5523 6.70747 7.53515 6.65356 7.48859Z" fill="#242930"/>
<path d="M7.72437 17.2579C8.22667 16.567 8.51336 16.1602 9.22885 15.2855C9.73116 14.6729 10.1649 14.0089 10.6059 13.3497C11.6546 11.784 13.73 11.4189 15.2247 12.5264C16.5405 13.5016 17.8441 14.494 19.1525 15.4815C19.1795 15.5035 19.226 15.5133 19.2211 15.5795C18.7066 15.6554 18.192 15.729 17.675 15.8074C17.6015 15.8172 17.5549 15.7829 17.501 15.7437C16.5283 15.011 15.5555 14.2784 14.5827 13.5458C13.6345 12.8278 12.3897 12.9846 11.6742 13.9329C10.9563 14.8836 10.2531 15.8466 9.55228 16.8095C9.44447 16.9566 9.33176 17.0374 9.14554 17.057C8.68733 17.106 8.22912 17.1844 7.72437 17.2579Z" fill="#FCFCFC"/>
<path d="M6.32532 7.48862C6.88153 7.40776 7.40099 7.33425 7.91801 7.25339C8.00377 7.24114 8.05032 7.28769 8.10423 7.32935C9.07209 8.05708 10.0351 8.78972 11.0054 9.51501C11.9659 10.2329 13.2278 10.0296 13.9359 9.0617C14.6465 8.08894 15.3644 7.12352 16.0799 6.15321C16.124 6.0944 16.1657 6.0503 16.2465 6.0405C16.7587 5.96944 17.2708 5.89348 17.7878 5.81752C17.7927 5.89838 17.7339 5.94003 17.6996 5.98904C16.7709 7.25094 15.8447 8.51529 14.9111 9.77474C13.7717 11.3135 11.8017 11.61 10.2654 10.4657C8.97653 9.50766 7.69748 8.53489 6.41598 7.56948C6.39392 7.54988 6.37432 7.53272 6.32532 7.48862Z" fill="#FCFCFC"/>
<defs>
<linearGradient id="paint0_linear_352_5954" x1="1.70166" y1="5.89257" x2="22.8684" y2="18.1132" gradientUnits="userSpaceOnUse">
<stop stop-color="#232831"/>
<stop offset="1" stop-color="#3F4656"/>
</linearGradient>
<linearGradient id="paint1_linear_352_5954" x1="3.57653" y1="6.25943" x2="22.7028" y2="17.302" gradientUnits="userSpaceOnUse">
<stop stop-color="#434B5C"/>
<stop offset="1" stop-color="#232831"/>
</linearGradient>
<linearGradient id="paint2_linear_352_5954" x1="4.866" y1="6.90248" x2="21.651" y2="16.5933" gradientUnits="userSpaceOnUse">
<stop stop-color="#232831"/>
<stop offset="1" stop-color="#3F4656"/>
</linearGradient>
<linearGradient id="paint3_linear_352_5954" x1="5.75132" y1="7.49453" x2="20.3946" y2="15.9488" gradientUnits="userSpaceOnUse">
<stop stop-color="#3F4656"/>
<stop offset="1" stop-color="#232831"/>
</linearGradient>
</defs>
</svg>
