<svg width="45" height="45" viewBox="0 0 45 45" fill="none" xmlns="http://www.w3.org/2000/svg">
<rect width="45" height="45" rx="22.5" fill="#23292F"/>
<path d="M36.5076 10.7721H32.4426L26.0107 17.1348C25.0743 18.0577 23.8123 18.5751 22.4975 18.5751C21.1827 18.5751 19.9208 18.0577 18.9844 17.1348L12.5574 10.7721H8.48913L16.9519 19.1481C20.0176 22.1797 24.9845 22.1797 28.0481 19.1481L36.5076 10.7721Z" fill="#FCFCFD"/>
<path d="M8.4375 34.0631H12.5052L18.9893 27.6487C19.9257 26.7258 21.1877 26.2085 22.5025 26.2085C23.8172 26.2085 25.0792 26.7258 26.0156 27.6487L32.4976 34.0631H36.5625L28.0481 25.6355C24.9824 22.6038 20.0154 22.6038 16.9519 25.6355L8.4375 34.0631Z" fill="#FCFCFD"/>
</svg>
