<svg width="24" height="24" viewBox="0 0 24 24" fill="none" xmlns="http://www.w3.org/2000/svg">
<rect width="24" height="24" rx="12" fill="#ECB244"/>
<path d="M11.2789 14.9883H16.479V17.5883H13.4108V19.7883H10.7426V17.6565H7.54262C7.54262 16.7883 7.41081 15.9246 7.61078 15.1247C7.67894 14.7246 8.14262 14.3246 8.47891 13.9247C9.47894 12.7247 10.479 11.5247 11.5472 10.3247C11.9471 9.85649 12.3471 9.45646 12.8153 8.92471H7.81536V6.32465H10.7471V4.125H13.3472V6.2562H16.5471C16.5471 7.12433 16.6789 7.98804 16.479 8.78801C16.4108 9.18804 15.9471 9.58798 15.6107 9.98801C14.6108 11.188 13.6108 12.388 12.5426 13.588C12.1425 14.0565 11.7426 14.5201 11.2789 14.9883Z" fill="white"/>
</svg>
